<?xml version="1.0" encoding="UTF-8" standalone="no"?>
<!-- Created with Inkscape (http://www.inkscape.org/) -->

<svg
   width="628.79962"
   height="256"
   viewBox="0 0 628.79962 256"
   id="svg2"
   version="1.1"
   sodipodi:docname="lmde-leaf-name.svg"
   inkscape:version="1.2 (dc2aedaf03, 2022-05-15)"
   xmlns:inkscape="http://www.inkscape.org/namespaces/inkscape"
   xmlns:sodipodi="http://sodipodi.sourceforge.net/DTD/sodipodi-0.dtd"
   xmlns="http://www.w3.org/2000/svg"
   xmlns:svg="http://www.w3.org/2000/svg">
  <sodipodi:namedview
     id="namedview7"
     pagecolor="#505050"
     bordercolor="#ffffff"
     borderopacity="1"
     inkscape:pageshadow="0"
     inkscape:pageopacity="0"
     inkscape:pagecheckerboard="1"
     showgrid="false"
     inkscape:zoom="0.71972655"
     inkscape:cx="68.081412"
     inkscape:cy="245.23203"
     inkscape:current-layer="layer3"
     fit-margin-top="0"
     fit-margin-left="0"
     fit-margin-right="0"
     fit-margin-bottom="0"
     inkscape:showpageshadow="0"
     inkscape:deskcolor="#505050" />
  <defs
     id="defs4" />
  <g
     id="layer3">
    <g
       aria-label="lmde"
       id="text3643"
       style="font-size:144px;line-height:1.25;font-family:'Roboto Mono';-inkscape-font-specification:'Roboto Mono'">
      <path
         d="m 338.06401,184.52 q -7.776,-0.144 -12.96,-1.728 -5.04,-1.584 -8.064,-4.464 -3.024,-3.024 -4.32,-7.344 -1.152,-4.464 -1.152,-10.08 V 74.216002 l 17.424,-2.88 V 157.592 q 0,3.168 0.432,5.328 0.576,2.16 1.872,3.744 1.296,1.44 3.456,2.304 2.304,0.72 5.76,1.152 z"
         style="font-weight:500;font-family:Ubuntu;-inkscape-font-specification:'Ubuntu Medium';fill:#ffffff"
         id="path486" />
      <path
         d="m 397.53586,143.48 q 0,-11.808 -3.024,-16.992 -2.88,-5.328 -10.944,-5.328 -2.88,0 -6.336,0.432 -3.456,0.432 -5.184,0.72 v 60.768 h -17.424 v -72.864 q 5.04,-1.44 13.104,-2.736 8.208,-1.296 17.28,-1.296 7.776,0 12.672,2.016 5.04,2.016 8.352,5.328 1.584,-1.152 4.032,-2.448 2.448,-1.296 5.472,-2.304 3.024,-1.152 6.336,-1.872 3.456,-0.72 6.912,-0.72 8.784,0 14.4,2.592 5.76,2.448 8.928,7.056 3.312,4.464 4.464,10.944 1.296,6.336 1.296,13.968 v 42.336 h -17.424 v -39.6 q 0,-11.808 -2.88,-16.992 -2.88,-5.328 -11.088,-5.328 -4.176,0 -7.92,1.44 -3.744,1.296 -5.616,2.592 1.152,3.6 1.584,7.632 0.432,4.032 0.432,8.64 v 41.616 h -17.424 z"
         style="font-weight:500;font-family:Ubuntu;-inkscape-font-specification:'Ubuntu Medium';fill:#ffffff"
         id="path488" />
      <path
         d="m 492.86383,145.208 q 0,11.52 5.472,18.144 5.472,6.48 15.12,6.48 4.176,0 7.056,-0.288 3.024,-0.432 4.896,-0.864 v -43.2 q -2.304,-1.584 -6.192,-2.88 -3.744,-1.44 -8.064,-1.44 -9.504,0 -13.968,6.48 -4.32,6.48 -4.32,17.568 z m 49.968,35.568 q -5.184,1.584 -13.104,2.88 -7.776,1.296 -16.416,1.296 -8.928,0 -15.984,-2.736 -7.056,-2.736 -12.096,-7.776 -4.896,-5.184 -7.632,-12.384 -2.592,-7.344 -2.592,-16.416 0,-8.928 2.16,-16.128 2.304,-7.344 6.624,-12.528 4.32,-5.184 10.512,-7.92 6.192,-2.88 14.256,-2.88 5.472,0 9.648,1.296 4.176,1.296 7.2,2.88 V 74.216002 l 17.424,-2.88 z"
         style="font-weight:500;font-family:Ubuntu;-inkscape-font-specification:'Ubuntu Medium';fill:#ffffff"
         id="path490" />
      <path
         d="m 560.83165,145.784 q 0,-9.936 2.88,-17.424 3.024,-7.488 7.92,-12.384 4.896,-5.04 11.232,-7.488 6.336,-2.592 12.96,-2.592 15.552,0 24.192,9.648 8.784,9.648 8.784,28.8 0,1.44 -0.144,3.312 0,1.728 -0.144,3.168 h -49.68 q 0.72,9.072 6.336,14.112 5.76,4.896 16.56,4.896 6.336,0 11.52,-1.152 5.328,-1.152 8.352,-2.448 l 2.304,14.256 q -1.44,0.72 -4.032,1.584 -2.448,0.72 -5.76,1.296 -3.168,0.72 -6.912,1.152 -3.744,0.432 -7.632,0.432 -9.936,0 -17.28,-2.88 -7.344,-3.024 -12.096,-8.208 -4.752,-5.328 -7.056,-12.384 -2.304,-7.2 -2.304,-15.696 z m 50.544,-7.776 q 0,-3.6 -1.008,-6.768 -1.008,-3.312 -3.024,-5.616 -1.872,-2.448 -4.752,-3.744 -2.736,-1.44 -6.624,-1.44 -4.032,0 -7.056,1.584 -3.024,1.44 -5.184,3.888 -2.016,2.448 -3.168,5.616 -1.152,3.168 -1.584,6.48 z"
         style="font-weight:500;font-family:Ubuntu;-inkscape-font-specification:'Ubuntu Medium';fill:#ffffff"
         id="path492" />
    </g>
    <g
       id="layer3-5"
       transform="translate(282.18574,-295.51225)">
      <path
         id="path40-3"
         style="fill:#c2185b;stroke-width:0"
         d="m -26.18574,423.51225 c 0,32.64694 0,128 0,128 0,0 -89.95449,0 -128,0 -70.69245,0 -128,-57.30755 -128,-128 0,-35.4959 0,-128 0,-128 0,0 92.80345,0 128,0 70.69245,0 128,57.30755 128,128 z"
         sodipodi:nodetypes="scsscss" />
      <path
         id="path1655-5"
         style="fill:#e91e63;stroke-width:0"
         d="m -26.18574,423.51225 v 128 l -256,-256 h 128 c 70.69245,0 128,57.30755 128,128 z"
         sodipodi:nodetypes="sccss" />
      <path
         style="color:#000000;fill:#ffffff;stroke-width:0;-inkscape-stroke:none"
         d="m -238.18574,339.51225 v 120 c 0,26.3675 21.63249,48 48,48 h 72 c 26.3675,0 48,-21.6325 48,-48 v -62 c 0,-19.7401 -16.25991,-36 -36,-36 -9.22193,0 -17.60014,3.64514 -24,9.43946 -6.39986,-5.79432 -14.77808,-9.43946 -24,-9.43946 -19.7401,0 -36,16.2599 -36,36 v 62 h 24 v -62 c 0,-6.76954 5.23046,-12 12,-12 6.76953,0 12,5.23046 12,12 v 62 h 24 v -62 c 0,-6.76954 5.23046,-12 12,-12 6.76953,0 12,5.23046 12,12 v 62 c 0,13.39696 -10.60304,24 -24,24 h -72 c -13.39697,0 -24,-10.60304 -24,-24 v -120 z"
         id="path4193-6"
         sodipodi:nodetypes="csssssscssccsssccssssssscc" />
    </g>
  </g>
</svg>
