<?xml version="1.0" encoding="UTF-8" standalone="no"?>
<!-- Created with Inkscape (http://www.inkscape.org/) -->

<svg
   width="967.19891"
   height="256"
   viewBox="0 0 967.19891 256"
   id="svg2"
   version="1.1"
   sodipodi:docname="leaf-name.svg"
   inkscape:version="1.1.1 (3bf5ae0d25, 2021-09-20)"
   xmlns:inkscape="http://www.inkscape.org/namespaces/inkscape"
   xmlns:sodipodi="http://sodipodi.sourceforge.net/DTD/sodipodi-0.dtd"
   xmlns="http://www.w3.org/2000/svg"
   xmlns:svg="http://www.w3.org/2000/svg">
  <sodipodi:namedview
     id="namedview7"
     pagecolor="#505050"
     bordercolor="#ffffff"
     borderopacity="1"
     inkscape:pageshadow="0"
     inkscape:pageopacity="0"
     inkscape:pagecheckerboard="1"
     showgrid="false"
     inkscape:zoom="0.71972655"
     inkscape:cx="181.31886"
     inkscape:cy="245.23203"
     inkscape:current-layer="layer3"
     fit-margin-top="0"
     fit-margin-left="0"
     fit-margin-right="0"
     fit-margin-bottom="0" />
  <defs
     id="defs4" />
  <g
     id="layer3">
    <g
       aria-label="linux mint"
       id="text3643"
       style="font-size:144px;line-height:1.25;font-family:'Roboto Mono';-inkscape-font-specification:'Roboto Mono'">
      <path
         d="m 338.06401,184.52 q -7.776,-0.144 -12.96,-1.728 -5.04,-1.584 -8.064,-4.464 -3.024,-3.024 -4.32,-7.344 -1.152,-4.464 -1.152,-10.08 V 74.216002 l 17.424,-2.88 V 157.592 q 0,3.168 0.432,5.328 0.576,2.16 1.872,3.744 1.296,1.44 3.456,2.304 2.304,0.72 5.76,1.152 z"
         style="font-weight:500;font-family:Ubuntu;-inkscape-font-specification:'Ubuntu Medium';fill:#ffffff"
         id="path827" />
      <path
         d="m 372.19186,183.08 h -17.424 v -75.312 h 17.424 z m 1.872,-97.343998 q 0,4.896 -3.168,7.776 -3.168,2.88 -7.488,2.88 -4.464,0 -7.632,-2.88 -3.168,-2.88 -3.168,-7.776 0,-5.04 3.168,-7.92 3.168,-2.88 7.632,-2.88 4.32,0 7.488,2.88 3.168,2.88 3.168,7.92 z"
         style="font-weight:500;font-family:Ubuntu;-inkscape-font-specification:'Ubuntu Medium';fill:#ffffff"
         id="path829" />
      <path
         d="m 394.36772,110.216 q 5.04,-1.44 13.104,-2.736 8.064,-1.296 17.856,-1.296 9.216,0 15.408,2.592 6.192,2.448 9.792,7.056 3.744,4.464 5.184,10.944 1.584,6.336 1.584,13.968 v 42.336 h -17.424 v -39.6 q 0,-6.048 -0.864,-10.224 -0.72,-4.32 -2.592,-6.912 -1.728,-2.736 -4.896,-3.888 -3.024,-1.296 -7.488,-1.296 -3.312,0 -6.912,0.432 -3.6,0.432 -5.328,0.72 v 60.768 h -17.424 z"
         style="font-weight:500;font-family:Ubuntu;-inkscape-font-specification:'Ubuntu Medium';fill:#ffffff"
         id="path831" />
      <path
         d="m 540.38359,180.776 q -5.04,1.296 -13.104,2.592 -8.064,1.44 -17.712,1.44 -9.072,0 -15.264,-2.592 -6.048,-2.592 -9.792,-7.2 -3.6,-4.608 -5.184,-10.944 -1.584,-6.48 -1.584,-14.112 v -42.192 h 17.424 v 39.456 q 0,12.096 3.456,17.28 3.6,5.184 12.384,5.184 3.168,0 6.624,-0.288 3.6,-0.288 5.328,-0.72 v -60.912 h 17.424 z"
         style="font-weight:500;font-family:Ubuntu;-inkscape-font-specification:'Ubuntu Medium';fill:#ffffff"
         id="path833" />
      <path
         d="m 589.63134,132.392 15.984,-24.624 h 18.288 l -24.768,35.568 q 7.776,10.08 14.832,20.448 7.2,10.224 11.808,19.296 h -18.864 q -1.296,-2.736 -3.456,-6.192 -2.016,-3.6 -4.464,-7.344 -2.304,-3.888 -4.896,-7.632 -2.592,-3.744 -5.04,-7.056 -5.04,6.48 -9.936,14.4 -4.752,7.776 -7.92,13.824 h -17.856 q 2.16,-4.32 5.184,-9.216 3.024,-4.896 6.48,-9.936 3.456,-5.184 7.056,-10.224 3.744,-5.184 7.344,-9.792 l -24.912,-36.144 h 19.152 z"
         style="font-weight:500;font-family:Ubuntu;-inkscape-font-specification:'Ubuntu Medium';fill:#ffffff"
         id="path835" />
      <path
         d="m 715.19922,143.48 q 0,-11.808 -3.024,-16.992 -2.88,-5.328 -10.944,-5.328 -2.88,0 -6.336,0.432 -3.456,0.432 -5.184,0.72 v 60.768 h -17.424 v -72.864 q 5.04,-1.44 13.104,-2.736 8.208,-1.296 17.28,-1.296 7.776,0 12.672,2.016 5.04,2.016 8.352,5.328 1.584,-1.152 4.032,-2.448 2.448,-1.296 5.472,-2.304 3.024,-1.152 6.336,-1.872 3.456,-0.72 6.912,-0.72 8.784,0 14.4,2.592 5.76,2.448 8.928,7.056 3.312,4.464 4.464,10.944 1.296,6.336 1.296,13.968 v 42.336 h -17.424 v -39.6 q 0,-11.808 -2.88,-16.992 -2.88,-5.328 -11.088,-5.328 -4.176,0 -7.92,1.44 -3.744,1.296 -5.616,2.592 1.152,3.6 1.584,7.632 0.432,4.032 0.432,8.64 v 41.616 h -17.424 z"
         style="font-weight:500;font-family:Ubuntu;-inkscape-font-specification:'Ubuntu Medium';fill:#ffffff"
         id="path837" />
      <path
         d="m 814.41519,183.08 h -17.424 v -75.312 h 17.424 z m 1.872,-97.343998 q 0,4.896 -3.168,7.776 -3.168,2.88 -7.488,2.88 -4.464,0 -7.632,-2.88 -3.168,-2.88 -3.168,-7.776 0,-5.04 3.168,-7.92 3.168,-2.88 7.632,-2.88 4.32,0 7.488,2.88 3.168,2.88 3.168,7.92 z"
         style="font-weight:500;font-family:Ubuntu;-inkscape-font-specification:'Ubuntu Medium';fill:#ffffff"
         id="path839" />
      <path
         d="m 836.59105,110.216 q 5.04,-1.44 13.104,-2.736 8.064,-1.296 17.856,-1.296 9.216,0 15.408,2.592 6.192,2.448 9.792,7.056 3.744,4.464 5.184,10.944 1.584,6.336 1.584,13.968 v 42.336 h -17.424 v -39.6 q 0,-6.048 -0.864,-10.224 -0.72,-4.32 -2.592,-6.912 -1.728,-2.736 -4.896,-3.888 -3.024,-1.296 -7.488,-1.296 -3.312,0 -6.912,0.432 -3.6,0.432 -5.328,0.72 v 60.768 h -17.424 z"
         style="font-weight:500;font-family:Ubuntu;-inkscape-font-specification:'Ubuntu Medium';fill:#ffffff"
         id="path841" />
      <path
         d="m 919.96692,87.896002 17.424,-2.88 V 107.768 h 26.784 v 14.544 h -26.784 v 30.672 q 0,9.072 2.88,12.96 2.88,3.888 9.792,3.888 4.752,0 8.352,-1.008 3.744,-1.008 5.904,-1.872 l 2.88,13.824 q -3.024,1.296 -7.92,2.592 -4.896,1.44 -11.52,1.44 -8.064,0 -13.536,-2.16 -5.328,-2.16 -8.496,-6.192 -3.168,-4.176 -4.464,-9.936 -1.296,-5.904 -1.296,-13.392 z"
         style="font-weight:500;font-family:Ubuntu;-inkscape-font-specification:'Ubuntu Medium';fill:#ffffff"
         id="path843" />
    </g>
    <g
       id="layer3-5"
       transform="translate(282.18574,-295.51225)">
      <path
         id="path40-3"
         style="fill:#388e3c;stroke-width:0"
         d="m -26.18574,423.51225 c 0,32.64694 0,128 0,128 0,0 -89.95449,0 -128,0 -70.69245,0 -128,-57.30755 -128,-128 0,-35.4959 0,-128 0,-128 0,0 92.80345,0 128,0 70.69245,0 128,57.30755 128,128 z"
         sodipodi:nodetypes="scsscss" />
      <path
         id="path1655-5"
         style="fill:#4caf50;stroke-width:0"
         d="m -26.18574,423.51225 v 128 l -256,-256 h 128 c 70.69245,0 128,57.30755 128,128 z"
         sodipodi:nodetypes="sccss" />
      <path
         style="color:#000000;fill:#ffffff;stroke-width:0;-inkscape-stroke:none"
         d="m -238.18574,339.51225 v 120 c 0,26.3675 21.63249,48 48,48 h 72 c 26.3675,0 48,-21.6325 48,-48 v -62 c 0,-19.7401 -16.25991,-36 -36,-36 -9.22193,0 -17.60014,3.64514 -24,9.43946 -6.39986,-5.79432 -14.77808,-9.43946 -24,-9.43946 -19.7401,0 -36,16.2599 -36,36 v 62 h 24 v -62 c 0,-6.76954 5.23046,-12 12,-12 6.76953,0 12,5.23046 12,12 v 62 h 24 v -62 c 0,-6.76954 5.23046,-12 12,-12 6.76953,0 12,5.23046 12,12 v 62 c 0,13.39696 -10.60304,24 -24,24 h -72 c -13.39697,0 -24,-10.60304 -24,-24 v -120 z"
         id="path4193-6"
         sodipodi:nodetypes="csssssscssccsssccssssssscc" />
    </g>
  </g>
</svg>
