<?xml version="1.0" encoding="UTF-8" standalone="no"?>
<!-- Created with Inkscape (http://www.inkscape.org/) -->

<svg
   width="462"
   height="96"
   viewBox="0 0 122.23742 25.400001"
   version="1.1"
   id="svg8"
   inkscape:version="1.1 (c68e22c387, 2021-05-23)"
   sodipodi:docname="linuxmint-logo.svg"
   xmlns:inkscape="http://www.inkscape.org/namespaces/inkscape"
   xmlns:sodipodi="http://sodipodi.sourceforge.net/DTD/sodipodi-0.dtd"
   xmlns="http://www.w3.org/2000/svg"
   xmlns:svg="http://www.w3.org/2000/svg"
   xmlns:rdf="http://www.w3.org/1999/02/22-rdf-syntax-ns#"
   xmlns:cc="http://creativecommons.org/ns#"
   xmlns:dc="http://purl.org/dc/elements/1.1/">
  <defs
     id="defs2" />
  <sodipodi:namedview
     id="base"
     pagecolor="#ffffff"
     bordercolor="#666666"
     borderopacity="1.0"
     inkscape:pageopacity="0.0"
     inkscape:pageshadow="2"
     inkscape:zoom="2"
     inkscape:cx="250.25"
     inkscape:cy="59.75"
     inkscape:document-units="px"
     inkscape:current-layer="layer1"
     showgrid="false"
     inkscape:pagecheckerboard="true"
     units="px"
     inkscape:window-width="1920"
     inkscape:window-height="1052"
     inkscape:window-x="0"
     inkscape:window-y="0"
     inkscape:window-maximized="1"
     width="97px" />
  <metadata
     id="metadata5">
    <rdf:RDF>
      <cc:Work
         rdf:about="">
        <dc:format>image/svg+xml</dc:format>
        <dc:type
           rdf:resource="http://purl.org/dc/dcmitype/StillImage" />
      </cc:Work>
    </rdf:RDF>
  </metadata>
  <g
     inkscape:label="Calque 1"
     inkscape:groupmode="layer"
     id="layer1"
     transform="translate(0,-271.59998)">
    <g
       transform="matrix(0.27272728,0,0,0.27272728,-6.1234151e-8,215.99998)"
       id="layer1-0"
       inkscape:label="Calque 1"
       style="stroke:none">
      <path
         id="path1374-6"
         style="opacity:1;fill:#4caf50;fill-opacity:1;stroke:none;stroke-width:6.1257"
         d="m 93.133331,250.43332 c -2e-6,12.86027 0,46.56667 0,46.56667 L 2.2452521e-7,203.86666 c 0,0 35.29371477547479,-1e-5 46.56666577547479,-1e-5 25.718061,0 46.566668,20.84861 46.566665,46.56667 z"
         sodipodi:nodetypes="sccss" />
      <g
         style="stroke:none;stroke-opacity:1"
         id="layer3"
         inkscape:label="Layer 1"
         transform="matrix(0.26458333,0,0,0.26458333,-4.2333326,195.39998)" />
      <path
         id="path1139"
         style="opacity:1;fill:#388e3c;fill-opacity:1;stroke:none;stroke-width:6.1257"
         d="m 2.2452554e-7,250.43332 c 1.99999996e-6,-12.86027 0,-46.56667 0,-46.56667 L 93.133331,296.99998 c 0,0 -35.293715,1e-5 -46.566666,1e-5 C 20.848604,296.99999 -2.7754745e-6,276.15138 2.2452554e-7,250.43332 Z"
         sodipodi:nodetypes="sccss" />
    </g>
    <path
       inkscape:connector-curvature="0"
       id="path4193"
       d="m 4.6181819,276.79543 v 10.3909 c 0,2.53688 2.0813056,4.61819 4.6181818,4.61819 h 6.9272723 c 2.536877,0 4.618182,-2.0813 4.618182,-4.61819 v -5.77272 c 0,-1.89924 -1.564398,-3.46364 -3.463636,-3.46364 -0.887262,0 -1.693346,0.35071 -2.309091,0.90819 -0.615745,-0.55748 -1.421829,-0.90819 -2.309091,-0.90819 -1.899238,0 -3.4636363,1.5644 -3.4636363,3.46364 v 5.77272 h 2.3090913 v -5.77272 c 0,-0.65132 0.503232,-1.15454 1.154545,-1.15454 0.651313,0 1.154545,0.50322 1.154545,1.15454 v 5.77272 h 2.309091 v -5.77272 c 0,-0.65132 0.503233,-1.15454 1.154546,-1.15454 0.651313,0 1.154545,0.50322 1.154545,1.15454 v 5.77272 c 0,1.28896 -1.02014,2.3091 -2.309091,2.3091 H 9.2363637 c -1.2889511,0 -2.3090909,-1.02014 -2.3090909,-2.3091 v -10.3909 z"
       style="color:#000000;font-style:normal;font-variant:normal;font-weight:normal;font-stretch:normal;font-size:medium;line-height:normal;font-family:sans-serif;font-variant-ligatures:normal;font-variant-position:normal;font-variant-caps:normal;font-variant-numeric:normal;font-variant-alternates:normal;font-feature-settings:normal;text-indent:0;text-align:start;text-decoration:none;text-decoration-line:none;text-decoration-style:solid;text-decoration-color:#000000;letter-spacing:normal;word-spacing:normal;text-transform:none;writing-mode:lr-tb;direction:ltr;text-orientation:mixed;dominant-baseline:auto;baseline-shift:baseline;text-anchor:start;white-space:normal;shape-padding:0;clip-rule:nonzero;display:inline;overflow:visible;visibility:visible;opacity:1;isolation:auto;mix-blend-mode:normal;color-interpolation:sRGB;color-interpolation-filters:linearRGB;solid-color:#000000;solid-opacity:1;vector-effect:none;fill:#fafafa;fill-opacity:1;fill-rule:nonzero;stroke:none;stroke-width:2.30909;stroke-linecap:butt;stroke-linejoin:miter;stroke-miterlimit:4;stroke-dasharray:none;stroke-dashoffset:0;stroke-opacity:1;color-rendering:auto;image-rendering:auto;shape-rendering:auto;text-rendering:auto;enable-background:accumulate" />
    <text
       xml:space="preserve"
       style="font-style:normal;font-variant:normal;font-weight:normal;font-stretch:normal;font-size:18.6684px;line-height:1.25;font-family:Lato;-inkscape-font-specification:Lato;fill:#212121;fill-opacity:1;stroke:none;stroke-width:0.259282"
       x="28.983501"
       y="291.03461"
       id="text2643"><tspan
         sodipodi:role="line"
         id="tspan2641"
         style="font-style:normal;font-variant:normal;font-weight:normal;font-stretch:normal;font-size:18.6684px;font-family:Lato;-inkscape-font-specification:Lato;fill:#212121;fill-opacity:1;stroke-width:0.259282"
         x="28.983501"
         y="291.03461">Linux Mint</tspan></text>
  </g>
</svg>
