<?xml version="1.0" encoding="UTF-8" standalone="no"?>
<!-- Created with Inkscape (http://www.inkscape.org/) -->

<svg
   width="96"
   height="96"
   viewBox="0 0 25.399999 25.400001"
   version="1.1"
   id="svg8"
   inkscape:version="1.1 (c68e22c387, 2021-05-23)"
   sodipodi:docname="linuxmint-icon-mono.svg"
   xmlns:inkscape="http://www.inkscape.org/namespaces/inkscape"
   xmlns:sodipodi="http://sodipodi.sourceforge.net/DTD/sodipodi-0.dtd"
   xmlns="http://www.w3.org/2000/svg"
   xmlns:svg="http://www.w3.org/2000/svg"
   xmlns:rdf="http://www.w3.org/1999/02/22-rdf-syntax-ns#"
   xmlns:cc="http://creativecommons.org/ns#"
   xmlns:dc="http://purl.org/dc/elements/1.1/">
  <defs
     id="defs2">
    <clipPath
       clipPathUnits="userSpaceOnUse"
       id="clipPath1876">
      <rect
         style="fill:#000000;fill-opacity:1;stroke:none;stroke-width:2.92703;stroke-miterlimit:4;stroke-dasharray:none;stroke-opacity:1"
         id="rect1878"
         width="25.4"
         height="25.399944"
         x="0"
         y="271.59998" />
    </clipPath>
    <clipPath
       clipPathUnits="userSpaceOnUse"
       id="clipPath2141">
      <rect
         style="fill:#000000;stroke-width:4.13393"
         id="rect2143"
         width="25.4"
         height="25.4"
         x="-3.5527137e-15"
         y="271.59998" />
    </clipPath>
    <clipPath
       clipPathUnits="userSpaceOnUse"
       id="clipPath2403">
      <rect
         style="fill:#000000;stroke-width:0.264583"
         id="rect2405"
         x="0"
         y="271.59998"
         height="25.4"
         width="25.4" />
    </clipPath>
  </defs>
  <sodipodi:namedview
     id="base"
     pagecolor="#ffffff"
     bordercolor="#666666"
     borderopacity="1.0"
     inkscape:pageopacity="0.0"
     inkscape:pageshadow="2"
     inkscape:zoom="4"
     inkscape:cx="35.125"
     inkscape:cy="45.625"
     inkscape:document-units="px"
     inkscape:current-layer="layer1"
     showgrid="false"
     inkscape:pagecheckerboard="true"
     units="px"
     inkscape:window-width="1504"
     inkscape:window-height="684"
     inkscape:window-x="116"
     inkscape:window-y="265"
     inkscape:window-maximized="0" />
  <metadata
     id="metadata5">
    <rdf:RDF>
      <cc:Work
         rdf:about="">
        <dc:format>image/svg+xml</dc:format>
        <dc:type
           rdf:resource="http://purl.org/dc/dcmitype/StillImage" />
      </cc:Work>
    </rdf:RDF>
  </metadata>
  <g
     inkscape:label="Calque 1"
     inkscape:groupmode="layer"
     id="layer1"
     transform="translate(0,-271.59998)">
    <g
       transform="matrix(0.27272728,0,0,0.27272728,-6.1234151e-8,215.99998)"
       id="layer1-0"
       inkscape:label="Calque 1"
       style="stroke:none;stroke-opacity:1;stroke-width:0;stroke-miterlimit:4;stroke-dasharray:none;fill:#000000;fill-opacity:1">
      <path
         id="path1374-6"
         style="opacity:1;fill:#000000;stroke-width:0;fill-opacity:1;stroke:none;stroke-opacity:1;stroke-miterlimit:4;stroke-dasharray:none"
         d="m 93.133331,250.43332 c -2e-6,12.86027 0,46.56667 0,46.56667 L 2.2452521e-7,203.86666 c 0,0 35.29371477547479,-1e-5 46.56666577547479,-1e-5 25.718061,0 46.566668,20.84861 46.566665,46.56667 z"
         sodipodi:nodetypes="sccss" />
      <g
         style="stroke:none;stroke-opacity:1;fill:#000000;fill-opacity:1;stroke-width:0;stroke-miterlimit:4;stroke-dasharray:none"
         id="layer3"
         inkscape:label="Layer 1"
         transform="matrix(0.26458333,0,0,0.26458333,-4.2333326,195.39998)" />
      <path
         id="path1139"
         style="opacity:1;fill:#000000;fill-opacity:1;stroke-width:0;stroke:none;stroke-opacity:1;stroke-miterlimit:4;stroke-dasharray:none"
         d="m 2.2452554e-7,250.43332 c 1.99999996e-6,-12.86027 0,-46.56667 0,-46.56667 L 93.133331,296.99998 c 0,0 -35.293715,1e-5 -46.566666,1e-5 C 20.848604,296.99999 -2.7754745e-6,276.15138 2.2452554e-7,250.43332 Z"
         sodipodi:nodetypes="sccss" />
    </g>
    <path
       style="color:#000000;fill:#000000;-inkscape-stroke:none"
       d="m 0.09375,271.50586 -0.1875,0.1875 25.400391,25.40039 0.1875,-0.1875 z"
       id="path1671"
       clip-path="url(#clipPath2403)" />
    <path
       inkscape:connector-curvature="0"
       id="path4193"
       d="m 4.6181819,276.79543 v 10.3909 c 0,2.53688 2.0813056,4.61819 4.6181818,4.61819 h 6.9272723 c 2.536877,0 4.618182,-2.0813 4.618182,-4.61819 v -5.77272 c 0,-1.89924 -1.564398,-3.46364 -3.463636,-3.46364 -0.887262,0 -1.693346,0.35071 -2.309091,0.90819 -0.615745,-0.55748 -1.421829,-0.90819 -2.309091,-0.90819 -1.899238,0 -3.4636363,1.5644 -3.4636363,3.46364 v 5.77272 h 2.3090913 v -5.77272 c 0,-0.65132 0.503232,-1.15454 1.154545,-1.15454 0.651313,0 1.154545,0.50322 1.154545,1.15454 v 5.77272 h 2.309091 v -5.77272 c 0,-0.65132 0.503233,-1.15454 1.154546,-1.15454 0.651313,0 1.154545,0.50322 1.154545,1.15454 v 5.77272 c 0,1.28896 -1.02014,2.3091 -2.309091,2.3091 H 9.2363637 c -1.2889511,0 -2.3090909,-1.02014 -2.3090909,-2.3091 v -10.3909 z"
       style="color:#000000;font-style:normal;font-variant:normal;font-weight:normal;font-stretch:normal;font-size:medium;line-height:normal;font-family:sans-serif;font-variant-ligatures:normal;font-variant-position:normal;font-variant-caps:normal;font-variant-numeric:normal;font-variant-alternates:normal;font-feature-settings:normal;text-indent:0;text-align:start;text-decoration:none;text-decoration-line:none;text-decoration-style:solid;text-decoration-color:#000000;letter-spacing:normal;word-spacing:normal;text-transform:none;writing-mode:lr-tb;direction:ltr;text-orientation:mixed;dominant-baseline:auto;baseline-shift:baseline;text-anchor:start;white-space:normal;shape-padding:0;clip-rule:nonzero;display:inline;overflow:visible;visibility:visible;opacity:1;isolation:auto;mix-blend-mode:normal;color-interpolation:sRGB;color-interpolation-filters:linearRGB;solid-color:#000000;solid-opacity:1;vector-effect:none;fill:#ffffff;fill-opacity:1;fill-rule:nonzero;stroke:none;stroke-width:2.30909;stroke-linecap:butt;stroke-linejoin:miter;stroke-miterlimit:4;stroke-dasharray:none;stroke-dashoffset:0;stroke-opacity:1;color-rendering:auto;image-rendering:auto;shape-rendering:auto;text-rendering:auto;enable-background:accumulate"
       transform="translate(0)" />
    <path
       style="fill:#000000;stroke-width:0.25"
       d="M 45,95.737292 C 29.929987,94.75169 16.767297,87.13645 8.145221,74.415062 4.4329057,68.93775 2.0177697,62.761197 0.70023372,55.375 0.18073757,52.462667 0.16212842,51.609195 0.06343107,26.169242 L -0.03823732,-0.03651609 26.168382,0.06326632 C 51.631962,0.1602196 52.46006,0.17825047 55.375,0.69920835 60.962802,1.6978599 64.148787,2.711904 68.875,4.996026 78.659207,9.7246175 86.634915,17.78541 91.265115,27.625 c 2.063342,4.384787 3.085195,7.677287 4.034652,13 0.519478,2.912235 0.538105,3.766125 0.63676,29.1875 L 96.038152,96 71.956577,95.962662 C 58.71171,95.942125 46.58125,95.84071 45,95.737292 Z M 66.375,75.69101 c 2.777307,-0.941808 4.92785,-2.265055 7.014382,-4.31601 2.897533,-2.84813 4.524228,-6.109478 5.09034,-10.20559 0.340628,-2.464615 0.353205,-23.631045 0.01548,-26.04441 -0.34607,-2.472965 -1.884497,-5.515235 -3.70995,-7.336505 -2.51432,-2.508555 -5.652995,-3.790535 -9.268122,-3.785528 -3.12384,0.0043 -5.61265,0.81206 -7.991388,2.593573 l -0.849265,0.636037 -0.748875,-0.630137 c -1.94306,-1.634975 -4.890855,-2.603656 -7.910472,-2.599473 -2.479828,0.0034 -4.042005,0.368007 -6.142125,1.433415 -2.889895,1.466065 -5.059988,3.940918 -6.32987,7.218805 L 34.87886,34.375 34.801407,46.6875 34.723952,59 H 39.236977 43.75 l 0.0055,-11.3125 c 0.0051,-10.47152 0.03992,-11.388303 0.468592,-12.33215 1.503013,-3.309305 6.048823,-3.309305 7.551835,0 0.428675,0.943847 0.46351,1.86063 0.468593,12.33215 L 52.25,59 h 4.5 4.5 V 47.61697 c 0,-12.464108 -0.0027,-12.439175 1.477372,-13.684568 2.069528,-1.741392 5.025328,-1.236072 6.397628,1.09373 0.482015,0.818335 0.5,1.29849 0.5,13.348868 v 12.5 l -0.658793,1.405002 c -0.92669,1.97635 -2.24883,3.331653 -4.175355,4.280078 L 63.135512,67.375 H 48.005257 32.875 l -1.405003,-0.658793 c -1.976132,-0.926587 -3.33164,-2.24885 -4.280077,-4.1751 L 26.375,60.88602 26.305565,40.19301 26.236132,19.5 H 21.743066 17.25 l 0.005,20.0625 c 0.0029,11.766052 0.106358,20.763805 0.250173,21.758397 0.563625,3.897928 2.284545,7.283865 5.110051,10.054103 2.652699,2.600812 5.831299,4.274592 9.225554,4.857967 0.706347,0.1214 8.31552,0.201723 16.90927,0.178493 l 15.625,-0.04224 z"
       id="path2462"
       transform="matrix(0.26458333,0,0,0.26458333,0,271.59998)" />
  </g>
</svg>
