<?xml version="1.0" encoding="UTF-8" standalone="no"?>
<!-- Created with Inkscape (http://www.inkscape.org/) -->

<svg
   width="1913.5645"
   height="256"
   viewBox="0 0 1913.5644 256"
   id="svg2"
   version="1.1"
   sodipodi:docname="lmde-leaf-name-full.svg"
   inkscape:version="1.2 (dc2aedaf03, 2022-05-15)"
   xmlns:inkscape="http://www.inkscape.org/namespaces/inkscape"
   xmlns:sodipodi="http://sodipodi.sourceforge.net/DTD/sodipodi-0.dtd"
   xmlns="http://www.w3.org/2000/svg"
   xmlns:svg="http://www.w3.org/2000/svg">
  <sodipodi:namedview
     id="namedview7"
     pagecolor="#505050"
     bordercolor="#ffffff"
     borderopacity="1"
     inkscape:pageshadow="0"
     inkscape:pageopacity="0"
     inkscape:pagecheckerboard="1"
     showgrid="false"
     inkscape:zoom="0.35986328"
     inkscape:cx="633.57395"
     inkscape:cy="309.83989"
     inkscape:current-layer="text3643"
     fit-margin-top="0"
     fit-margin-left="0"
     fit-margin-right="0"
     fit-margin-bottom="0"
     inkscape:showpageshadow="0"
     inkscape:deskcolor="#505050" />
  <defs
     id="defs4" />
  <g
     id="layer3">
    <g
       aria-label="linux mint debian edition"
       id="text3643"
       style="font-size:144px;line-height:1.25;font-family:'Roboto Mono';-inkscape-font-specification:'Roboto Mono'">
      <path
         d="m 338.06401,184.52 q -7.776,-0.144 -12.96,-1.728 -5.04,-1.584 -8.064,-4.464 -3.024,-3.024 -4.32,-7.344 -1.152,-4.464 -1.152,-10.08 V 74.216002 l 17.424,-2.88 V 157.592 q 0,3.168 0.432,5.328 0.576,2.16 1.872,3.744 1.296,1.44 3.456,2.304 2.304,0.72 5.76,1.152 z"
         style="font-weight:500;font-family:Ubuntu;-inkscape-font-specification:'Ubuntu Medium';fill:#ffffff"
         id="path339" />
      <path
         d="m 372.19186,183.08 h -17.424 v -75.312 h 17.424 z m 1.872,-97.343998 q 0,4.896 -3.168,7.776 -3.168,2.88 -7.488,2.88 -4.464,0 -7.632,-2.88 -3.168,-2.88 -3.168,-7.776 0,-5.04 3.168,-7.92 3.168,-2.88 7.632,-2.88 4.32,0 7.488,2.88 3.168,2.88 3.168,7.92 z"
         style="font-weight:500;font-family:Ubuntu;-inkscape-font-specification:'Ubuntu Medium';fill:#ffffff"
         id="path341" />
      <path
         d="m 394.36772,110.216 q 5.04,-1.44 13.104,-2.736 8.064,-1.296 17.856,-1.296 9.216,0 15.408,2.592 6.192,2.448 9.792,7.056 3.744,4.464 5.184,10.944 1.584,6.336 1.584,13.968 v 42.336 h -17.424 v -39.6 q 0,-6.048 -0.864,-10.224 -0.72,-4.32 -2.592,-6.912 -1.728,-2.736 -4.896,-3.888 -3.024,-1.296 -7.488,-1.296 -3.312,0 -6.912,0.432 -3.6,0.432 -5.328,0.72 v 60.768 h -17.424 z"
         style="font-weight:500;font-family:Ubuntu;-inkscape-font-specification:'Ubuntu Medium';fill:#ffffff"
         id="path343" />
      <path
         d="m 540.38359,180.776 q -5.04,1.296 -13.104,2.592 -8.064,1.44 -17.712,1.44 -9.072,0 -15.264,-2.592 -6.048,-2.592 -9.792,-7.2 -3.6,-4.608 -5.184,-10.944 -1.584,-6.48 -1.584,-14.112 v -42.192 h 17.424 v 39.456 q 0,12.096 3.456,17.28 3.6,5.184 12.384,5.184 3.168,0 6.624,-0.288 3.6,-0.288 5.328,-0.72 v -60.912 h 17.424 z"
         style="font-weight:500;font-family:Ubuntu;-inkscape-font-specification:'Ubuntu Medium';fill:#ffffff"
         id="path345" />
      <path
         d="m 589.63134,132.392 15.984,-24.624 h 18.288 l -24.768,35.568 q 7.776,10.08 14.832,20.448 7.2,10.224 11.808,19.296 h -18.864 q -1.296,-2.736 -3.456,-6.192 -2.016,-3.6 -4.464,-7.344 -2.304,-3.888 -4.896,-7.632 -2.592,-3.744 -5.04,-7.056 -5.04,6.48 -9.936,14.4 -4.752,7.776 -7.92,13.824 h -17.856 q 2.16,-4.32 5.184,-9.216 3.024,-4.896 6.48,-9.936 3.456,-5.184 7.056,-10.224 3.744,-5.184 7.344,-9.792 l -24.912,-36.144 h 19.152 z"
         style="font-weight:500;font-family:Ubuntu;-inkscape-font-specification:'Ubuntu Medium';fill:#ffffff"
         id="path347" />
      <path
         d="m 715.19922,143.48 q 0,-11.808 -3.024,-16.992 -2.88,-5.328 -10.944,-5.328 -2.88,0 -6.336,0.432 -3.456,0.432 -5.184,0.72 v 60.768 h -17.424 v -72.864 q 5.04,-1.44 13.104,-2.736 8.208,-1.296 17.28,-1.296 7.776,0 12.672,2.016 5.04,2.016 8.352,5.328 1.584,-1.152 4.032,-2.448 2.448,-1.296 5.472,-2.304 3.024,-1.152 6.336,-1.872 3.456,-0.72 6.912,-0.72 8.784,0 14.4,2.592 5.76,2.448 8.928,7.056 3.312,4.464 4.464,10.944 1.296,6.336 1.296,13.968 v 42.336 h -17.424 v -39.6 q 0,-11.808 -2.88,-16.992 -2.88,-5.328 -11.088,-5.328 -4.176,0 -7.92,1.44 -3.744,1.296 -5.616,2.592 1.152,3.6 1.584,7.632 0.432,4.032 0.432,8.64 v 41.616 h -17.424 z"
         style="font-weight:500;font-family:Ubuntu;-inkscape-font-specification:'Ubuntu Medium';fill:#ffffff"
         id="path349" />
      <path
         d="m 814.41519,183.08 h -17.424 v -75.312 h 17.424 z m 1.872,-97.343998 q 0,4.896 -3.168,7.776 -3.168,2.88 -7.488,2.88 -4.464,0 -7.632,-2.88 -3.168,-2.88 -3.168,-7.776 0,-5.04 3.168,-7.92 3.168,-2.88 7.632,-2.88 4.32,0 7.488,2.88 3.168,2.88 3.168,7.92 z"
         style="font-weight:500;font-family:Ubuntu;-inkscape-font-specification:'Ubuntu Medium';fill:#ffffff"
         id="path351" />
      <path
         d="m 836.59105,110.216 q 5.04,-1.44 13.104,-2.736 8.064,-1.296 17.856,-1.296 9.216,0 15.408,2.592 6.192,2.448 9.792,7.056 3.744,4.464 5.184,10.944 1.584,6.336 1.584,13.968 v 42.336 h -17.424 v -39.6 q 0,-6.048 -0.864,-10.224 -0.72,-4.32 -2.592,-6.912 -1.728,-2.736 -4.896,-3.888 -3.024,-1.296 -7.488,-1.296 -3.312,0 -6.912,0.432 -3.6,0.432 -5.328,0.72 v 60.768 h -17.424 z"
         style="font-weight:500;font-family:Ubuntu;-inkscape-font-specification:'Ubuntu Medium';fill:#ffffff"
         id="path353" />
      <path
         d="m 919.96692,87.896002 17.424,-2.88 V 107.768 h 26.784 v 14.544 h -26.784 v 30.672 q 0,9.072 2.88,12.96 2.88,3.888 9.792,3.888 4.752,0 8.352,-1.008 3.744,-1.008 5.904,-1.872 l 2.88,13.824 q -3.024,1.296 -7.92,2.592 -4.896,1.44 -11.52,1.44 -8.064,0 -13.536,-2.16 -5.328,-2.16 -8.496,-6.192 -3.168,-4.176 -4.464,-9.936 -1.296,-5.904 -1.296,-13.392 z"
         style="font-weight:500;font-family:Ubuntu;-inkscape-font-specification:'Ubuntu Medium';fill:#ffffff"
         id="path355" />
      <path
         d="m 1075.0548,180.776 q -4.176,1.44 -10.656,2.736 -6.48,1.296 -16.416,1.296 -8.208,0 -14.976,-2.592 -6.624,-2.736 -11.52,-7.776 -4.752,-5.04 -7.488,-12.24 -2.592,-7.2 -2.592,-16.272 0,-8.496 2.16,-15.552 2.304,-7.2 6.624,-12.384 4.32,-5.184 10.512,-8.064 6.336,-2.88 14.4,-2.88 7.344,0 12.672,2.16 5.472,2.016 7.92,3.888 V 73.064002 l 9.36,-1.728 z m -9.36,-58.608 q -1.296,-1.008 -3.312,-2.16 -1.872,-1.152 -4.464,-2.16 -2.592,-1.008 -5.616,-1.584 -3.024,-0.72 -6.336,-0.72 -6.912,0 -11.664,2.448 -4.608,2.448 -7.488,6.624 -2.88,4.032 -4.176,9.648 -1.296,5.472 -1.296,11.664 0,14.688 7.344,22.608 7.344,7.776 19.44,7.776 6.912,0 11.088,-0.576 4.32,-0.72 6.48,-1.44 z"
         style="font-weight:300;font-family:Ubuntu;-inkscape-font-specification:'Ubuntu Light';fill:#ffffff"
         id="path357" />
      <path
         d="m 1095.3585,145.784 q 0,-9.792 2.736,-16.992 2.88,-7.344 7.344,-12.24 4.608,-4.896 10.368,-7.2 5.904,-2.448 12.096,-2.448 13.68,0 21.744,8.928 8.208,8.928 8.208,27.504 0,1.152 -0.144,2.304 0,1.152 -0.144,2.16 h -52.272 q 0.432,13.68 6.768,21.024 6.336,7.344 20.16,7.344 7.632,0 12.096,-1.44 4.464,-1.44 6.48,-2.448 l 1.728,8.064 q -2.016,1.152 -7.632,2.736 -5.472,1.584 -12.96,1.584 -9.792,0 -16.704,-2.88 -6.912,-2.88 -11.376,-8.064 -4.464,-5.184 -6.48,-12.24 -2.016,-7.2 -2.016,-15.696 z m 52.848,-5.904 q -0.288,-11.664 -5.472,-18.144 -5.184,-6.48 -14.688,-6.48 -5.04,0 -9.072,2.016 -3.888,2.016 -6.912,5.472 -2.88,3.312 -4.608,7.776 -1.584,4.464 -1.872,9.36 z"
         style="font-weight:300;font-family:Ubuntu;-inkscape-font-specification:'Ubuntu Light';fill:#ffffff"
         id="path359" />
      <path
         d="m 1188.0943,113.096 q 2.448,-1.872 7.776,-3.888 5.472,-2.16 12.816,-2.16 8.064,0 14.256,2.88 6.336,2.88 10.656,8.064 4.32,5.184 6.48,12.384 2.304,7.056 2.304,15.552 0,9.072 -2.736,16.272 -2.592,7.2 -7.488,12.24 -4.752,5.04 -11.52,7.776 -6.624,2.592 -14.832,2.592 -9.936,0 -16.416,-1.296 -6.48,-1.296 -10.656,-2.736 V 73.064002 l 9.36,-1.728 z m 0,61.2 q 2.16,0.72 6.336,1.44 4.32,0.576 11.232,0.576 12.096,0 19.44,-7.776 7.344,-7.92 7.344,-22.608 0,-6.192 -1.296,-11.664 -1.296,-5.616 -4.176,-9.648 -2.88,-4.176 -7.632,-6.624 -4.608,-2.448 -11.52,-2.448 -3.312,0 -6.336,0.72 -3.024,0.576 -5.616,1.584 -2.592,1.008 -4.608,2.16 -1.872,1.152 -3.168,2.16 z"
         style="font-weight:300;font-family:Ubuntu;-inkscape-font-specification:'Ubuntu Light';fill:#ffffff"
         id="path361" />
      <path
         d="m 1272.0461,183.08 h -9.36 v -74.448 h 9.36 z m 2.16,-96.911998 q 0,3.312 -2.016,5.328 -2.016,1.872 -4.896,1.872 -2.88,0 -4.896,-1.872 -2.016,-2.016 -2.016,-5.328 0,-3.312 2.016,-5.184 2.016,-2.016 4.896,-2.016 2.88,0 4.896,2.016 2.016,1.872 2.016,5.184 z"
         style="font-weight:300;font-family:Ubuntu;-inkscape-font-specification:'Ubuntu Light';fill:#ffffff"
         id="path363" />
      <path
         d="m 1320.286,176.312 q 5.472,0 9.504,-0.288 4.176,-0.432 7.056,-1.008 v -26.208 q -1.584,-0.72 -5.04,-1.44 -3.456,-0.864 -9.504,-0.864 -3.456,0 -7.2,0.576 -3.744,0.432 -6.912,2.16 -3.168,1.584 -5.184,4.464 -2.016,2.88 -2.016,7.632 0,4.176 1.296,7.056 1.44,2.88 3.888,4.608 2.592,1.728 6.048,2.592 3.6,0.72 8.064,0.72 z m -0.864,-69.408 q 7.344,0 12.384,2.16 5.184,2.016 8.352,5.76 3.168,3.6 4.608,8.64 1.44,5.04 1.44,10.944 v 46.944 q -1.44,0.432 -4.176,1.008 -2.736,0.432 -6.336,1.008 -3.6,0.576 -8.064,0.864 -4.32,0.432 -8.928,0.432 -5.904,0 -10.944,-1.296 -4.896,-1.296 -8.64,-4.032 -3.6,-2.88 -5.76,-7.2 -2.016,-4.464 -2.016,-10.8 0,-6.048 2.304,-10.368 2.304,-4.32 6.48,-7.056 4.176,-2.88 9.936,-4.176 5.76,-1.296 12.528,-1.296 2.016,0 4.176,0.288 2.304,0.144 4.32,0.576 2.16,0.288 3.6,0.72 1.584,0.288 2.16,0.576 v -4.608 q 0,-3.888 -0.576,-7.488 -0.576,-3.744 -2.592,-6.624 -1.872,-3.024 -5.472,-4.752 -3.456,-1.872 -9.216,-1.872 -8.208,0 -12.24,1.152 -4.032,1.152 -5.904,1.872 l -1.296,-8.208 q 2.448,-1.152 7.488,-2.16 5.184,-1.008 12.384,-1.008 z"
         style="font-weight:300;font-family:Ubuntu;-inkscape-font-specification:'Ubuntu Light';fill:#ffffff"
         id="path365" />
      <path
         d="m 1370.1098,111.224 q 4.176,-1.152 11.232,-2.592 7.056,-1.44 17.28,-1.44 8.496,0 14.112,2.448 5.76,2.448 9.072,7.056 3.456,4.464 4.896,10.8 1.44,6.336 1.44,13.968 v 41.616 h -9.36 v -38.592 q 0,-7.92 -1.152,-13.392 -1.008,-5.472 -3.6,-8.928 -2.448,-3.456 -6.624,-4.896 -4.032,-1.584 -10.224,-1.584 -6.624,0 -11.52,0.72 -4.752,0.72 -6.192,1.296 v 65.376 h -9.36 z"
         style="font-weight:300;font-family:Ubuntu;-inkscape-font-specification:'Ubuntu Light';fill:#ffffff"
         id="path367" />
      <path
         d="m 1480.4133,145.784 q 0,-9.792 2.736,-16.992 2.88,-7.344 7.344,-12.24 4.608,-4.896 10.368,-7.2 5.904,-2.448 12.096,-2.448 13.68,0 21.744,8.928 8.208,8.928 8.208,27.504 0,1.152 -0.144,2.304 0,1.152 -0.144,2.16 h -52.272 q 0.432,13.68 6.768,21.024 6.336,7.344 20.16,7.344 7.632,0 12.096,-1.44 4.464,-1.44 6.48,-2.448 l 1.728,8.064 q -2.016,1.152 -7.632,2.736 -5.472,1.584 -12.96,1.584 -9.792,0 -16.704,-2.88 -6.912,-2.88 -11.376,-8.064 -4.464,-5.184 -6.48,-12.24 -2.016,-7.2 -2.016,-15.696 z m 52.848,-5.904 q -0.288,-11.664 -5.472,-18.144 -5.184,-6.48 -14.688,-6.48 -5.04,0 -9.072,2.016 -3.888,2.016 -6.912,5.472 -2.88,3.312 -4.608,7.776 -1.584,4.464 -1.872,9.36 z"
         style="font-weight:300;font-family:Ubuntu;-inkscape-font-specification:'Ubuntu Light';fill:#ffffff"
         id="path369" />
      <path
         d="m 1622.9732,180.776 q -4.176,1.44 -10.656,2.736 -6.48,1.296 -16.416,1.296 -8.208,0 -14.976,-2.592 -6.624,-2.736 -11.52,-7.776 -4.752,-5.04 -7.488,-12.24 -2.592,-7.2 -2.592,-16.272 0,-8.496 2.16,-15.552 2.304,-7.2 6.624,-12.384 4.32,-5.184 10.512,-8.064 6.336,-2.88 14.4,-2.88 7.344,0 12.672,2.16 5.472,2.016 7.92,3.888 V 73.064002 l 9.36,-1.728 z m -9.36,-58.608 q -1.296,-1.008 -3.312,-2.16 -1.872,-1.152 -4.464,-2.16 -2.592,-1.008 -5.616,-1.584 -3.024,-0.72 -6.336,-0.72 -6.912,0 -11.664,2.448 -4.608,2.448 -7.488,6.624 -2.88,4.032 -4.176,9.648 -1.296,5.472 -1.296,11.664 0,14.688 7.344,22.608 7.344,7.776 19.44,7.776 6.912,0 11.088,-0.576 4.32,-0.72 6.48,-1.44 z"
         style="font-weight:300;font-family:Ubuntu;-inkscape-font-specification:'Ubuntu Light';fill:#ffffff"
         id="path371" />
      <path
         d="m 1657.1009,183.08 h -9.36 v -74.448 h 9.36 z m 2.16,-96.911998 q 0,3.312 -2.016,5.328 -2.016,1.872 -4.896,1.872 -2.88,0 -4.896,-1.872 -2.016,-2.016 -2.016,-5.328 0,-3.312 2.016,-5.184 2.016,-2.016 4.896,-2.016 2.88,0 4.896,2.016 2.016,1.872 2.016,5.184 z"
         style="font-weight:300;font-family:Ubuntu;-inkscape-font-specification:'Ubuntu Light';fill:#ffffff"
         id="path373" />
      <path
         d="m 1690.6528,108.632 h 29.664 v 7.92 h -29.664 v 39.6 q 0,6.336 1.008,10.368 1.152,3.888 3.168,6.048 2.016,2.16 4.896,2.88 2.88,0.72 6.336,0.72 5.904,0 9.504,-1.296 3.6,-1.44 5.616,-2.592 l 2.304,7.776 q -2.016,1.296 -7.056,3.024 -5.04,1.584 -10.944,1.584 -6.912,0 -11.664,-1.728 -4.608,-1.872 -7.488,-5.472 -2.736,-3.744 -3.888,-9.216 -1.152,-5.472 -1.152,-12.96 V 86.744002 l 9.36,-1.728 z"
         style="font-weight:300;font-family:Ubuntu;-inkscape-font-specification:'Ubuntu Light';fill:#ffffff"
         id="path375" />
      <path
         d="m 1746.9567,183.08 h -9.36 v -74.448 h 9.36 z m 2.16,-96.911998 q 0,3.312 -2.016,5.328 -2.016,1.872 -4.896,1.872 -2.88,0 -4.896,-1.872 -2.016,-2.016 -2.016,-5.328 0,-3.312 2.016,-5.184 2.016,-2.016 4.896,-2.016 2.88,0 4.896,2.016 2.016,1.872 2.016,5.184 z"
         style="font-weight:300;font-family:Ubuntu;-inkscape-font-specification:'Ubuntu Light';fill:#ffffff"
         id="path377" />
      <path
         d="m 1835.2286,145.928 q 0,8.784 -2.592,15.984 -2.448,7.2 -7.056,12.24 -4.464,5.04 -10.656,7.92 -6.192,2.736 -13.68,2.736 -7.488,0 -13.68,-2.736 -6.192,-2.88 -10.8,-7.92 -4.464,-5.04 -7.056,-12.24 -2.448,-7.2 -2.448,-15.984 0,-8.784 2.448,-15.984 2.592,-7.2 7.056,-12.24 4.608,-5.184 10.8,-7.92 6.192,-2.88 13.68,-2.88 7.488,0 13.68,2.88 6.192,2.736 10.656,7.92 4.608,5.04 7.056,12.24 2.592,7.2 2.592,15.984 z m -9.936,0 q 0,-13.968 -6.48,-22.176 -6.48,-8.352 -17.568,-8.352 -11.088,0 -17.568,8.352 -6.48,8.208 -6.48,22.176 0,13.968 6.48,22.176 6.48,8.208 17.568,8.208 11.088,0 17.568,-8.208 6.48,-8.208 6.48,-22.176 z"
         style="font-weight:300;font-family:Ubuntu;-inkscape-font-specification:'Ubuntu Light';fill:#ffffff"
         id="path379" />
      <path
         d="m 1855.5325,111.224 q 4.176,-1.152 11.232,-2.592 7.056,-1.44 17.28,-1.44 8.496,0 14.112,2.448 5.76,2.448 9.072,7.056 3.456,4.464 4.896,10.8 1.44,6.336 1.44,13.968 v 41.616 h -9.36 v -38.592 q 0,-7.92 -1.152,-13.392 -1.008,-5.472 -3.6,-8.928 -2.448,-3.456 -6.624,-4.896 -4.032,-1.584 -10.224,-1.584 -6.624,0 -11.52,0.72 -4.752,0.72 -6.192,1.296 v 65.376 h -9.36 z"
         style="font-weight:300;font-family:Ubuntu;-inkscape-font-specification:'Ubuntu Light';fill:#ffffff"
         id="path381" />
    </g>
    <g
       id="layer3-5"
       transform="translate(282.18574,-295.51225)">
      <path
         id="path40-3"
         style="fill:#c2185b;stroke-width:0"
         d="m -26.18574,423.51225 c 0,32.64694 0,128 0,128 0,0 -89.95449,0 -128,0 -70.69245,0 -128,-57.30755 -128,-128 0,-35.4959 0,-128 0,-128 0,0 92.80345,0 128,0 70.69245,0 128,57.30755 128,128 z"
         sodipodi:nodetypes="scsscss" />
      <path
         id="path1655-5"
         style="fill:#e91e63;stroke-width:0"
         d="m -26.18574,423.51225 v 128 l -256,-256 h 128 c 70.69245,0 128,57.30755 128,128 z"
         sodipodi:nodetypes="sccss" />
      <path
         style="color:#000000;fill:#ffffff;stroke-width:0;-inkscape-stroke:none"
         d="m -238.18574,339.51225 v 120 c 0,26.3675 21.63249,48 48,48 h 72 c 26.3675,0 48,-21.6325 48,-48 v -62 c 0,-19.7401 -16.25991,-36 -36,-36 -9.22193,0 -17.60014,3.64514 -24,9.43946 -6.39986,-5.79432 -14.77808,-9.43946 -24,-9.43946 -19.7401,0 -36,16.2599 -36,36 v 62 h 24 v -62 c 0,-6.76954 5.23046,-12 12,-12 6.76953,0 12,5.23046 12,12 v 62 h 24 v -62 c 0,-6.76954 5.23046,-12 12,-12 6.76953,0 12,5.23046 12,12 v 62 c 0,13.39696 -10.60304,24 -24,24 h -72 c -13.39697,0 -24,-10.60304 -24,-24 v -120 z"
         id="path4193-6"
         sodipodi:nodetypes="csssssscssccsssccssssssscc" />
    </g>
  </g>
</svg>
