<?xml version="1.0" encoding="UTF-8" standalone="no"?>
<!-- Created with Inkscape (http://www.inkscape.org/) -->

<svg
   width="1280"
   height="288.00003"
   viewBox="0 0 338.66667 76.200011"
   version="1.1"
   id="svg5"
   inkscape:version="1.2 (dc2aedaf03, 2022-05-15)"
   sodipodi:docname="new-topic.svg"
   xml:space="preserve"
   inkscape:export-filename="new-topic.png"
   inkscape:export-xdpi="96"
   inkscape:export-ydpi="96"
   xmlns:inkscape="http://www.inkscape.org/namespaces/inkscape"
   xmlns:sodipodi="http://sodipodi.sourceforge.net/DTD/sodipodi-0.dtd"
   xmlns="http://www.w3.org/2000/svg"
   xmlns:svg="http://www.w3.org/2000/svg"
   xmlns:rdf="http://www.w3.org/1999/02/22-rdf-syntax-ns#"
   xmlns:cc="http://creativecommons.org/ns#"><sodipodi:namedview
     id="namedview7"
     pagecolor="#ffffff"
     bordercolor="#000000"
     borderopacity="1"
     inkscape:pageshadow="0"
     inkscape:pageopacity="0"
     inkscape:pagecheckerboard="true"
     inkscape:document-units="px"
     showgrid="false"
     borderlayer="false"
     inkscape:showpageshadow="true"
     units="px"
     width="1920px"
     inkscape:deskcolor="#d1d1d1"
     inkscape:zoom="0.79791667"
     inkscape:cx="643.55091"
     inkscape:cy="36.971279"
     inkscape:current-layer="layer1" /><defs
     id="defs2"><clipPath
       clipPathUnits="userSpaceOnUse"
       id="clipPath843"><path
         id="path845"
         style="fill:#43a047;stroke-width:0"
         d="m 0,0 v 128 c 0,70.69245 57.307552,128 128,128 H 256 V 128 C 256,57.307552 198.69245,0 128,0 Z" /></clipPath><clipPath
       clipPathUnits="userSpaceOnUse"
       id="clipPath951"><circle
         style="fill:#9e9e9e;stroke:#4caf50;stroke-width:0;stroke-linecap:round;paint-order:markers fill stroke"
         id="circle953"
         cx="128"
         cy="128"
         r="128" /></clipPath><clipPath
       clipPathUnits="userSpaceOnUse"
       id="clipPath955"><circle
         style="fill:#9e9e9e;stroke:#4caf50;stroke-width:0;stroke-linecap:round;paint-order:markers fill stroke"
         id="circle957"
         cx="128"
         cy="128"
         r="128" /></clipPath><clipPath
       clipPathUnits="userSpaceOnUse"
       id="clipPath959"><circle
         style="fill:#9e9e9e;stroke:#4caf50;stroke-width:0;stroke-linecap:round;paint-order:markers fill stroke"
         id="circle961"
         cx="128"
         cy="128"
         r="128" /></clipPath><clipPath
       clipPathUnits="userSpaceOnUse"
       id="clipPath1223"><path
         id="path1225"
         style="fill:none;stroke:#ffffff;stroke-width:0;stroke-miterlimit:4;stroke-dasharray:none"
         d="m 256,128 c 0,32.64694 0,128 0,128 0,0 -89.95449,0 -128,0 C 57.307552,256 0,198.69245 0,128 0,92.504104 0,0 0,0 0,0 92.803448,0 128,0 198.69245,0 256,57.307552 256,128 Z"
         sodipodi:nodetypes="scsscss" /></clipPath><clipPath
       clipPathUnits="userSpaceOnUse"
       id="clipPath1223-5"><path
         id="path1225-0"
         style="fill:none;stroke:#ffffff;stroke-width:0;stroke-miterlimit:4;stroke-dasharray:none"
         d="m 256,128 c 0,32.64694 0,128 0,128 0,0 -89.95449,0 -128,0 C 57.307552,256 0,198.69245 0,128 0,92.504104 0,0 0,0 0,0 92.803448,0 128,0 198.69245,0 256,57.307552 256,128 Z"
         sodipodi:nodetypes="scsscss" /></clipPath><clipPath
       clipPathUnits="userSpaceOnUse"
       id="clipPath951-3"><circle
         style="fill:#9e9e9e;stroke:#4caf50;stroke-width:0;stroke-linecap:round;paint-order:markers fill stroke"
         id="circle953-5"
         cx="128"
         cy="128"
         r="128" /></clipPath><clipPath
       clipPathUnits="userSpaceOnUse"
       id="clipPath955-1"><circle
         style="fill:#9e9e9e;stroke:#4caf50;stroke-width:0;stroke-linecap:round;paint-order:markers fill stroke"
         id="circle957-7"
         cx="128"
         cy="128"
         r="128" /></clipPath><clipPath
       clipPathUnits="userSpaceOnUse"
       id="clipPath959-4"><circle
         style="fill:#9e9e9e;stroke:#4caf50;stroke-width:0;stroke-linecap:round;paint-order:markers fill stroke"
         id="circle961-3"
         cx="128"
         cy="128"
         r="128" /></clipPath><clipPath
       clipPathUnits="userSpaceOnUse"
       id="clipPath1223-4"><path
         id="path1225-2"
         style="fill:none;stroke:#ffffff;stroke-width:0;stroke-miterlimit:4;stroke-dasharray:none"
         d="m 256,128 c 0,32.64694 0,128 0,128 0,0 -89.95449,0 -128,0 C 57.307552,256 0,198.69245 0,128 0,92.504104 0,0 0,0 0,0 92.803448,0 128,0 198.69245,0 256,57.307552 256,128 Z"
         sodipodi:nodetypes="scsscss" /></clipPath></defs><g
     inkscape:groupmode="layer"
     id="layer4"
     inkscape:label="Background"><rect
       style="display:inline;opacity:1;fill:#81c784;stroke:#e91e63;stroke-width:0;paint-order:markers fill stroke"
       id="rect182"
       width="338.66669"
       height="76.200005"
       x="0"
       y="34.546581"
       transform="translate(4.9999999e-7,-34.546581)" /></g><g
     inkscape:label="Logos"
     inkscape:groupmode="layer"
     id="layer1"
     transform="translate(5e-7,-34.546581)"
     style="display:inline;opacity:0.75"><path
       style="color:#000000;opacity:0.75;fill:#ffffff;stroke-width:0;-inkscape-stroke:none"
       d="m 225.71607,37.843286 v 24.190482 c 0,5.31535 4.36084,9.67619 9.67619,9.67619 h 14.51429 c 5.31535,0 9.67619,-4.36084 9.67619,-9.67619 V 49.53535 c 0,-3.979354 -3.27779,-7.257143 -7.25714,-7.257143 -1.85903,0 -3.54797,0.734814 -4.8381,1.902876 -1.29013,-1.168061 -2.97907,-1.902876 -4.83809,-1.902876 -3.97936,0 -7.25715,3.277789 -7.25715,7.257143 v 12.498418 h 4.8381 V 49.53535 c 0,-1.364654 1.05439,-2.419048 2.41905,-2.419048 1.36465,0 2.41904,1.054394 2.41904,2.419048 v 12.498418 h 4.8381 V 49.53535 c 0,-1.364654 1.05439,-2.419048 2.41905,-2.419048 1.36465,0 2.41904,1.054394 2.41904,2.419048 v 12.498418 c 0,2.70065 -2.13743,4.83809 -4.83809,4.83809 h -14.51429 c -2.70066,0 -4.83809,-2.13744 -4.83809,-4.83809 V 37.843286 Z"
       id="path4193-5-4"
       sodipodi:nodetypes="csssssscssccsssccssssssscc" /><path
       style="color:#000000;opacity:0.75;fill:#e91e63;fill-opacity:1;stroke-width:0;-inkscape-stroke:none"
       d="m 34.885937,27.792733 v 16.630952 c 0,3.654304 2.998076,6.65238 6.652381,6.65238 h 9.978571 c 3.654305,0 6.652382,-2.998076 6.652382,-6.65238 v -8.592658 c 0,-2.735806 -2.253481,-4.989286 -4.989287,-4.989286 -1.278079,0 -2.439224,0.505185 -3.32619,1.308227 -0.886962,-0.803042 -2.048111,-1.308227 -3.32619,-1.308227 -2.735805,0 -4.989286,2.25348 -4.989286,4.989286 v 8.592658 h 3.32619 v -8.592658 c 0,-0.9382 0.724895,-1.663095 1.663096,-1.663095 0.9382,0 1.663095,0.724895 1.663095,1.663095 v 8.592658 h 3.32619 v -8.592658 c 0,-0.9382 0.724895,-1.663095 1.663095,-1.663095 0.938201,0 1.663096,0.724895 1.663096,1.663095 v 8.592658 c 0,1.856705 -1.46949,3.326189 -3.326191,3.326189 h -9.978571 c -1.856701,0 -3.326191,-1.469484 -3.326191,-3.326189 V 27.792733 Z"
       id="path4193-5"
       sodipodi:nodetypes="csssssscssccsssccssssssscc" /><g
       id="g1038"
       transform="matrix(0.75,0,0,0.75,-16.160917,8.4183217)"
       style="opacity:0.55"><g
         id="layer3-5"
         transform="matrix(0.26458334,0,0,0.26458334,32.203096,58.988845)"><path
           id="path823"
           style="fill:#43a047;stroke:#ffffff;stroke-width:24;stroke-miterlimit:4;stroke-dasharray:none"
           d="m 0,0 v 128 c 0,70.69245 57.307552,128 128,128 H 256 V 128 C 256,57.307552 198.69245,0 128,0 Z"
           clip-path="url(#clipPath843)" /><path
           style="color:#000000;fill:#ffffff;stroke-width:0;-inkscape-stroke:none"
           d="m 44,44 v 120 c 0,26.3675 21.63249,48 48,48 h 72 c 26.3675,0 48,-21.6325 48,-48 v -62 c 0,-19.7401 -16.25991,-36 -36,-36 -9.22193,0 -17.60014,3.64514 -24,9.43946 C 145.60014,69.64514 137.22192,66 128,66 108.2599,66 92,82.2599 92,102 v 62 h 24 v -62 c 0,-6.76954 5.23046,-12 12,-12 6.76953,0 12,5.23046 12,12 v 62 h 24 v -62 c 0,-6.76954 5.23046,-12 12,-12 6.76953,0 12,5.23046 12,12 v 62 c 0,13.39696 -10.60304,24 -24,24 H 92 C 78.60303,188 68,177.39696 68,164 V 44 Z"
           id="path4193-2"
           sodipodi:nodetypes="csssssscssccsssccssssssscc" /></g></g><g
       id="layer3-0"
       transform="matrix(0.13229167,0,0,0.13229167,87.796254,86.526623)"
       style="opacity:0.7"><g
         aria-label="linux mint"
         id="text3643"
         style="font-size:144px;line-height:1.25;font-family:'Roboto Mono';-inkscape-font-specification:'Roboto Mono'"><path
           d="m 338.06401,184.52 q -7.776,-0.144 -12.96,-1.728 -5.04,-1.584 -8.064,-4.464 -3.024,-3.024 -4.32,-7.344 -1.152,-4.464 -1.152,-10.08 V 74.216002 l 17.424,-2.88 V 157.592 q 0,3.168 0.432,5.328 0.576,2.16 1.872,3.744 1.296,1.44 3.456,2.304 2.304,0.72 5.76,1.152 z"
           style="font-weight:500;font-family:Ubuntu;-inkscape-font-specification:'Ubuntu Medium';fill:#ffffff"
           id="path825" /><path
           d="m 372.19186,183.08 h -17.424 v -75.312 h 17.424 z m 1.872,-97.343998 q 0,4.896 -3.168,7.776 -3.168,2.88 -7.488,2.88 -4.464,0 -7.632,-2.88 -3.168,-2.88 -3.168,-7.776 0,-5.04 3.168,-7.92 3.168,-2.88 7.632,-2.88 4.32,0 7.488,2.88 3.168,2.88 3.168,7.92 z"
           style="font-weight:500;font-family:Ubuntu;-inkscape-font-specification:'Ubuntu Medium';fill:#ffffff"
           id="path827" /><path
           d="m 394.36772,110.216 q 5.04,-1.44 13.104,-2.736 8.064,-1.296 17.856,-1.296 9.216,0 15.408,2.592 6.192,2.448 9.792,7.056 3.744,4.464 5.184,10.944 1.584,6.336 1.584,13.968 v 42.336 h -17.424 v -39.6 q 0,-6.048 -0.864,-10.224 -0.72,-4.32 -2.592,-6.912 -1.728,-2.736 -4.896,-3.888 -3.024,-1.296 -7.488,-1.296 -3.312,0 -6.912,0.432 -3.6,0.432 -5.328,0.72 v 60.768 h -17.424 z"
           style="font-weight:500;font-family:Ubuntu;-inkscape-font-specification:'Ubuntu Medium';fill:#ffffff"
           id="path829" /><path
           d="m 540.38359,180.776 q -5.04,1.296 -13.104,2.592 -8.064,1.44 -17.712,1.44 -9.072,0 -15.264,-2.592 -6.048,-2.592 -9.792,-7.2 -3.6,-4.608 -5.184,-10.944 -1.584,-6.48 -1.584,-14.112 v -42.192 h 17.424 v 39.456 q 0,12.096 3.456,17.28 3.6,5.184 12.384,5.184 3.168,0 6.624,-0.288 3.6,-0.288 5.328,-0.72 v -60.912 h 17.424 z"
           style="font-weight:500;font-family:Ubuntu;-inkscape-font-specification:'Ubuntu Medium';fill:#ffffff"
           id="path831" /><path
           d="m 589.63134,132.392 15.984,-24.624 h 18.288 l -24.768,35.568 q 7.776,10.08 14.832,20.448 7.2,10.224 11.808,19.296 h -18.864 q -1.296,-2.736 -3.456,-6.192 -2.016,-3.6 -4.464,-7.344 -2.304,-3.888 -4.896,-7.632 -2.592,-3.744 -5.04,-7.056 -5.04,6.48 -9.936,14.4 -4.752,7.776 -7.92,13.824 h -17.856 q 2.16,-4.32 5.184,-9.216 3.024,-4.896 6.48,-9.936 3.456,-5.184 7.056,-10.224 3.744,-5.184 7.344,-9.792 l -24.912,-36.144 h 19.152 z"
           style="font-weight:500;font-family:Ubuntu;-inkscape-font-specification:'Ubuntu Medium';fill:#ffffff"
           id="path833" /><path
           d="m 715.19922,143.48 q 0,-11.808 -3.024,-16.992 -2.88,-5.328 -10.944,-5.328 -2.88,0 -6.336,0.432 -3.456,0.432 -5.184,0.72 v 60.768 h -17.424 v -72.864 q 5.04,-1.44 13.104,-2.736 8.208,-1.296 17.28,-1.296 7.776,0 12.672,2.016 5.04,2.016 8.352,5.328 1.584,-1.152 4.032,-2.448 2.448,-1.296 5.472,-2.304 3.024,-1.152 6.336,-1.872 3.456,-0.72 6.912,-0.72 8.784,0 14.4,2.592 5.76,2.448 8.928,7.056 3.312,4.464 4.464,10.944 1.296,6.336 1.296,13.968 v 42.336 h -17.424 v -39.6 q 0,-11.808 -2.88,-16.992 -2.88,-5.328 -11.088,-5.328 -4.176,0 -7.92,1.44 -3.744,1.296 -5.616,2.592 1.152,3.6 1.584,7.632 0.432,4.032 0.432,8.64 v 41.616 h -17.424 z"
           style="font-weight:500;font-family:Ubuntu;-inkscape-font-specification:'Ubuntu Medium';fill:#ffffff"
           id="path835" /><path
           d="m 814.41519,183.08 h -17.424 v -75.312 h 17.424 z m 1.872,-97.343998 q 0,4.896 -3.168,7.776 -3.168,2.88 -7.488,2.88 -4.464,0 -7.632,-2.88 -3.168,-2.88 -3.168,-7.776 0,-5.04 3.168,-7.92 3.168,-2.88 7.632,-2.88 4.32,0 7.488,2.88 3.168,2.88 3.168,7.92 z"
           style="font-weight:500;font-family:Ubuntu;-inkscape-font-specification:'Ubuntu Medium';fill:#ffffff"
           id="path837" /><path
           d="m 836.59105,110.216 q 5.04,-1.44 13.104,-2.736 8.064,-1.296 17.856,-1.296 9.216,0 15.408,2.592 6.192,2.448 9.792,7.056 3.744,4.464 5.184,10.944 1.584,6.336 1.584,13.968 v 42.336 h -17.424 v -39.6 q 0,-6.048 -0.864,-10.224 -0.72,-4.32 -2.592,-6.912 -1.728,-2.736 -4.896,-3.888 -3.024,-1.296 -7.488,-1.296 -3.312,0 -6.912,0.432 -3.6,0.432 -5.328,0.72 v 60.768 h -17.424 z"
           style="font-weight:500;font-family:Ubuntu;-inkscape-font-specification:'Ubuntu Medium';fill:#ffffff"
           id="path839" /><path
           d="m 919.96692,87.896002 17.424,-2.88 V 107.768 h 26.784 v 14.544 h -26.784 v 30.672 q 0,9.072 2.88,12.96 2.88,3.888 9.792,3.888 4.752,0 8.352,-1.008 3.744,-1.008 5.904,-1.872 l 2.88,13.824 q -3.024,1.296 -7.92,2.592 -4.896,1.44 -11.52,1.44 -8.064,0 -13.536,-2.16 -5.328,-2.16 -8.496,-6.192 -3.168,-4.176 -4.464,-9.936 -1.296,-5.904 -1.296,-13.392 z"
           style="font-weight:500;font-family:Ubuntu;-inkscape-font-specification:'Ubuntu Medium';fill:#ffffff"
           id="path841" /></g><g
         id="layer3-5-2"
         transform="translate(282.18574,-295.51225)"><path
           id="path40-8"
           style="fill:#ffffff;stroke-width:0"
           d="m -282.18574,295.51225 v 128 c 0,70.69245 57.30755,128 128,128 h 128 v -128 c 0,-70.69245 -57.30755,-128 -128,-128 z m 44,44 h 24 v 120 c 0,13.39696 10.60303,24 24,24 h 72 c 13.39696,0 24,-10.60304 24,-24 v -62 c 0,-6.76954 -5.23047,-12 -12,-12 -6.76954,0 -12,5.23046 -12,12 v 62 h -24 v -62 c 0,-6.76954 -5.23047,-12 -12,-12 -6.76954,0 -12,5.23046 -12,12 v 62 h -24 v -62 c 0,-19.7401 16.2599,-36 36,-36 9.22192,0 17.60014,3.64513 24,9.43945 6.39986,-5.79432 14.77807,-9.43945 24,-9.43945 19.74009,0 36,16.2599 36,36 v 62 c 0,26.3675 -21.6325,48 -48,48 h -72 c -26.36751,0 -48,-21.6325 -48,-48 z" /></g></g><g
       id="layer3-8"
       transform="matrix(0.09921875,0,0,0.09921875,259.58274,36.83535)"
       style="opacity:0.65"><g
         aria-label="lmde"
         id="text3643-0"
         style="font-size:144px;line-height:1.25;font-family:'Roboto Mono';-inkscape-font-specification:'Roboto Mono';fill:#e91e63;fill-opacity:1"><path
           d="m 338.06401,184.52 q -7.776,-0.144 -12.96,-1.728 -5.04,-1.584 -8.064,-4.464 -3.024,-3.024 -4.32,-7.344 -1.152,-4.464 -1.152,-10.08 V 74.216002 l 17.424,-2.88 V 157.592 q 0,3.168 0.432,5.328 0.576,2.16 1.872,3.744 1.296,1.44 3.456,2.304 2.304,0.72 5.76,1.152 z"
           style="font-weight:500;font-family:Ubuntu;-inkscape-font-specification:'Ubuntu Medium';fill:#e91e63;fill-opacity:1"
           id="path486" /><path
           d="m 397.53586,143.48 q 0,-11.808 -3.024,-16.992 -2.88,-5.328 -10.944,-5.328 -2.88,0 -6.336,0.432 -3.456,0.432 -5.184,0.72 v 60.768 h -17.424 v -72.864 q 5.04,-1.44 13.104,-2.736 8.208,-1.296 17.28,-1.296 7.776,0 12.672,2.016 5.04,2.016 8.352,5.328 1.584,-1.152 4.032,-2.448 2.448,-1.296 5.472,-2.304 3.024,-1.152 6.336,-1.872 3.456,-0.72 6.912,-0.72 8.784,0 14.4,2.592 5.76,2.448 8.928,7.056 3.312,4.464 4.464,10.944 1.296,6.336 1.296,13.968 v 42.336 h -17.424 v -39.6 q 0,-11.808 -2.88,-16.992 -2.88,-5.328 -11.088,-5.328 -4.176,0 -7.92,1.44 -3.744,1.296 -5.616,2.592 1.152,3.6 1.584,7.632 0.432,4.032 0.432,8.64 v 41.616 h -17.424 z"
           style="font-weight:500;font-family:Ubuntu;-inkscape-font-specification:'Ubuntu Medium';fill:#e91e63;fill-opacity:1"
           id="path488" /><path
           d="m 492.86383,145.208 q 0,11.52 5.472,18.144 5.472,6.48 15.12,6.48 4.176,0 7.056,-0.288 3.024,-0.432 4.896,-0.864 v -43.2 q -2.304,-1.584 -6.192,-2.88 -3.744,-1.44 -8.064,-1.44 -9.504,0 -13.968,6.48 -4.32,6.48 -4.32,17.568 z m 49.968,35.568 q -5.184,1.584 -13.104,2.88 -7.776,1.296 -16.416,1.296 -8.928,0 -15.984,-2.736 -7.056,-2.736 -12.096,-7.776 -4.896,-5.184 -7.632,-12.384 -2.592,-7.344 -2.592,-16.416 0,-8.928 2.16,-16.128 2.304,-7.344 6.624,-12.528 4.32,-5.184 10.512,-7.92 6.192,-2.88 14.256,-2.88 5.472,0 9.648,1.296 4.176,1.296 7.2,2.88 V 74.216002 l 17.424,-2.88 z"
           style="font-weight:500;font-family:Ubuntu;-inkscape-font-specification:'Ubuntu Medium';fill:#e91e63;fill-opacity:1"
           id="path490" /><path
           d="m 560.83165,145.784 q 0,-9.936 2.88,-17.424 3.024,-7.488 7.92,-12.384 4.896,-5.04 11.232,-7.488 6.336,-2.592 12.96,-2.592 15.552,0 24.192,9.648 8.784,9.648 8.784,28.8 0,1.44 -0.144,3.312 0,1.728 -0.144,3.168 h -49.68 q 0.72,9.072 6.336,14.112 5.76,4.896 16.56,4.896 6.336,0 11.52,-1.152 5.328,-1.152 8.352,-2.448 l 2.304,14.256 q -1.44,0.72 -4.032,1.584 -2.448,0.72 -5.76,1.296 -3.168,0.72 -6.912,1.152 -3.744,0.432 -7.632,0.432 -9.936,0 -17.28,-2.88 -7.344,-3.024 -12.096,-8.208 -4.752,-5.328 -7.056,-12.384 -2.304,-7.2 -2.304,-15.696 z m 50.544,-7.776 q 0,-3.6 -1.008,-6.768 -1.008,-3.312 -3.024,-5.616 -1.872,-2.448 -4.752,-3.744 -2.736,-1.44 -6.624,-1.44 -4.032,0 -7.056,1.584 -3.024,1.44 -5.184,3.888 -2.016,2.448 -3.168,5.616 -1.152,3.168 -1.584,6.48 z"
           style="font-weight:500;font-family:Ubuntu;-inkscape-font-specification:'Ubuntu Medium';fill:#e91e63;fill-opacity:1"
           id="path492" /></g><g
         id="layer3-5-4"
         transform="translate(282.18574,-295.51225)"><path
           id="path40-3"
           style="fill:#c2185b;stroke-width:0"
           d="m -26.18574,423.51225 c 0,32.64694 0,128 0,128 0,0 -89.95449,0 -128,0 -70.69245,0 -128,-57.30755 -128,-128 0,-35.4959 0,-128 0,-128 0,0 92.80345,0 128,0 70.69245,0 128,57.30755 128,128 z"
           sodipodi:nodetypes="scsscss" /><path
           id="path1655-5"
           style="fill:#e91e63;stroke-width:0"
           d="m -26.18574,423.51225 v 128 l -256,-256 h 128 c 70.69245,0 128,57.30755 128,128 z"
           sodipodi:nodetypes="sccss" /><path
           style="color:#000000;fill:#ffffff;stroke-width:0;-inkscape-stroke:none"
           d="m -238.18574,339.51225 v 120 c 0,26.3675 21.63249,48 48,48 h 72 c 26.3675,0 48,-21.6325 48,-48 v -62 c 0,-19.7401 -16.25991,-36 -36,-36 -9.22193,0 -17.60014,3.64514 -24,9.43946 -6.39986,-5.79432 -14.77808,-9.43946 -24,-9.43946 -19.7401,0 -36,16.2599 -36,36 v 62 h 24 v -62 c 0,-6.76954 5.23046,-12 12,-12 6.76953,0 12,5.23046 12,12 v 62 h 24 v -62 c 0,-6.76954 5.23046,-12 12,-12 6.76953,0 12,5.23046 12,12 v 62 c 0,13.39696 -10.60304,24 -24,24 h -72 c -13.39697,0 -24,-10.60304 -24,-24 v -120 z"
           id="path4193-6"
           sodipodi:nodetypes="csssssscssccsssccssssssscc" /></g></g><path
       id="path40-1"
       style="opacity:0.5;fill:#212121;fill-opacity:1;stroke-width:0"
       d="M 78.124414,27.635316 V 61.501983 H 111.99108 V 27.635316 Z m 5.820833,5.820833 h 3.175001 v 15.875 c 0,1.772306 1.402692,3.175 3.174999,3.175 h 9.525001 c 1.772302,0 3.175002,-1.402694 3.175002,-3.175 v -8.202083 c 0,-0.895554 -0.69195,-1.5875 -1.5875,-1.5875 -0.89556,0 -1.587502,0.691946 -1.587502,1.5875 v 8.202083 h -3.175001 v -8.202083 c 0,-0.895554 -0.69195,-1.5875 -1.5875,-1.5875 -0.895554,0 -1.5875,0.691946 -1.5875,1.5875 v 8.202083 h -3.175 v -8.202083 c 0,-2.611451 2.151049,-4.7625 4.7625,-4.7625 1.219985,0 2.32835,0.482221 3.175,1.248761 0.846651,-0.76654 1.955013,-1.248761 3.175003,-1.248761 2.61145,0 4.7625,2.151049 4.7625,4.7625 v 8.202083 c 0,3.4882 -2.8618,6.35 -6.350002,6.35 h -9.525001 c -3.488201,0 -6.35,-2.8618 -6.35,-6.35 z" /><g
       id="g1020"
       style="opacity:0.75"
       transform="translate(19.494253,4.8878185)"><g
         id="layer3"
         transform="matrix(0.26458334,0,0,0.26458334,152.40001,34.546581)"><path
           id="path40"
           style="fill:#388e3c;stroke-width:0"
           d="m 256,128 c 0,32.64694 0,128 0,128 0,0 -89.95449,0 -128,0 C 57.307552,256 0,198.69245 0,128 0,92.504104 0,0 0,0 0,0 92.803448,0 128,0 198.69245,0 256,57.307552 256,128 Z"
           sodipodi:nodetypes="scsscss" /><path
           id="path1655"
           style="fill:#4caf50;stroke-width:0"
           d="M 256,128 V 256 L 0,0 h 128 c 70.69245,0 128,57.307552 128,128 z"
           sodipodi:nodetypes="sccss" /><path
           style="color:#000000;fill:#ffffff;stroke-width:0;-inkscape-stroke:none"
           d="m 44,44 v 120 c 0,26.3675 21.63249,48 48,48 h 72 c 26.3675,0 48,-21.6325 48,-48 v -62 c 0,-19.7401 -16.25991,-36 -36,-36 -9.22193,0 -17.60014,3.64514 -24,9.43946 C 145.60014,69.64514 137.22192,66 128,66 108.2599,66 92,82.2599 92,102 v 62 h 24 v -62 c 0,-6.76954 5.23046,-12 12,-12 6.76953,0 12,5.23046 12,12 v 62 h 24 v -62 c 0,-6.76954 5.23046,-12 12,-12 6.76953,0 12,5.23046 12,12 v 62 c 0,13.39696 -10.60304,24 -24,24 H 92 C 78.60303,188 68,177.39696 68,164 V 44 Z"
           id="path4193"
           sodipodi:nodetypes="csssssscssccsssccssssssscc" /></g></g><g
       id="g1156"
       style="opacity:0.6"
       transform="translate(-6.2564491,2.335397)"><path
         id="path40-2"
         clip-path="url(#clipPath959)"
         style="fill:#ffffff;stroke-width:0"
         d="M 0,0 V 256 H 256 V 0 Z m 44,14 h 24 v 150 c 0,13.39696 10.60303,24 24,24 h 72 c 13.39696,0 24,-10.60304 24,-24 v -62 c 0,-6.76954 -5.23047,-12 -12,-12 -6.76954,0 -12,5.23046 -12,12 v 62 h -24 v -62 c 0,-6.76954 -5.23047,-12 -12,-12 -6.76954,0 -12,5.23046 -12,12 v 62 H 92 v -62 c 0,-19.7401 16.2599,-36 36,-36 9.22192,0 17.60014,3.645133 24,9.439453 C 158.39986,69.645133 166.77807,66 176,66 c 19.74009,0 36,16.2599 36,36 v 62 c 0,26.3675 -21.6325,48 -48,48 H 92 C 65.63249,212 44,190.3675 44,164 Z"
         transform="matrix(0.14882813,0,0,0.14882813,289.85894,67.476622)" /></g><g
       id="layer3-5-9"
       transform="matrix(0.14882813,0,0,0.14882813,122.89267,50.762018)"
       style="opacity:0.6"><path
         id="path40-3-3"
         style="fill:none;stroke:#212121;stroke-width:24;stroke-miterlimit:4;stroke-dasharray:none;stroke-opacity:1"
         d="m 256,128 c 0,32.64694 0,128 0,128 0,0 -89.95449,0 -128,0 C 57.307552,256 0,198.69245 0,128 0,92.504104 0,0 0,0 0,0 92.803448,0 128,0 198.69245,0 256,57.307552 256,128 Z"
         sodipodi:nodetypes="scsscss"
         clip-path="url(#clipPath1223)" /><path
         style="color:#000000;fill:#212121;fill-opacity:1;stroke-width:0;-inkscape-stroke:none"
         d="m 44,44 v 120 c 0,26.3675 21.63249,48 48,48 h 72 c 26.3675,0 48,-21.6325 48,-48 v -62 c 0,-19.7401 -16.25991,-36 -36,-36 -9.22193,0 -17.60014,3.64514 -24,9.43946 C 145.60014,69.64514 137.22192,66 128,66 108.2599,66 92,82.2599 92,102 v 62 h 24 v -62 c 0,-6.76954 5.23046,-12 12,-12 6.76953,0 12,5.23046 12,12 v 62 h 24 v -62 c 0,-6.76954 5.23046,-12 12,-12 6.76953,0 12,5.23046 12,12 v 62 c 0,13.39696 -10.60304,24 -24,24 H 92 C 78.60303,188 68,177.39696 68,164 V 44 Z"
         id="path4193-60"
         sodipodi:nodetypes="csssssscssccsssccssssssscc" /></g><g
       id="layer3-1"
       transform="matrix(0.09095052,0,0,0.09095052,250.52919,81.413567)"
       style="opacity:0.5"><path
         id="path40-4"
         style="fill:#43a047;stroke-width:0"
         d="M 256,256 H 0 V 0 h 256 z"
         sodipodi:nodetypes="ccccc"
         clip-path="url(#clipPath959-4)" /><path
         style="color:#000000;fill:#ffffff;stroke-width:0;-inkscape-stroke:none"
         d="m 44,14 v 150 c 0,26.3675 21.63249,48 48,48 h 72 c 26.3675,0 48,-21.6325 48,-48 v -62 c 0,-19.7401 -16.25991,-36 -36,-36 -9.22193,0 -17.60014,3.64514 -24,9.43946 C 145.60014,69.64514 137.22192,66 128,66 108.2599,66 92,82.2599 92,102 v 62 h 24 v -62 c 0,-6.76954 5.23046,-12 12,-12 6.76953,0 12,5.23046 12,12 v 62 h 24 v -62 c 0,-6.76954 5.23046,-12 12,-12 6.76953,0 12,5.23046 12,12 v 62 c 0,13.39696 -10.60304,24 -24,24 H 92 C 78.60303,188 68,177.39696 68,164 V 14 Z"
         id="path4193-69"
         sodipodi:nodetypes="csssssscssccsssccssssssscc"
         clip-path="url(#clipPath951-3)" /></g><g
       id="layer3-2"
       transform="matrix(0.09921875,0,0,0.09921875,307.81187,56.615925)"
       style="opacity:0.65"><path
         id="path40-88"
         style="fill:#43a047;stroke-width:0"
         d="m 0,0 v 128 c 0,70.69245 57.307552,128 128,128 H 256 V 128 C 256,57.307552 198.69245,0 128,0 Z" /><path
         style="color:#000000;fill:#ffffff;stroke-width:0;-inkscape-stroke:none"
         d="m 44,44 v 120 c 0,26.3675 21.63249,48 48,48 h 72 c 26.3675,0 48,-21.6325 48,-48 v -62 c 0,-19.7401 -16.25991,-36 -36,-36 -9.22193,0 -17.60014,3.64514 -24,9.43946 C 145.60014,69.64514 137.22192,66 128,66 108.2599,66 92,82.2599 92,102 v 62 h 24 v -62 c 0,-6.76954 5.23046,-12 12,-12 6.76953,0 12,5.23046 12,12 v 62 h 24 v -62 c 0,-6.76954 5.23046,-12 12,-12 6.76953,0 12,5.23046 12,12 v 62 c 0,13.39696 -10.60304,24 -24,24 H 92 C 78.60303,188 68,177.39696 68,164 V 44 Z"
         id="path4193-9"
         sodipodi:nodetypes="csssssscssccsssccssssssscc" /></g></g><g
     inkscape:groupmode="layer"
     id="layer2"
     inkscape:label="Text"
     style="display:inline"><text
       xml:space="preserve"
       style="font-size:25.4px;line-height:0;font-family:'Roboto Mono';-inkscape-font-specification:'Roboto Mono';text-align:center;letter-spacing:0px;text-anchor:middle;stroke-width:0.264583"
       x="169.53654"
       y="72.148064"
       id="text396"
       transform="translate(4.9999999e-7,-34.546581)"><tspan
         sodipodi:role="line"
         id="tspan394"
         style="font-style:normal;font-variant:normal;font-weight:500;font-stretch:normal;font-size:25.4px;line-height:1.25;font-family:Ubuntu;-inkscape-font-specification:'Ubuntu Medium';text-align:center;text-anchor:middle;fill:#000000;fill-opacity:1;stroke-width:0.264583"
         x="169.53654"
         y="72.148064">Check out the new version!</tspan><tspan
         sodipodi:role="line"
         style="font-style:normal;font-variant:normal;font-weight:300;font-stretch:normal;font-size:12.7px;line-height:1;font-family:Ubuntu;-inkscape-font-specification:'Ubuntu Light';text-align:center;text-anchor:middle;fill:#000000;fill-opacity:1;stroke-width:0.264583"
         x="169.53654"
         y="90.467911"
         id="tspan1003">Now pixel-perfect, aligned and with more variants!</tspan></text></g><metadata
     id="metadata2277"><rdf:RDF><cc:Work
         rdf:about=""><cc:license
           rdf:resource="http://creativecommons.org/licenses/by-sa/4.0/" /></cc:Work><cc:License
         rdf:about="http://creativecommons.org/licenses/by-sa/4.0/"><cc:permits
           rdf:resource="http://creativecommons.org/ns#Reproduction" /><cc:permits
           rdf:resource="http://creativecommons.org/ns#Distribution" /><cc:requires
           rdf:resource="http://creativecommons.org/ns#Notice" /><cc:requires
           rdf:resource="http://creativecommons.org/ns#Attribution" /><cc:permits
           rdf:resource="http://creativecommons.org/ns#DerivativeWorks" /><cc:requires
           rdf:resource="http://creativecommons.org/ns#ShareAlike" /></cc:License></rdf:RDF></metadata><inkscape:templateinfo><inkscape:name>HD</inkscape:name><inkscape:date>2022-02-13</inkscape:date></inkscape:templateinfo></svg>
