<svg viewBox="0 0 64 64" xmlns="http://www.w3.org/2000/svg"><path d="m0 32v-32l64 64h-32c-17.673 0-32-14.327-32-32z" fill="#388e3c"/><path d="m64 32v32l-64-64h32c17.673 0 32 14.327 32 32z" fill="#4caf50"/><path d="m11 11v30c0 6.592 5.408 12 12 12h18c6.592 0 12-5.408 12-12v-15.5c0-4.9352-4.0648-9-9-9-2.3055 0-4.4.91128-6 2.3599-1.6-1.4486-3.6945-2.3599-6-2.3599-4.9352 0-9 4.0648-9 9v15.5h6v-15.5c0-1.6924 1.3076-3 3-3s3 1.3076 3 3v15.5h6v-15.5c0-1.6924 1.3076-3 3-3s3 1.3076 3 3v15.5c0 3.3492-2.6508 6-6 6h-18c-3.3492 0-6-2.6508-6-6v-30z" fill="#fff"/></svg>
