<svg viewBox="0 0 16 16" xmlns="http://www.w3.org/2000/svg"><defs><clipPath id="a"><path d="m0 0v128c0 70.692 57.308 128 128 128h128v-128c0-70.692-57.308-128-128-128z" fill="#43a047"/></clipPath></defs><path transform="scale(.0625)" d="m0 0v128c0 70.692 57.308 128 128 128h128v-128c0-70.692-57.308-128-128-128z" clip-path="url(#a)" fill="#43a047" stroke="#fff" stroke-width="24"/><path d="m2.75 2.75v7.5c0 1.648 1.352 3 3 3h4.5c1.648 0 3-1.352 3-3v-3.875c0-1.2338-1.0162-2.25-2.25-2.25-.57637 0-1.1.22782-1.5.58997-.39999-.36214-.92363-.58997-1.5-.58997-1.2338 0-2.25 1.0162-2.25 2.25v3.875h1.5v-3.875c0-.4231.3269-.75.75-.75.4231 0 .75.3269.75.75v3.875h1.5v-3.875c0-.4231.3269-.75.75-.75s.75.3269.75.75v3.875c0 .83731-.66269 1.5-1.5 1.5h-4.5c-.83731 0-1.5-.66269-1.5-1.5v-7.5z" fill="#fff"/></svg>
