<svg viewBox="0 0 64 64" xmlns="http://www.w3.org/2000/svg"><path d="m0 0v32c0 17.673 14.327 32 32 32h32v-32c0-17.673-14.327-32-32-32zm11 11h6v30c0 3.3492 2.6508 6 6 6h18c3.3492 0 6-2.6508 6-6v-15.5c0-1.6924-1.3076-3-3-3-1.6924 0-3 1.3076-3 3v15.5h-6v-15.5c0-1.6924-1.3076-3-3-3-1.6924 0-3 1.3076-3 3v15.5h-6v-15.5c0-4.935 4.065-9 9-9 2.3055 0 4.4.91128 6 2.3599 1.6-1.4486 3.6945-2.3599 6-2.3599 4.935 0 9 4.065 9 9v15.5c0 6.5919-5.4081 12-12 12h-18c-6.5919 0-12-5.4081-12-12z" fill="#4caf50"/></svg>
