<?xml version="1.0" encoding="UTF-8" standalone="no"?>
<!-- Created with Inkscape (http://www.inkscape.org/) -->

<svg
   width="2048"
   height="2048"
   viewBox="0 0 541.86667 541.86668"
   version="1.1"
   id="svg5"
   inkscape:version="1.1.1 (3bf5ae0d25, 2021-09-20)"
   sodipodi:docname="logos-source.svg"
   xmlns:inkscape="http://www.inkscape.org/namespaces/inkscape"
   xmlns:sodipodi="http://sodipodi.sourceforge.net/DTD/sodipodi-0.dtd"
   xmlns="http://www.w3.org/2000/svg"
   xmlns:svg="http://www.w3.org/2000/svg"
   xmlns:rdf="http://www.w3.org/1999/02/22-rdf-syntax-ns#">
  <sodipodi:namedview
     id="namedview7"
     pagecolor="#808080"
     bordercolor="#000000"
     borderopacity="1"
     inkscape:pageshadow="0"
     inkscape:pageopacity="0"
     inkscape:pagecheckerboard="true"
     inkscape:document-units="px"
     showgrid="false"
     borderlayer="false"
     inkscape:showpageshadow="true"
     units="px"
     width="1920px"
     inkscape:zoom="0.125"
     inkscape:cx="732"
     inkscape:cy="1500"
     inkscape:current-layer="layer1" />
  <defs
     id="defs2">
    <clipPath
       clipPathUnits="userSpaceOnUse"
       id="clipPath1223">
      <path
         id="path1225"
         style="fill:none;stroke:#ffffff;stroke-width:0;stroke-miterlimit:4;stroke-dasharray:none"
         d="m 256,128 c 0,32.64694 0,128 0,128 0,0 -89.95449,0 -128,0 C 57.307552,256 0,198.69245 0,128 0,92.504104 0,0 0,0 0,0 92.803448,0 128,0 198.69245,0 256,57.307552 256,128 Z"
         sodipodi:nodetypes="scsscss" />
    </clipPath>
    <clipPath
       clipPathUnits="userSpaceOnUse"
       id="clipPath1223-2">
      <path
         id="path1225-6"
         style="fill:none;stroke:#ffffff;stroke-width:0;stroke-miterlimit:4;stroke-dasharray:none"
         d="m 256,128 c 0,32.64694 0,128 0,128 0,0 -89.95449,0 -128,0 C 57.307552,256 0,198.69245 0,128 0,92.504104 0,0 0,0 0,0 92.803448,0 128,0 198.69245,0 256,57.307552 256,128 Z"
         sodipodi:nodetypes="scsscss" />
    </clipPath>
    <clipPath
       clipPathUnits="userSpaceOnUse"
       id="clipPath1223-23">
      <path
         id="path1225-7"
         style="fill:none;stroke:#ffffff;stroke-width:0;stroke-miterlimit:4;stroke-dasharray:none"
         d="m 256,128 c 0,32.64694 0,128 0,128 0,0 -89.95449,0 -128,0 C 57.307552,256 0,198.69245 0,128 0,92.504104 0,0 0,0 0,0 92.803448,0 128,0 198.69245,0 256,57.307552 256,128 Z"
         sodipodi:nodetypes="scsscss" />
    </clipPath>
    <clipPath
       clipPathUnits="userSpaceOnUse"
       id="clipPath951">
      <circle
         style="fill:#9e9e9e;stroke:#4caf50;stroke-width:0;stroke-linecap:round;paint-order:markers fill stroke"
         id="circle953"
         cx="128"
         cy="128"
         r="128" />
    </clipPath>
    <clipPath
       clipPathUnits="userSpaceOnUse"
       id="clipPath955">
      <circle
         style="fill:#9e9e9e;stroke:#4caf50;stroke-width:0;stroke-linecap:round;paint-order:markers fill stroke"
         id="circle957"
         cx="128"
         cy="128"
         r="128" />
    </clipPath>
    <clipPath
       clipPathUnits="userSpaceOnUse"
       id="clipPath959">
      <circle
         style="fill:#9e9e9e;stroke:#4caf50;stroke-width:0;stroke-linecap:round;paint-order:markers fill stroke"
         id="circle961"
         cx="128"
         cy="128"
         r="128" />
    </clipPath>
    <clipPath
       clipPathUnits="userSpaceOnUse"
       id="clipPath951-9">
      <circle
         style="fill:#9e9e9e;stroke:#4caf50;stroke-width:0;stroke-linecap:round;paint-order:markers fill stroke"
         id="circle953-4"
         cx="128"
         cy="128"
         r="128" />
    </clipPath>
    <clipPath
       clipPathUnits="userSpaceOnUse"
       id="clipPath955-7">
      <circle
         style="fill:#9e9e9e;stroke:#4caf50;stroke-width:0;stroke-linecap:round;paint-order:markers fill stroke"
         id="circle957-8"
         cx="128"
         cy="128"
         r="128" />
    </clipPath>
    <clipPath
       clipPathUnits="userSpaceOnUse"
       id="clipPath959-4">
      <circle
         style="fill:#9e9e9e;stroke:#4caf50;stroke-width:0;stroke-linecap:round;paint-order:markers fill stroke"
         id="circle961-5"
         cx="128"
         cy="128"
         r="128" />
    </clipPath>
    <clipPath
       clipPathUnits="userSpaceOnUse"
       id="clipPath951-0">
      <circle
         style="fill:#9e9e9e;stroke:#4caf50;stroke-width:0;stroke-linecap:round;paint-order:markers fill stroke"
         id="circle953-6"
         cx="128"
         cy="128"
         r="128" />
    </clipPath>
    <clipPath
       clipPathUnits="userSpaceOnUse"
       id="clipPath955-3">
      <circle
         style="fill:#9e9e9e;stroke:#4caf50;stroke-width:0;stroke-linecap:round;paint-order:markers fill stroke"
         id="circle957-2"
         cx="128"
         cy="128"
         r="128" />
    </clipPath>
    <clipPath
       clipPathUnits="userSpaceOnUse"
       id="clipPath959-0">
      <circle
         style="fill:#9e9e9e;stroke:#4caf50;stroke-width:0;stroke-linecap:round;paint-order:markers fill stroke"
         id="circle961-6"
         cx="128"
         cy="128"
         r="128" />
    </clipPath>
    <clipPath
       clipPathUnits="userSpaceOnUse"
       id="clipPath951-7">
      <circle
         style="fill:#9e9e9e;stroke:#4caf50;stroke-width:0;stroke-linecap:round;paint-order:markers fill stroke"
         id="circle953-65"
         cx="128"
         cy="128"
         r="128" />
    </clipPath>
    <clipPath
       clipPathUnits="userSpaceOnUse"
       id="clipPath955-6">
      <circle
         style="fill:#9e9e9e;stroke:#4caf50;stroke-width:0;stroke-linecap:round;paint-order:markers fill stroke"
         id="circle957-9"
         cx="128"
         cy="128"
         r="128" />
    </clipPath>
    <clipPath
       clipPathUnits="userSpaceOnUse"
       id="clipPath959-3">
      <circle
         style="fill:#9e9e9e;stroke:#4caf50;stroke-width:0;stroke-linecap:round;paint-order:markers fill stroke"
         id="circle961-7"
         cx="128"
         cy="128"
         r="128" />
    </clipPath>
    <clipPath
       clipPathUnits="userSpaceOnUse"
       id="clipPath951-4">
      <circle
         style="fill:#9e9e9e;stroke:#4caf50;stroke-width:0;stroke-linecap:round;paint-order:markers fill stroke"
         id="circle953-7"
         cx="128"
         cy="128"
         r="128" />
    </clipPath>
    <clipPath
       clipPathUnits="userSpaceOnUse"
       id="clipPath955-4">
      <circle
         style="fill:#9e9e9e;stroke:#4caf50;stroke-width:0;stroke-linecap:round;paint-order:markers fill stroke"
         id="circle957-4"
         cx="128"
         cy="128"
         r="128" />
    </clipPath>
    <clipPath
       clipPathUnits="userSpaceOnUse"
       id="clipPath959-30">
      <circle
         style="fill:#9e9e9e;stroke:#4caf50;stroke-width:0;stroke-linecap:round;paint-order:markers fill stroke"
         id="circle961-78"
         cx="128"
         cy="128"
         r="128" />
    </clipPath>
    <clipPath
       clipPathUnits="userSpaceOnUse"
       id="clipPath951-2">
      <circle
         style="fill:#9e9e9e;stroke:#4caf50;stroke-width:0;stroke-linecap:round;paint-order:markers fill stroke"
         id="circle953-61"
         cx="128"
         cy="128"
         r="128" />
    </clipPath>
    <clipPath
       clipPathUnits="userSpaceOnUse"
       id="clipPath955-0">
      <circle
         style="fill:#9e9e9e;stroke:#4caf50;stroke-width:0;stroke-linecap:round;paint-order:markers fill stroke"
         id="circle957-6"
         cx="128"
         cy="128"
         r="128" />
    </clipPath>
    <clipPath
       clipPathUnits="userSpaceOnUse"
       id="clipPath959-1">
      <circle
         style="fill:#9e9e9e;stroke:#4caf50;stroke-width:0;stroke-linecap:round;paint-order:markers fill stroke"
         id="circle961-59"
         cx="128"
         cy="128"
         r="128" />
    </clipPath>
    <clipPath
       clipPathUnits="userSpaceOnUse"
       id="clipPath951-1">
      <circle
         style="fill:#9e9e9e;stroke:#4caf50;stroke-width:0;stroke-linecap:round;paint-order:markers fill stroke"
         id="circle953-5"
         cx="128"
         cy="128"
         r="128" />
    </clipPath>
    <clipPath
       clipPathUnits="userSpaceOnUse"
       id="clipPath955-9">
      <circle
         style="fill:#9e9e9e;stroke:#4caf50;stroke-width:0;stroke-linecap:round;paint-order:markers fill stroke"
         id="circle957-7"
         cx="128"
         cy="128"
         r="128" />
    </clipPath>
    <clipPath
       clipPathUnits="userSpaceOnUse"
       id="clipPath959-7">
      <circle
         style="fill:#9e9e9e;stroke:#4caf50;stroke-width:0;stroke-linecap:round;paint-order:markers fill stroke"
         id="circle961-67"
         cx="128"
         cy="128"
         r="128" />
    </clipPath>
    <clipPath
       clipPathUnits="userSpaceOnUse"
       id="clipPath951-3">
      <circle
         style="fill:#9e9e9e;stroke:#4caf50;stroke-width:0;stroke-linecap:round;paint-order:markers fill stroke"
         id="circle953-9"
         cx="128"
         cy="128"
         r="128" />
    </clipPath>
    <clipPath
       clipPathUnits="userSpaceOnUse"
       id="clipPath955-48">
      <circle
         style="fill:#9e9e9e;stroke:#4caf50;stroke-width:0;stroke-linecap:round;paint-order:markers fill stroke"
         id="circle957-1"
         cx="128"
         cy="128"
         r="128" />
    </clipPath>
    <clipPath
       clipPathUnits="userSpaceOnUse"
       id="clipPath959-2">
      <circle
         style="fill:#9e9e9e;stroke:#4caf50;stroke-width:0;stroke-linecap:round;paint-order:markers fill stroke"
         id="circle961-9"
         cx="128"
         cy="128"
         r="128" />
    </clipPath>
    <clipPath
       clipPathUnits="userSpaceOnUse"
       id="clipPath951-5">
      <circle
         style="fill:#9e9e9e;stroke:#4caf50;stroke-width:0;stroke-linecap:round;paint-order:markers fill stroke"
         id="circle953-0"
         cx="128"
         cy="128"
         r="128" />
    </clipPath>
    <clipPath
       clipPathUnits="userSpaceOnUse"
       id="clipPath955-96">
      <circle
         style="fill:#9e9e9e;stroke:#4caf50;stroke-width:0;stroke-linecap:round;paint-order:markers fill stroke"
         id="circle957-3"
         cx="128"
         cy="128"
         r="128" />
    </clipPath>
    <clipPath
       clipPathUnits="userSpaceOnUse"
       id="clipPath959-8">
      <circle
         style="fill:#9e9e9e;stroke:#4caf50;stroke-width:0;stroke-linecap:round;paint-order:markers fill stroke"
         id="circle961-56"
         cx="128"
         cy="128"
         r="128" />
    </clipPath>
    <clipPath
       clipPathUnits="userSpaceOnUse"
       id="clipPath951-48">
      <circle
         style="fill:#9e9e9e;stroke:#4caf50;stroke-width:0;stroke-linecap:round;paint-order:markers fill stroke"
         id="circle953-1"
         cx="128"
         cy="128"
         r="128" />
    </clipPath>
    <clipPath
       clipPathUnits="userSpaceOnUse"
       id="clipPath955-03">
      <circle
         style="fill:#9e9e9e;stroke:#4caf50;stroke-width:0;stroke-linecap:round;paint-order:markers fill stroke"
         id="circle957-0"
         cx="128"
         cy="128"
         r="128" />
    </clipPath>
    <clipPath
       clipPathUnits="userSpaceOnUse"
       id="clipPath959-44">
      <circle
         style="fill:#9e9e9e;stroke:#4caf50;stroke-width:0;stroke-linecap:round;paint-order:markers fill stroke"
         id="circle961-4"
         cx="128"
         cy="128"
         r="128" />
    </clipPath>
    <clipPath
       clipPathUnits="userSpaceOnUse"
       id="clipPath1223-3">
      <path
         id="path1225-3"
         style="fill:none;stroke:#ffffff;stroke-width:0;stroke-miterlimit:4;stroke-dasharray:none"
         d="m 256,128 c 0,32.64694 0,128 0,128 0,0 -89.95449,0 -128,0 C 57.307552,256 0,198.69245 0,128 0,92.504104 0,0 0,0 0,0 92.803448,0 128,0 198.69245,0 256,57.307552 256,128 Z"
         sodipodi:nodetypes="scsscss" />
    </clipPath>
    <clipPath
       clipPathUnits="userSpaceOnUse"
       id="clipPath1223-8">
      <path
         id="path1225-60"
         style="fill:none;stroke:#ffffff;stroke-width:0;stroke-miterlimit:4;stroke-dasharray:none"
         d="m 256,128 c 0,32.64694 0,128 0,128 0,0 -89.95449,0 -128,0 C 57.307552,256 0,198.69245 0,128 0,92.504104 0,0 0,0 0,0 92.803448,0 128,0 198.69245,0 256,57.307552 256,128 Z"
         sodipodi:nodetypes="scsscss" />
    </clipPath>
    <clipPath
       clipPathUnits="userSpaceOnUse"
       id="clipPath1223-88">
      <path
         id="path1225-9"
         style="fill:none;stroke:#ffffff;stroke-width:0;stroke-miterlimit:4;stroke-dasharray:none"
         d="m 256,128 c 0,32.64694 0,128 0,128 0,0 -89.95449,0 -128,0 C 57.307552,256 0,198.69245 0,128 0,92.504104 0,0 0,0 0,0 92.803448,0 128,0 198.69245,0 256,57.307552 256,128 Z"
         sodipodi:nodetypes="scsscss" />
    </clipPath>
  </defs>
  <g
     inkscape:label="Strat 1"
     inkscape:groupmode="layer"
     id="layer1">
    <g
       id="layer3-05"
       transform="matrix(0.13229168,0,0,0.13229167,381,440.26667)">
      <g
         aria-label="linux mint"
         id="text3643-66"
         style="font-size:144px;line-height:1.25;font-family:'Roboto Mono';-inkscape-font-specification:'Roboto Mono';fill:#4caf50">
        <path
           d="m 338.06401,184.52 q -7.776,-0.144 -12.96,-1.728 -5.04,-1.584 -8.064,-4.464 -3.024,-3.024 -4.32,-7.344 -1.152,-4.464 -1.152,-10.08 V 74.216002 l 17.424,-2.88 V 157.592 q 0,3.168 0.432,5.328 0.576,2.16 1.872,3.744 1.296,1.44 3.456,2.304 2.304,0.72 5.76,1.152 z"
           style="font-weight:500;font-family:Ubuntu;-inkscape-font-specification:'Ubuntu Medium'"
           id="path825-4" />
        <path
           d="m 372.19186,183.08 h -17.424 v -75.312 h 17.424 z m 1.872,-97.343998 q 0,4.896 -3.168,7.776 -3.168,2.88 -7.488,2.88 -4.464,0 -7.632,-2.88 -3.168,-2.88 -3.168,-7.776 0,-5.04 3.168,-7.92 3.168,-2.88 7.632,-2.88 4.32,0 7.488,2.88 3.168,2.88 3.168,7.92 z"
           style="font-weight:500;font-family:Ubuntu;-inkscape-font-specification:'Ubuntu Medium'"
           id="path827-0" />
        <path
           d="m 394.36772,110.216 q 5.04,-1.44 13.104,-2.736 8.064,-1.296 17.856,-1.296 9.216,0 15.408,2.592 6.192,2.448 9.792,7.056 3.744,4.464 5.184,10.944 1.584,6.336 1.584,13.968 v 42.336 h -17.424 v -39.6 q 0,-6.048 -0.864,-10.224 -0.72,-4.32 -2.592,-6.912 -1.728,-2.736 -4.896,-3.888 -3.024,-1.296 -7.488,-1.296 -3.312,0 -6.912,0.432 -3.6,0.432 -5.328,0.72 v 60.768 h -17.424 z"
           style="font-weight:500;font-family:Ubuntu;-inkscape-font-specification:'Ubuntu Medium'"
           id="path829-0" />
        <path
           d="m 540.38359,180.776 q -5.04,1.296 -13.104,2.592 -8.064,1.44 -17.712,1.44 -9.072,0 -15.264,-2.592 -6.048,-2.592 -9.792,-7.2 -3.6,-4.608 -5.184,-10.944 -1.584,-6.48 -1.584,-14.112 v -42.192 h 17.424 v 39.456 q 0,12.096 3.456,17.28 3.6,5.184 12.384,5.184 3.168,0 6.624,-0.288 3.6,-0.288 5.328,-0.72 v -60.912 h 17.424 z"
           style="font-weight:500;font-family:Ubuntu;-inkscape-font-specification:'Ubuntu Medium'"
           id="path831-4" />
        <path
           d="m 589.63134,132.392 15.984,-24.624 h 18.288 l -24.768,35.568 q 7.776,10.08 14.832,20.448 7.2,10.224 11.808,19.296 h -18.864 q -1.296,-2.736 -3.456,-6.192 -2.016,-3.6 -4.464,-7.344 -2.304,-3.888 -4.896,-7.632 -2.592,-3.744 -5.04,-7.056 -5.04,6.48 -9.936,14.4 -4.752,7.776 -7.92,13.824 h -17.856 q 2.16,-4.32 5.184,-9.216 3.024,-4.896 6.48,-9.936 3.456,-5.184 7.056,-10.224 3.744,-5.184 7.344,-9.792 l -24.912,-36.144 h 19.152 z"
           style="font-weight:500;font-family:Ubuntu;-inkscape-font-specification:'Ubuntu Medium'"
           id="path833-6" />
        <path
           d="m 715.19922,143.48 q 0,-11.808 -3.024,-16.992 -2.88,-5.328 -10.944,-5.328 -2.88,0 -6.336,0.432 -3.456,0.432 -5.184,0.72 v 60.768 h -17.424 v -72.864 q 5.04,-1.44 13.104,-2.736 8.208,-1.296 17.28,-1.296 7.776,0 12.672,2.016 5.04,2.016 8.352,5.328 1.584,-1.152 4.032,-2.448 2.448,-1.296 5.472,-2.304 3.024,-1.152 6.336,-1.872 3.456,-0.72 6.912,-0.72 8.784,0 14.4,2.592 5.76,2.448 8.928,7.056 3.312,4.464 4.464,10.944 1.296,6.336 1.296,13.968 v 42.336 h -17.424 v -39.6 q 0,-11.808 -2.88,-16.992 -2.88,-5.328 -11.088,-5.328 -4.176,0 -7.92,1.44 -3.744,1.296 -5.616,2.592 1.152,3.6 1.584,7.632 0.432,4.032 0.432,8.64 v 41.616 h -17.424 z"
           style="font-weight:500;font-family:Ubuntu;-inkscape-font-specification:'Ubuntu Medium'"
           id="path835-2" />
        <path
           d="m 814.41519,183.08 h -17.424 v -75.312 h 17.424 z m 1.872,-97.343998 q 0,4.896 -3.168,7.776 -3.168,2.88 -7.488,2.88 -4.464,0 -7.632,-2.88 -3.168,-2.88 -3.168,-7.776 0,-5.04 3.168,-7.92 3.168,-2.88 7.632,-2.88 4.32,0 7.488,2.88 3.168,2.88 3.168,7.92 z"
           style="font-weight:500;font-family:Ubuntu;-inkscape-font-specification:'Ubuntu Medium'"
           id="path837-6" />
        <path
           d="m 836.59105,110.216 q 5.04,-1.44 13.104,-2.736 8.064,-1.296 17.856,-1.296 9.216,0 15.408,2.592 6.192,2.448 9.792,7.056 3.744,4.464 5.184,10.944 1.584,6.336 1.584,13.968 v 42.336 h -17.424 v -39.6 q 0,-6.048 -0.864,-10.224 -0.72,-4.32 -2.592,-6.912 -1.728,-2.736 -4.896,-3.888 -3.024,-1.296 -7.488,-1.296 -3.312,0 -6.912,0.432 -3.6,0.432 -5.328,0.72 v 60.768 h -17.424 z"
           style="font-weight:500;font-family:Ubuntu;-inkscape-font-specification:'Ubuntu Medium'"
           id="path839-7" />
        <path
           d="m 919.96692,87.896002 17.424,-2.88 V 107.768 h 26.784 v 14.544 h -26.784 v 30.672 q 0,9.072 2.88,12.96 2.88,3.888 9.792,3.888 4.752,0 8.352,-1.008 3.744,-1.008 5.904,-1.872 l 2.88,13.824 q -3.024,1.296 -7.92,2.592 -4.896,1.44 -11.52,1.44 -8.064,0 -13.536,-2.16 -5.328,-2.16 -8.496,-6.192 -3.168,-4.176 -4.464,-9.936 -1.296,-5.904 -1.296,-13.392 z"
           style="font-weight:500;font-family:Ubuntu;-inkscape-font-specification:'Ubuntu Medium'"
           id="path841-5" />
      </g>
      <g
         id="layer3-5-6"
         transform="translate(282.18574,-295.51225)">
        <path
           id="path40-98"
           style="fill:#4caf50;stroke-width:0"
           d="m -282.18574,295.51225 v 128 c 0,70.69245 57.30755,128 128,128 h 128 v -128 c 0,-70.69245 -57.30755,-128 -128,-128 z m 44,44 h 24 v 120 c 0,13.39696 10.60303,24 24,24 h 72 c 13.39696,0 24,-10.60304 24,-24 v -62 c 0,-6.76954 -5.23047,-12 -12,-12 -6.76954,0 -12,5.23046 -12,12 v 62 h -24 v -62 c 0,-6.76954 -5.23047,-12 -12,-12 -6.76954,0 -12,5.23046 -12,12 v 62 h -24 v -62 c 0,-19.7401 16.2599,-36 36,-36 9.22192,0 17.60014,3.64513 24,9.43945 6.39986,-5.79432 14.77807,-9.43945 24,-9.43945 19.74009,0 36,16.2599 36,36 v 62 c 0,26.3675 -21.6325,48 -48,48 h -72 c -26.36751,0 -48,-21.6325 -48,-48 z" />
      </g>
    </g>
    <g
       id="layer3-08"
       transform="matrix(0.13229167,0,0,0.13229167,245.53333,440.26667)">
      <g
         aria-label="linux mint"
         id="text3643-1"
         style="font-size:144px;line-height:1.25;font-family:'Roboto Mono';-inkscape-font-specification:'Roboto Mono';fill:#212121">
        <path
           d="m 338.06401,184.52 q -7.776,-0.144 -12.96,-1.728 -5.04,-1.584 -8.064,-4.464 -3.024,-3.024 -4.32,-7.344 -1.152,-4.464 -1.152,-10.08 V 74.216002 l 17.424,-2.88 V 157.592 q 0,3.168 0.432,5.328 0.576,2.16 1.872,3.744 1.296,1.44 3.456,2.304 2.304,0.72 5.76,1.152 z"
           style="font-weight:500;font-family:Ubuntu;-inkscape-font-specification:'Ubuntu Medium'"
           id="path825-3" />
        <path
           d="m 372.19186,183.08 h -17.424 v -75.312 h 17.424 z m 1.872,-97.343998 q 0,4.896 -3.168,7.776 -3.168,2.88 -7.488,2.88 -4.464,0 -7.632,-2.88 -3.168,-2.88 -3.168,-7.776 0,-5.04 3.168,-7.92 3.168,-2.88 7.632,-2.88 4.32,0 7.488,2.88 3.168,2.88 3.168,7.92 z"
           style="font-weight:500;font-family:Ubuntu;-inkscape-font-specification:'Ubuntu Medium'"
           id="path827-1" />
        <path
           d="m 394.36772,110.216 q 5.04,-1.44 13.104,-2.736 8.064,-1.296 17.856,-1.296 9.216,0 15.408,2.592 6.192,2.448 9.792,7.056 3.744,4.464 5.184,10.944 1.584,6.336 1.584,13.968 v 42.336 h -17.424 v -39.6 q 0,-6.048 -0.864,-10.224 -0.72,-4.32 -2.592,-6.912 -1.728,-2.736 -4.896,-3.888 -3.024,-1.296 -7.488,-1.296 -3.312,0 -6.912,0.432 -3.6,0.432 -5.328,0.72 v 60.768 h -17.424 z"
           style="font-weight:500;font-family:Ubuntu;-inkscape-font-specification:'Ubuntu Medium'"
           id="path829-1" />
        <path
           d="m 540.38359,180.776 q -5.04,1.296 -13.104,2.592 -8.064,1.44 -17.712,1.44 -9.072,0 -15.264,-2.592 -6.048,-2.592 -9.792,-7.2 -3.6,-4.608 -5.184,-10.944 -1.584,-6.48 -1.584,-14.112 v -42.192 h 17.424 v 39.456 q 0,12.096 3.456,17.28 3.6,5.184 12.384,5.184 3.168,0 6.624,-0.288 3.6,-0.288 5.328,-0.72 v -60.912 h 17.424 z"
           style="font-weight:500;font-family:Ubuntu;-inkscape-font-specification:'Ubuntu Medium'"
           id="path831-03" />
        <path
           d="m 589.63134,132.392 15.984,-24.624 h 18.288 l -24.768,35.568 q 7.776,10.08 14.832,20.448 7.2,10.224 11.808,19.296 h -18.864 q -1.296,-2.736 -3.456,-6.192 -2.016,-3.6 -4.464,-7.344 -2.304,-3.888 -4.896,-7.632 -2.592,-3.744 -5.04,-7.056 -5.04,6.48 -9.936,14.4 -4.752,7.776 -7.92,13.824 h -17.856 q 2.16,-4.32 5.184,-9.216 3.024,-4.896 6.48,-9.936 3.456,-5.184 7.056,-10.224 3.744,-5.184 7.344,-9.792 l -24.912,-36.144 h 19.152 z"
           style="font-weight:500;font-family:Ubuntu;-inkscape-font-specification:'Ubuntu Medium'"
           id="path833-4" />
        <path
           d="m 715.19922,143.48 q 0,-11.808 -3.024,-16.992 -2.88,-5.328 -10.944,-5.328 -2.88,0 -6.336,0.432 -3.456,0.432 -5.184,0.72 v 60.768 h -17.424 v -72.864 q 5.04,-1.44 13.104,-2.736 8.208,-1.296 17.28,-1.296 7.776,0 12.672,2.016 5.04,2.016 8.352,5.328 1.584,-1.152 4.032,-2.448 2.448,-1.296 5.472,-2.304 3.024,-1.152 6.336,-1.872 3.456,-0.72 6.912,-0.72 8.784,0 14.4,2.592 5.76,2.448 8.928,7.056 3.312,4.464 4.464,10.944 1.296,6.336 1.296,13.968 v 42.336 h -17.424 v -39.6 q 0,-11.808 -2.88,-16.992 -2.88,-5.328 -11.088,-5.328 -4.176,0 -7.92,1.44 -3.744,1.296 -5.616,2.592 1.152,3.6 1.584,7.632 0.432,4.032 0.432,8.64 v 41.616 h -17.424 z"
           style="font-weight:500;font-family:Ubuntu;-inkscape-font-specification:'Ubuntu Medium'"
           id="path835-03" />
        <path
           d="m 814.41519,183.08 h -17.424 v -75.312 h 17.424 z m 1.872,-97.343998 q 0,4.896 -3.168,7.776 -3.168,2.88 -7.488,2.88 -4.464,0 -7.632,-2.88 -3.168,-2.88 -3.168,-7.776 0,-5.04 3.168,-7.92 3.168,-2.88 7.632,-2.88 4.32,0 7.488,2.88 3.168,2.88 3.168,7.92 z"
           style="font-weight:500;font-family:Ubuntu;-inkscape-font-specification:'Ubuntu Medium'"
           id="path837-9" />
        <path
           d="m 836.59105,110.216 q 5.04,-1.44 13.104,-2.736 8.064,-1.296 17.856,-1.296 9.216,0 15.408,2.592 6.192,2.448 9.792,7.056 3.744,4.464 5.184,10.944 1.584,6.336 1.584,13.968 v 42.336 h -17.424 v -39.6 q 0,-6.048 -0.864,-10.224 -0.72,-4.32 -2.592,-6.912 -1.728,-2.736 -4.896,-3.888 -3.024,-1.296 -7.488,-1.296 -3.312,0 -6.912,0.432 -3.6,0.432 -5.328,0.72 v 60.768 h -17.424 z"
           style="font-weight:500;font-family:Ubuntu;-inkscape-font-specification:'Ubuntu Medium'"
           id="path839-19" />
        <path
           d="m 919.96692,87.896002 17.424,-2.88 V 107.768 h 26.784 v 14.544 h -26.784 v 30.672 q 0,9.072 2.88,12.96 2.88,3.888 9.792,3.888 4.752,0 8.352,-1.008 3.744,-1.008 5.904,-1.872 l 2.88,13.824 q -3.024,1.296 -7.92,2.592 -4.896,1.44 -11.52,1.44 -8.064,0 -13.536,-2.16 -5.328,-2.16 -8.496,-6.192 -3.168,-4.176 -4.464,-9.936 -1.296,-5.904 -1.296,-13.392 z"
           style="font-weight:500;font-family:Ubuntu;-inkscape-font-specification:'Ubuntu Medium'"
           id="path841-6" />
      </g>
      <g
         id="layer3-5-9"
         transform="translate(282.18574,-295.51225)">
        <path
           id="path40-33"
           style="fill:#212121;fill-opacity:1;stroke-width:0"
           d="m -282.18574,295.51225 v 128 c 0,70.69245 57.30755,128 128,128 h 128 v -128 c 0,-70.69245 -57.30755,-128 -128,-128 z m 44,44 h 24 v 120 c 0,13.39696 10.60303,24 24,24 h 72 c 13.39696,0 24,-10.60304 24,-24 v -62 c 0,-6.76954 -5.23047,-12 -12,-12 -6.76954,0 -12,5.23046 -12,12 v 62 h -24 v -62 c 0,-6.76954 -5.23047,-12 -12,-12 -6.76954,0 -12,5.23046 -12,12 v 62 h -24 v -62 c 0,-19.7401 16.2599,-36 36,-36 9.22192,0 17.60014,3.64513 24,9.43945 6.39986,-5.79432 14.77807,-9.43945 24,-9.43945 19.74009,0 36,16.2599 36,36 v 62 c 0,26.3675 -21.6325,48 -48,48 h -72 c -26.36751,0 -48,-21.6325 -48,-48 z" />
      </g>
    </g>
    <g
       id="layer3-0"
       transform="matrix(0.13229167,0,0,0.13229167,110.06667,440.26667)">
      <g
         aria-label="linux mint"
         id="text3643-6"
         style="font-size:144px;line-height:1.25;font-family:'Roboto Mono';-inkscape-font-specification:'Roboto Mono'">
        <path
           d="m 338.06401,184.52 q -7.776,-0.144 -12.96,-1.728 -5.04,-1.584 -8.064,-4.464 -3.024,-3.024 -4.32,-7.344 -1.152,-4.464 -1.152,-10.08 V 74.216002 l 17.424,-2.88 V 157.592 q 0,3.168 0.432,5.328 0.576,2.16 1.872,3.744 1.296,1.44 3.456,2.304 2.304,0.72 5.76,1.152 z"
           style="font-weight:500;font-family:Ubuntu;-inkscape-font-specification:'Ubuntu Medium';fill:#ffffff"
           id="path825" />
        <path
           d="m 372.19186,183.08 h -17.424 v -75.312 h 17.424 z m 1.872,-97.343998 q 0,4.896 -3.168,7.776 -3.168,2.88 -7.488,2.88 -4.464,0 -7.632,-2.88 -3.168,-2.88 -3.168,-7.776 0,-5.04 3.168,-7.92 3.168,-2.88 7.632,-2.88 4.32,0 7.488,2.88 3.168,2.88 3.168,7.92 z"
           style="font-weight:500;font-family:Ubuntu;-inkscape-font-specification:'Ubuntu Medium';fill:#ffffff"
           id="path827-4" />
        <path
           d="m 394.36772,110.216 q 5.04,-1.44 13.104,-2.736 8.064,-1.296 17.856,-1.296 9.216,0 15.408,2.592 6.192,2.448 9.792,7.056 3.744,4.464 5.184,10.944 1.584,6.336 1.584,13.968 v 42.336 h -17.424 v -39.6 q 0,-6.048 -0.864,-10.224 -0.72,-4.32 -2.592,-6.912 -1.728,-2.736 -4.896,-3.888 -3.024,-1.296 -7.488,-1.296 -3.312,0 -6.912,0.432 -3.6,0.432 -5.328,0.72 v 60.768 h -17.424 z"
           style="font-weight:500;font-family:Ubuntu;-inkscape-font-specification:'Ubuntu Medium';fill:#ffffff"
           id="path829-6" />
        <path
           d="m 540.38359,180.776 q -5.04,1.296 -13.104,2.592 -8.064,1.44 -17.712,1.44 -9.072,0 -15.264,-2.592 -6.048,-2.592 -9.792,-7.2 -3.6,-4.608 -5.184,-10.944 -1.584,-6.48 -1.584,-14.112 v -42.192 h 17.424 v 39.456 q 0,12.096 3.456,17.28 3.6,5.184 12.384,5.184 3.168,0 6.624,-0.288 3.6,-0.288 5.328,-0.72 v -60.912 h 17.424 z"
           style="font-weight:500;font-family:Ubuntu;-inkscape-font-specification:'Ubuntu Medium';fill:#ffffff"
           id="path831-2" />
        <path
           d="m 589.63134,132.392 15.984,-24.624 h 18.288 l -24.768,35.568 q 7.776,10.08 14.832,20.448 7.2,10.224 11.808,19.296 h -18.864 q -1.296,-2.736 -3.456,-6.192 -2.016,-3.6 -4.464,-7.344 -2.304,-3.888 -4.896,-7.632 -2.592,-3.744 -5.04,-7.056 -5.04,6.48 -9.936,14.4 -4.752,7.776 -7.92,13.824 h -17.856 q 2.16,-4.32 5.184,-9.216 3.024,-4.896 6.48,-9.936 3.456,-5.184 7.056,-10.224 3.744,-5.184 7.344,-9.792 l -24.912,-36.144 h 19.152 z"
           style="font-weight:500;font-family:Ubuntu;-inkscape-font-specification:'Ubuntu Medium';fill:#ffffff"
           id="path833-58" />
        <path
           d="m 715.19922,143.48 q 0,-11.808 -3.024,-16.992 -2.88,-5.328 -10.944,-5.328 -2.88,0 -6.336,0.432 -3.456,0.432 -5.184,0.72 v 60.768 h -17.424 v -72.864 q 5.04,-1.44 13.104,-2.736 8.208,-1.296 17.28,-1.296 7.776,0 12.672,2.016 5.04,2.016 8.352,5.328 1.584,-1.152 4.032,-2.448 2.448,-1.296 5.472,-2.304 3.024,-1.152 6.336,-1.872 3.456,-0.72 6.912,-0.72 8.784,0 14.4,2.592 5.76,2.448 8.928,7.056 3.312,4.464 4.464,10.944 1.296,6.336 1.296,13.968 v 42.336 h -17.424 v -39.6 q 0,-11.808 -2.88,-16.992 -2.88,-5.328 -11.088,-5.328 -4.176,0 -7.92,1.44 -3.744,1.296 -5.616,2.592 1.152,3.6 1.584,7.632 0.432,4.032 0.432,8.64 v 41.616 h -17.424 z"
           style="font-weight:500;font-family:Ubuntu;-inkscape-font-specification:'Ubuntu Medium';fill:#ffffff"
           id="path835-6" />
        <path
           d="m 814.41519,183.08 h -17.424 v -75.312 h 17.424 z m 1.872,-97.343998 q 0,4.896 -3.168,7.776 -3.168,2.88 -7.488,2.88 -4.464,0 -7.632,-2.88 -3.168,-2.88 -3.168,-7.776 0,-5.04 3.168,-7.92 3.168,-2.88 7.632,-2.88 4.32,0 7.488,2.88 3.168,2.88 3.168,7.92 z"
           style="font-weight:500;font-family:Ubuntu;-inkscape-font-specification:'Ubuntu Medium';fill:#ffffff"
           id="path837-28" />
        <path
           d="m 836.59105,110.216 q 5.04,-1.44 13.104,-2.736 8.064,-1.296 17.856,-1.296 9.216,0 15.408,2.592 6.192,2.448 9.792,7.056 3.744,4.464 5.184,10.944 1.584,6.336 1.584,13.968 v 42.336 h -17.424 v -39.6 q 0,-6.048 -0.864,-10.224 -0.72,-4.32 -2.592,-6.912 -1.728,-2.736 -4.896,-3.888 -3.024,-1.296 -7.488,-1.296 -3.312,0 -6.912,0.432 -3.6,0.432 -5.328,0.72 v 60.768 h -17.424 z"
           style="font-weight:500;font-family:Ubuntu;-inkscape-font-specification:'Ubuntu Medium';fill:#ffffff"
           id="path839-4" />
        <path
           d="m 919.96692,87.896002 17.424,-2.88 V 107.768 h 26.784 v 14.544 h -26.784 v 30.672 q 0,9.072 2.88,12.96 2.88,3.888 9.792,3.888 4.752,0 8.352,-1.008 3.744,-1.008 5.904,-1.872 l 2.88,13.824 q -3.024,1.296 -7.92,2.592 -4.896,1.44 -11.52,1.44 -8.064,0 -13.536,-2.16 -5.328,-2.16 -8.496,-6.192 -3.168,-4.176 -4.464,-9.936 -1.296,-5.904 -1.296,-13.392 z"
           style="font-weight:500;font-family:Ubuntu;-inkscape-font-specification:'Ubuntu Medium';fill:#ffffff"
           id="path841-7" />
      </g>
      <g
         id="layer3-5-240"
         transform="translate(282.18574,-295.51225)">
        <path
           id="path40-629"
           style="fill:#ffffff;stroke-width:0"
           d="m -282.18574,295.51225 v 128 c 0,70.69245 57.30755,128 128,128 h 128 v -128 c 0,-70.69245 -57.30755,-128 -128,-128 z m 44,44 h 24 v 120 c 0,13.39696 10.60303,24 24,24 h 72 c 13.39696,0 24,-10.60304 24,-24 v -62 c 0,-6.76954 -5.23047,-12 -12,-12 -6.76954,0 -12,5.23046 -12,12 v 62 h -24 v -62 c 0,-6.76954 -5.23047,-12 -12,-12 -6.76954,0 -12,5.23046 -12,12 v 62 h -24 v -62 c 0,-19.7401 16.2599,-36 36,-36 9.22192,0 17.60014,3.64513 24,9.43945 6.39986,-5.79432 14.77807,-9.43945 24,-9.43945 19.74009,0 36,16.2599 36,36 v 62 c 0,26.3675 -21.6325,48 -48,48 h -72 c -26.36751,0 -48,-21.6325 -48,-48 z" />
      </g>
    </g>
    <g
       id="layer3-18"
       transform="matrix(0.13229167,0,0,0.13229167,347.13334,321.73335)">
      <path
         id="path40-96"
         style="fill:#43a047;stroke-width:0"
         d="M 256,256 H 0 V 0 h 256 z"
         sodipodi:nodetypes="ccccc" />
      <path
         style="color:#000000;fill:#ffffff;stroke-width:0;-inkscape-stroke:none"
         d="m 44,0 v 164 c 0,26.3675 21.63249,48 48,48 h 72 c 26.3675,0 48,-21.6325 48,-48 v -62 c 0,-19.7401 -16.25991,-36 -36,-36 -9.22193,0 -17.60014,3.64514 -24,9.43946 C 145.60014,69.64514 137.22192,66 128,66 108.2599,66 92,82.2599 92,102 v 62 h 24 v -62 c 0,-6.76954 5.23046,-12 12,-12 6.76953,0 12,5.23046 12,12 v 62 h 24 v -62 c 0,-6.76954 5.23046,-12 12,-12 6.76953,0 12,5.23046 12,12 v 62 c 0,13.39696 -10.60304,24 -24,24 H 92 C 78.60303,188 68,177.39696 68,164 V 0 Z"
         id="path4193-4"
         sodipodi:nodetypes="csssssscssccsssccssssssscc" />
    </g>
    <path
       id="path40-88"
       style="fill:#4caf50;fill-opacity:1;stroke-width:0"
       d="m 296.33334,321.73335 v 33.86666 h 33.86667 v -33.86666 h -24.87084 v 21.69583 c 0,1.77231 1.40269,3.175 3.175,3.175 h 9.525 c 1.77231,0 3.175,-1.40269 3.175,-3.175 v -8.20208 c 0,-0.89556 -0.69195,-1.5875 -1.5875,-1.5875 -0.89555,0 -1.5875,0.69194 -1.5875,1.5875 v 8.20208 h -3.175 v -8.20208 c 0,-0.89556 -0.69195,-1.5875 -1.5875,-1.5875 -0.89555,0 -1.5875,0.69194 -1.5875,1.5875 v 8.20208 h -3.175 v -8.20208 c 0,-2.61145 2.15105,-4.7625 4.7625,-4.7625 1.21999,0 2.32835,0.48222 3.175,1.24876 0.84665,-0.76654 1.95502,-1.24876 3.175,-1.24876 2.61145,0 4.7625,2.15105 4.7625,4.7625 v 8.20208 c 0,3.4882 -2.8618,6.35 -6.35,6.35 h -9.525 c -3.4882,0 -6.35,-2.8618 -6.35,-6.35 v -21.69583 z" />
    <path
       id="path40-7"
       style="fill:#212121;fill-opacity:1;stroke-width:0"
       d="m 245.53333,321.73335 v 33.86666 H 279.4 v -33.86666 h -24.87084 v 21.69583 c 0,1.77231 1.40269,3.175 3.175,3.175 h 9.525 c 1.77231,0 3.175,-1.40269 3.175,-3.175 v -8.20208 c 0,-0.89556 -0.69195,-1.5875 -1.5875,-1.5875 -0.89555,0 -1.5875,0.69194 -1.5875,1.5875 v 8.20208 h -3.175 v -8.20208 c 0,-0.89556 -0.69195,-1.5875 -1.5875,-1.5875 -0.89555,0 -1.5875,0.69194 -1.5875,1.5875 v 8.20208 h -3.175 v -8.20208 c 0,-2.61145 2.15105,-4.7625 4.7625,-4.7625 1.21998,0 2.32835,0.48222 3.175,1.24876 0.84665,-0.76654 1.95502,-1.24876 3.175,-1.24876 2.61145,0 4.7625,2.15105 4.7625,4.7625 v 8.20208 c 0,3.4882 -2.8618,6.35 -6.35,6.35 h -9.525 c -3.4882,0 -6.35,-2.8618 -6.35,-6.35 v -21.69583 z" />
    <path
       id="path40-18"
       style="fill:#ffffff;stroke-width:0"
       d="m 194.73334,321.73335 v 33.86667 h 33.86667 v -33.86667 h -24.87084 v 21.69583 c 0,1.77231 1.4027,3.17501 3.175,3.17501 h 9.525 c 1.77231,0 3.175,-1.4027 3.175,-3.17501 v -8.20208 c 0,-0.89555 -0.69194,-1.5875 -1.5875,-1.5875 -0.89555,0 -1.5875,0.69195 -1.5875,1.5875 v 8.20208 h -3.175 v -8.20208 c 0,-0.89555 -0.69194,-1.5875 -1.5875,-1.5875 -0.89555,0 -1.5875,0.69195 -1.5875,1.5875 v 8.20208 h -3.175 v -8.20208 c 0,-2.61145 2.15105,-4.7625 4.7625,-4.7625 1.21999,0 2.32836,0.48222 3.175,1.24876 0.84665,-0.76654 1.95502,-1.24876 3.175,-1.24876 2.61145,0 4.7625,2.15105 4.7625,4.7625 v 8.20208 c 0,3.48821 -2.86179,6.35001 -6.35,6.35001 h -9.525 c -3.4882,0 -6.35,-2.8618 -6.35,-6.35001 v -21.69583 z" />
    <g
       id="layer3-59"
       transform="matrix(0.13229167,0,0,0.13229167,110.06667,279.40001)">
      <g
         id="g107710">
        <g
           id="g107717"
           transform="translate(0,319.99998)">
          <path
             id="path40-62"
             style="fill:#388e3c;stroke-width:0"
             d="M 256,256 H 0 V 0 h 256 z"
             sodipodi:nodetypes="ccccc" />
          <path
             id="path1655-1"
             style="fill:#4caf50;stroke-width:0"
             d="M 256,0 V 256 L 0,0 Z"
             sodipodi:nodetypes="cccc" />
          <path
             style="color:#000000;fill:#ffffff;stroke-width:0;-inkscape-stroke:none"
             d="m 44,0 v 164 c 0,26.3675 21.63249,48 48,48 h 72 c 26.3675,0 48,-21.6325 48,-48 v -62 c 0,-19.7401 -16.25991,-36 -36,-36 -9.22193,0 -17.60014,3.64514 -24,9.43946 C 145.60014,69.64514 137.22192,66 128,66 108.2599,66 92,82.2599 92,102 v 62 h 24 v -62 c 0,-6.76954 5.23046,-12 12,-12 6.76953,0 12,5.23046 12,12 v 62 h 24 v -62 c 0,-6.76954 5.23046,-12 12,-12 6.76953,0 12,5.23046 12,12 v 62 c 0,13.39696 -10.60304,24 -24,24 H 92 C 78.60303,188 68,177.39696 68,164 V 0 Z"
             id="path4193-78"
             sodipodi:nodetypes="csssssscssccsssccssssssscc" />
        </g>
      </g>
    </g>
    <g
       id="layer3-47"
       transform="matrix(0.13229167,0,0,0.13229167,347.13334,237.06668)">
      <path
         id="path40-63"
         style="fill:#43a047;stroke-width:0"
         d="M 256,256 H 0 V 0 h 256 z"
         sodipodi:nodetypes="ccccc"
         clip-path="url(#clipPath959-44)" />
      <path
         style="color:#000000;fill:#ffffff;stroke-width:0;-inkscape-stroke:none"
         d="m 44,14 v 150 c 0,26.3675 21.63249,48 48,48 h 72 c 26.3675,0 48,-21.6325 48,-48 v -62 c 0,-19.7401 -16.25991,-36 -36,-36 -9.22193,0 -17.60014,3.64514 -24,9.43946 C 145.60014,69.64514 137.22192,66 128,66 108.2599,66 92,82.2599 92,102 v 62 h 24 v -62 c 0,-6.76954 5.23046,-12 12,-12 6.76953,0 12,5.23046 12,12 v 62 h 24 v -62 c 0,-6.76954 5.23046,-12 12,-12 6.76953,0 12,5.23046 12,12 v 62 c 0,13.39696 -10.60304,24 -24,24 H 92 C 78.60303,188 68,177.39696 68,164 V 14 Z"
         id="path4193-1"
         sodipodi:nodetypes="csssssscssccsssccssssssscc"
         clip-path="url(#clipPath951-48)" />
    </g>
    <path
       id="path40-59"
       clip-path="url(#clipPath959-8)"
       style="fill:#4caf50;fill-opacity:1;stroke-width:0"
       d="M 0,0 V 256 H 256 V 0 Z m 44,14 h 24 v 150 c 0,13.39696 10.60303,24 24,24 h 72 c 13.39696,0 24,-10.60304 24,-24 v -62 c 0,-6.76954 -5.23047,-12 -12,-12 -6.76954,0 -12,5.23046 -12,12 v 62 h -24 v -62 c 0,-6.76954 -5.23047,-12 -12,-12 -6.76954,0 -12,5.23046 -12,12 v 62 H 92 v -62 c 0,-19.7401 16.2599,-36 36,-36 9.22192,0 17.60014,3.645133 24,9.439453 C 158.39986,69.645133 166.77807,66 176,66 c 19.74009,0 36,16.2599 36,36 v 62 c 0,26.3675 -21.6325,48 -48,48 H 92 C 65.63249,212 44,190.3675 44,164 Z"
       transform="matrix(0.13229167,0,0,0.13229167,296.33334,237.06668)" />
    <path
       id="path40-908"
       clip-path="url(#clipPath959-2)"
       style="fill:#212121;fill-opacity:1;stroke-width:0"
       d="M 0,0 V 256 H 256 V 0 Z m 44,14 h 24 v 150 c 0,13.39696 10.60303,24 24,24 h 72 c 13.39696,0 24,-10.60304 24,-24 v -62 c 0,-6.76954 -5.23047,-12 -12,-12 -6.76954,0 -12,5.23046 -12,12 v 62 h -24 v -62 c 0,-6.76954 -5.23047,-12 -12,-12 -6.76954,0 -12,5.23046 -12,12 v 62 H 92 v -62 c 0,-19.7401 16.2599,-36 36,-36 9.22192,0 17.60014,3.645133 24,9.439453 C 158.39986,69.645133 166.77807,66 176,66 c 19.74009,0 36,16.2599 36,36 v 62 c 0,26.3675 -21.6325,48 -48,48 H 92 C 65.63249,212 44,190.3675 44,164 Z"
       transform="matrix(0.13229167,0,0,0.13229167,245.53334,237.06668)" />
    <path
       id="path40-65"
       clip-path="url(#clipPath959-7)"
       style="fill:#ffffff;stroke-width:0"
       d="M 0,0 V 256 H 256 V 0 Z m 44,14 h 24 v 150 c 0,13.39696 10.60303,24 24,24 h 72 c 13.39696,0 24,-10.60304 24,-24 v -62 c 0,-6.76954 -5.23047,-12 -12,-12 -6.76954,0 -12,5.23046 -12,12 v 62 h -24 v -62 c 0,-6.76954 -5.23047,-12 -12,-12 -6.76954,0 -12,5.23046 -12,12 v 62 H 92 v -62 c 0,-19.7401 16.2599,-36 36,-36 9.22192,0 17.60014,3.645133 24,9.439453 C 158.39986,69.645133 166.77807,66 176,66 c 19.74009,0 36,16.2599 36,36 v 62 c 0,26.3675 -21.6325,48 -48,48 H 92 C 65.63249,212 44,190.3675 44,164 Z"
       transform="matrix(0.13229167,0,0,0.13229167,194.73334,237.06668)" />
    <g
       id="layer3-4"
       transform="matrix(0.13229167,0,0,0.13229167,110.06667,237.06668)">
      <path
         id="path40-90"
         style="fill:#388e3c;stroke-width:0"
         d="M 256,256 H 0 V 0 h 256 z"
         sodipodi:nodetypes="ccccc"
         clip-path="url(#clipPath959-1)" />
      <path
         id="path1655-91"
         style="fill:#4caf50;stroke-width:0"
         d="M 256,0 V 256 L 0,0 Z"
         sodipodi:nodetypes="cccc"
         clip-path="url(#clipPath955-0)" />
      <path
         style="color:#000000;fill:#ffffff;stroke-width:0;-inkscape-stroke:none"
         d="m 44,14 v 150 c 0,26.3675 21.63249,48 48,48 h 72 c 26.3675,0 48,-21.6325 48,-48 v -62 c 0,-19.7401 -16.25991,-36 -36,-36 -9.22193,0 -17.60014,3.64514 -24,9.43946 C 145.60014,69.64514 137.22192,66 128,66 108.2599,66 92,82.2599 92,102 v 62 h 24 v -62 c 0,-6.76954 5.23046,-12 12,-12 6.76953,0 12,5.23046 12,12 v 62 h 24 v -62 c 0,-6.76954 5.23046,-12 12,-12 6.76953,0 12,5.23046 12,12 v 62 c 0,13.39696 -10.60304,24 -24,24 H 92 C 78.60303,188 68,177.39696 68,164 V 14 Z"
         id="path4193-77"
         sodipodi:nodetypes="csssssscssccsssccssssssscc"
         clip-path="url(#clipPath951-2)" />
    </g>
    <g
       id="layer3-17"
       transform="matrix(0.13229167,0,0,0.13229167,347.13334,279.40001)">
      <path
         id="path40-2"
         style="fill:#43a047;stroke-width:0"
         d="M 256,256 H 0 V 0 h 256 z"
         sodipodi:nodetypes="ccccc" />
      <path
         style="color:#000000;fill:#ffffff;stroke-width:0;-inkscape-stroke:none"
         d="m 44,44 v 120 c 0,26.3675 21.63249,48 48,48 h 72 c 26.3675,0 48,-21.6325 48,-48 v -62 c 0,-19.7401 -16.25991,-36 -36,-36 -9.22193,0 -17.60014,3.64514 -24,9.43946 C 145.60014,69.64514 137.22192,66 128,66 108.2599,66 92,82.2599 92,102 v 62 h 24 v -62 c 0,-6.76954 5.23046,-12 12,-12 6.76953,0 12,5.23046 12,12 v 62 h 24 v -62 c 0,-6.76954 5.23046,-12 12,-12 6.76953,0 12,5.23046 12,12 v 62 c 0,13.39696 -10.60304,24 -24,24 H 92 C 78.60303,188 68,177.39696 68,164 V 44 Z"
         id="path4193-7"
         sodipodi:nodetypes="csssssscssccsssccssssssscc" />
    </g>
    <path
       id="path40-48"
       style="fill:#4caf50;fill-opacity:1;stroke-width:0"
       d="m 296.33334,279.40001 v 33.86667 h 33.86667 v -33.86667 z m 5.82083,5.82083 h 3.175 v 15.875 c 0,1.77231 1.40269,3.175 3.175,3.175 h 9.525 c 1.77231,0 3.175,-1.40269 3.175,-3.175 v -8.20208 c 0,-0.89556 -0.69195,-1.5875 -1.5875,-1.5875 -0.89555,0 -1.5875,0.69194 -1.5875,1.5875 v 8.20208 h -3.175 v -8.20208 c 0,-0.89556 -0.69195,-1.5875 -1.5875,-1.5875 -0.89555,0 -1.5875,0.69194 -1.5875,1.5875 v 8.20208 h -3.175 v -8.20208 c 0,-2.61145 2.15105,-4.7625 4.7625,-4.7625 1.21998,0 2.32835,0.48222 3.175,1.24876 0.84665,-0.76654 1.95502,-1.24876 3.175,-1.24876 2.61145,0 4.7625,2.15105 4.7625,4.7625 v 8.20208 c 0,3.4882 -2.8618,6.35 -6.35,6.35 h -9.525 c -3.4882,0 -6.35,-2.8618 -6.35,-6.35 z" />
    <path
       id="path40-49"
       style="fill:#212121;fill-opacity:1;stroke-width:0"
       d="m 245.53333,279.40001 v 33.86667 H 279.4 v -33.86667 z m 5.82084,5.82084 h 3.175 v 15.875 c 0,1.7723 1.40269,3.175 3.175,3.175 h 9.525 c 1.7723,0 3.175,-1.4027 3.175,-3.175 v -8.20209 c 0,-0.89555 -0.69195,-1.5875 -1.5875,-1.5875 -0.89556,0 -1.5875,0.69195 -1.5875,1.5875 v 8.20209 h -3.175 v -8.20209 c 0,-0.89555 -0.69195,-1.5875 -1.5875,-1.5875 -0.89556,0 -1.5875,0.69195 -1.5875,1.5875 v 8.20209 h -3.175 v -8.20209 c 0,-2.61145 2.15105,-4.7625 4.7625,-4.7625 1.21998,0 2.32835,0.48222 3.175,1.24876 0.84664,-0.76654 1.95501,-1.24876 3.175,-1.24876 2.61145,0 4.7625,2.15105 4.7625,4.7625 v 8.20209 c 0,3.4882 -2.8618,6.35 -6.35,6.35 h -9.525 c -3.48821,0 -6.35,-2.8618 -6.35,-6.35 z" />
    <path
       id="path40-9"
       style="fill:#ffffff;stroke-width:0"
       d="m 194.73334,279.40001 v 33.86667 h 33.86667 v -33.86667 z m 5.82083,5.82083 h 3.175 v 15.875 c 0,1.77231 1.40269,3.175 3.175,3.175 h 9.525 c 1.77231,0 3.175,-1.40269 3.175,-3.175 v -8.20208 c 0,-0.89555 -0.69195,-1.5875 -1.5875,-1.5875 -0.89555,0 -1.5875,0.69195 -1.5875,1.5875 v 8.20208 h -3.175 v -8.20208 c 0,-0.89555 -0.69195,-1.5875 -1.5875,-1.5875 -0.89555,0 -1.5875,0.69195 -1.5875,1.5875 v 8.20208 h -3.175 v -8.20208 c 0,-2.61145 2.15105,-4.7625 4.7625,-4.7625 1.21998,0 2.32835,0.48222 3.175,1.24876 0.84665,-0.76654 1.95502,-1.24876 3.175,-1.24876 2.61145,0 4.7625,2.15105 4.7625,4.7625 v 8.20208 c 0,3.4882 -2.8618,6.35 -6.35,6.35 h -9.525 c -3.4882,0 -6.35,-2.8618 -6.35,-6.35 z" />
    <g
       id="layer3-1"
       transform="matrix(0.13229167,0,0,0.13229167,110.06667,279.40001)">
      <path
         id="path40-4"
         style="fill:#388e3c;stroke-width:0"
         d="M 256,256 H 0 V 0 h 256 z"
         sodipodi:nodetypes="ccccc" />
      <path
         id="path1655-9"
         style="fill:#4caf50;stroke-width:0"
         d="M 256,0 V 256 L 0,0 Z"
         sodipodi:nodetypes="cccc" />
      <path
         style="color:#000000;fill:#ffffff;stroke-width:0;-inkscape-stroke:none"
         d="m 44,44 v 120 c 0,26.3675 21.63249,48 48,48 h 72 c 26.3675,0 48,-21.6325 48,-48 v -62 c 0,-19.7401 -16.25991,-36 -36,-36 -9.22193,0 -17.60014,3.64514 -24,9.43946 C 145.60014,69.64514 137.22192,66 128,66 108.2599,66 92,82.2599 92,102 v 62 h 24 v -62 c 0,-6.76954 5.23046,-12 12,-12 6.76953,0 12,5.23046 12,12 v 62 h 24 v -62 c 0,-6.76954 5.23046,-12 12,-12 6.76953,0 12,5.23046 12,12 v 62 c 0,13.39696 -10.60304,24 -24,24 H 92 C 78.60303,188 68,177.39696 68,164 V 44 Z"
         id="path4193-2"
         sodipodi:nodetypes="csssssscssccsssccssssssscc" />
    </g>
    <text
       xml:space="preserve"
       style="font-size:16.9333px;line-height:1.25;font-family:'Roboto Mono';-inkscape-font-specification:'Roboto Mono';letter-spacing:0px;stroke-width:0.264583"
       x="3.1584656"
       y="16.933308"
       id="text2969"><tspan
         sodipodi:role="line"
         id="tspan2967"
         style="font-style:normal;font-variant:normal;font-weight:bold;font-stretch:normal;font-size:16.9333px;font-family:Roboto;-inkscape-font-specification:'Roboto Bold';stroke-width:0.264583"
         x="3.1584656"
         y="16.933308">Linux Mint logos</tspan></text>
    <text
       xml:space="preserve"
       style="font-size:16.9333px;line-height:1.25;font-family:'Roboto Mono';-inkscape-font-specification:'Roboto Mono';letter-spacing:0px;stroke-width:0.264583"
       x="2.7037141"
       y="91.02079"
       id="text15269"><tspan
         sodipodi:role="line"
         id="tspan15267"
         style="font-style:normal;font-variant:normal;font-weight:300;font-stretch:normal;font-size:16.9333px;font-family:Roboto;-inkscape-font-specification:'Roboto Light';stroke-width:0.264583"
         x="2.7037141"
         y="91.02079">Leaf</tspan></text>
    <text
       xml:space="preserve"
       style="font-size:16.9333px;line-height:1.25;font-family:'Roboto Mono';-inkscape-font-specification:'Roboto Mono';letter-spacing:0px;stroke-width:0.264583"
       x="3.8778002"
       y="37.603882"
       id="text19797"><tspan
         sodipodi:role="line"
         id="tspan19795"
         style="font-style:normal;font-variant:normal;font-weight:normal;font-stretch:normal;font-size:16.9333px;font-family:'Roboto Condensed';-inkscape-font-specification:'Roboto Condensed, ';stroke-width:0.264583"
         x="3.8778002"
         y="37.603882">Variant name</tspan></text>
    <text
       xml:space="preserve"
       style="font-size:16.9333px;line-height:1.25;font-family:'Roboto Mono';-inkscape-font-specification:'Roboto Mono';letter-spacing:0px;stroke-width:0.264583"
       x="108.76856"
       y="38.099976"
       id="text47373"><tspan
         sodipodi:role="line"
         id="tspan47371"
         style="font-style:normal;font-variant:normal;font-weight:normal;font-stretch:normal;font-size:16.9333px;font-family:'Roboto Condensed';-inkscape-font-specification:'Roboto Condensed, ';stroke-width:0.264583"
         x="108.76856"
         y="38.099976">Full colour</tspan></text>
    <text
       xml:space="preserve"
       style="font-size:16.9333px;line-height:1.25;font-family:'Roboto Mono';-inkscape-font-specification:'Roboto Mono';letter-spacing:0px;stroke-width:0.264583"
       x="194.03053"
       y="38.099976"
       id="text52781"><tspan
         sodipodi:role="line"
         id="tspan52779"
         style="font-style:normal;font-variant:normal;font-weight:normal;font-stretch:normal;font-size:16.9333px;font-family:'Roboto Condensed';-inkscape-font-specification:'Roboto Condensed, ';stroke-width:0.264583"
         x="194.03053"
         y="38.099976">Single colour</tspan></text>
    <g
       id="layer3"
       transform="matrix(0.13229167,0,0,0.13229167,110.06667,67.733335)">
      <path
         id="path40"
         style="fill:#388e3c;stroke-width:0"
         d="m 256,128 c 0,32.64694 0,128 0,128 0,0 -89.95449,0 -128,0 C 57.307552,256 0,198.69245 0,128 0,92.504104 0,0 0,0 0,0 92.803448,0 128,0 198.69245,0 256,57.307552 256,128 Z"
         sodipodi:nodetypes="scsscss" />
      <path
         id="path1655"
         style="fill:#4caf50;stroke-width:0"
         d="M 256,128 V 256 L 0,0 h 128 c 70.69245,0 128,57.307552 128,128 z"
         sodipodi:nodetypes="sccss" />
      <path
         style="color:#000000;fill:#ffffff;stroke-width:0;-inkscape-stroke:none"
         d="m 44,44 v 120 c 0,26.3675 21.63249,48 48,48 h 72 c 26.3675,0 48,-21.6325 48,-48 v -62 c 0,-19.7401 -16.25991,-36 -36,-36 -9.22193,0 -17.60014,3.64514 -24,9.43946 C 145.60014,69.64514 137.22192,66 128,66 108.2599,66 92,82.2599 92,102 v 62 h 24 v -62 c 0,-6.76954 5.23046,-12 12,-12 6.76953,0 12,5.23046 12,12 v 62 h 24 v -62 c 0,-6.76954 5.23046,-12 12,-12 6.76953,0 12,5.23046 12,12 v 62 c 0,13.39696 -10.60304,24 -24,24 H 92 C 78.60303,188 68,177.39696 68,164 V 44 Z"
         id="path4193"
         sodipodi:nodetypes="csssssscssccsssccssssssscc" />
    </g>
    <path
       id="path40-5"
       style="fill:#ffffff;stroke-width:0"
       d="m 194.73334,67.733335 v 16.933332 c 0,9.35202 7.58131,16.933333 16.93333,16.933333 h 16.93334 V 84.666667 c 0,-9.352021 -7.58131,-16.933332 -16.93334,-16.933332 z m 5.82083,5.820833 h 3.175 v 15.875 c 0,1.772305 1.4027,3.174999 3.175,3.174999 h 9.525 c 1.77231,0 3.175,-1.402694 3.175,-3.174999 v -8.202084 c 0,-0.895554 -0.69194,-1.5875 -1.5875,-1.5875 -0.89555,0 -1.5875,0.691946 -1.5875,1.5875 v 8.202084 h -3.175 v -8.202084 c 0,-0.895554 -0.69194,-1.5875 -1.5875,-1.5875 -0.89555,0 -1.5875,0.691946 -1.5875,1.5875 v 8.202084 h -3.175 v -8.202084 c 0,-2.61145 2.15105,-4.7625 4.7625,-4.7625 1.21999,0 2.32835,0.482221 3.175,1.248761 0.84665,-0.76654 1.95502,-1.248761 3.175,-1.248761 2.61145,0 4.7625,2.15105 4.7625,4.7625 v 8.202084 c 0,3.488199 -2.8618,6.349999 -6.35,6.349999 h -9.525 c -3.4882,0 -6.35,-2.8618 -6.35,-6.349999 z" />
    <text
       xml:space="preserve"
       style="font-size:16.9333px;line-height:1.25;font-family:'Roboto Mono';-inkscape-font-specification:'Roboto Mono';letter-spacing:0px;stroke-width:0.264583"
       x="194.14629"
       y="59.266644"
       id="text71563"><tspan
         sodipodi:role="line"
         id="tspan71561"
         style="font-style:normal;font-variant:normal;font-weight:normal;font-stretch:normal;font-size:16.9333px;font-family:'Roboto Condensed';-inkscape-font-specification:'Roboto Condensed, ';stroke-width:0.264583"
         x="194.14629"
         y="59.266644">White</tspan></text>
    <text
       xml:space="preserve"
       style="font-size:16.9333px;line-height:1.25;font-family:'Roboto Mono';-inkscape-font-specification:'Roboto Mono';letter-spacing:0px;stroke-width:0.264583"
       x="244.23521"
       y="59.266644"
       id="text75159"><tspan
         sodipodi:role="line"
         id="tspan75157"
         style="font-style:normal;font-variant:normal;font-weight:normal;font-stretch:normal;font-size:16.9333px;font-family:'Roboto Condensed';-inkscape-font-specification:'Roboto Condensed, ';stroke-width:0.264583"
         x="244.23521"
         y="59.266644">Black</tspan></text>
    <path
       id="path40-6"
       style="fill:#212121;fill-opacity:1;stroke-width:0"
       d="m 245.53334,67.733334 v 16.933332 c 0,9.352022 7.58131,16.933334 16.93333,16.933334 h 16.93334 V 84.666666 c 0,-9.352021 -7.58131,-16.933332 -16.93334,-16.933332 z m 5.82083,5.820833 h 3.175 v 15.874999 c 0,1.772306 1.4027,3.175 3.175,3.175 h 9.525 c 1.77231,0 3.175,-1.402694 3.175,-3.175 v -8.202083 c 0,-0.895554 -0.69194,-1.5875 -1.5875,-1.5875 -0.89555,0 -1.5875,0.691946 -1.5875,1.5875 v 8.202083 h -3.175 v -8.202083 c 0,-0.895554 -0.69194,-1.5875 -1.5875,-1.5875 -0.89555,0 -1.5875,0.691946 -1.5875,1.5875 v 8.202083 h -3.175 v -8.202083 c 0,-2.61145 2.15105,-4.7625 4.7625,-4.7625 1.21999,0 2.32835,0.482221 3.175,1.248761 0.84665,-0.76654 1.95502,-1.248761 3.175,-1.248761 2.61145,0 4.7625,2.15105 4.7625,4.7625 v 8.202083 c 0,3.4882 -2.8618,6.349999 -6.35,6.349999 h -9.525 c -3.4882,0 -6.35,-2.861799 -6.35,-6.349999 z" />
    <text
       xml:space="preserve"
       style="font-size:16.9333px;line-height:1.25;font-family:'Roboto Mono';-inkscape-font-specification:'Roboto Mono';letter-spacing:0px;stroke-width:0.264583"
       x="295.30811"
       y="59.266644"
       id="text76382"><tspan
         sodipodi:role="line"
         id="tspan76380"
         style="font-style:normal;font-variant:normal;font-weight:normal;font-stretch:normal;font-size:16.9333px;font-family:'Roboto Condensed';-inkscape-font-specification:'Roboto Condensed, ';stroke-width:0.264583"
         x="295.30811"
         y="59.266644">Green</tspan></text>
    <path
       id="path40-1"
       style="fill:#4caf50;stroke-width:0"
       d="m 296.33334,67.733335 v 16.933206 c 0,9.352005 7.58139,16.933269 16.93301,16.933269 h 16.93366 V 84.666541 c 0,-9.351942 -7.5814,-16.933206 -16.93366,-16.933206 z m 5.82396,5.820763 h 3.17438 v 15.874845 c 0,1.772149 1.40159,3.17502 3.17438,3.17502 h 9.52506 c 1.77279,0 3.17438,-1.402871 3.17438,-3.17502 v -8.201997 c 0,-0.895354 -0.69119,-1.58719 -1.58719,-1.58719 -0.89599,0 -1.58719,0.691836 -1.58719,1.58719 v 8.201997 h -3.17438 v -8.201997 c 0,-0.895354 -0.69119,-1.58719 -1.58719,-1.58719 -0.89599,0 -1.58719,0.691836 -1.58719,1.58719 v 8.201997 h -3.17438 v -8.201997 c 0,-2.611183 2.15039,-4.76221 4.76157,-4.76221 1.2224,0 2.32959,0.479997 3.17438,1.248632 0.8448,-0.766715 1.95839,-1.248632 3.17438,-1.248632 2.61119,0 4.76157,2.151027 4.76157,4.76221 v 8.201997 c 0,3.487978 -2.86078,6.35004 -6.34876,6.35004 h -9.52506 c -3.48797,0 -6.34876,-2.861422 -6.34876,-6.35004 z" />
    <text
       xml:space="preserve"
       style="font-size:16.9333px;line-height:1.25;font-family:'Roboto Mono';-inkscape-font-specification:'Roboto Mono';letter-spacing:0px;stroke-width:0.264583"
       x="346.62897"
       y="38.099976"
       id="text78625"><tspan
         sodipodi:role="line"
         id="tspan78623"
         style="font-style:normal;font-variant:normal;font-weight:normal;font-stretch:normal;font-size:16.9333px;font-family:'Roboto Condensed';-inkscape-font-specification:'Roboto Condensed, ';stroke-width:0.264583"
         x="346.62897"
         y="38.099976">Two colours</tspan></text>
    <g
       id="layer3-7"
       transform="matrix(0.13229167,0,0,0.13229167,347.13334,67.733335)">
      <path
         id="path40-0"
         style="fill:#43a047;stroke-width:0"
         d="m 0,0 v 128 c 0,70.69245 57.307552,128 128,128 H 256 V 128 C 256,57.307552 198.69245,0 128,0 Z" />
      <path
         style="color:#000000;fill:#ffffff;stroke-width:0;-inkscape-stroke:none"
         d="m 44,44 v 120 c 0,26.3675 21.63249,48 48,48 h 72 c 26.3675,0 48,-21.6325 48,-48 v -62 c 0,-19.7401 -16.25991,-36 -36,-36 -9.22193,0 -17.60014,3.64514 -24,9.43946 C 145.60014,69.64514 137.22192,66 128,66 108.2599,66 92,82.2599 92,102 v 62 h 24 v -62 c 0,-6.76954 5.23046,-12 12,-12 6.76953,0 12,5.23046 12,12 v 62 h 24 v -62 c 0,-6.76954 5.23046,-12 12,-12 6.76953,0 12,5.23046 12,12 v 62 c 0,13.39696 -10.60304,24 -24,24 H 92 C 78.60303,188 68,177.39696 68,164 V 44 Z"
         id="path4193-9"
         sodipodi:nodetypes="csssssscssccsssccssssssscc" />
    </g>
    <text
       xml:space="preserve"
       style="font-size:16.9333px;line-height:1.25;font-family:'Roboto Mono';-inkscape-font-specification:'Roboto Mono';letter-spacing:0px;stroke-width:0.264583"
       x="2.7037141"
       y="133.35411"
       id="text91326"><tspan
         sodipodi:role="line"
         id="tspan91324"
         style="font-style:normal;font-variant:normal;font-weight:300;font-stretch:normal;font-size:16.9333px;font-family:Roboto;-inkscape-font-specification:'Roboto Light';stroke-width:0.264583"
         x="2.7037141"
         y="133.35411">Leaf outline</tspan></text>
    <g
       id="layer3-5"
       transform="matrix(0.13229165,0,0,0.13229165,194.73334,110.06667)">
      <path
         id="path40-3"
         style="fill:none;stroke:#ffffff;stroke-width:24;stroke-miterlimit:4;stroke-dasharray:none"
         d="m 256,128 c 0,32.64694 0,128 0,128 0,0 -89.95449,0 -128,0 C 57.307552,256 0,198.69245 0,128 0,92.504104 0,0 0,0 0,0 92.803448,0 128,0 198.69245,0 256,57.307552 256,128 Z"
         sodipodi:nodetypes="scsscss"
         clip-path="url(#clipPath1223)" />
      <path
         style="color:#000000;fill:#ffffff;stroke-width:0;-inkscape-stroke:none"
         d="m 44,44 v 120 c 0,26.3675 21.63249,48 48,48 h 72 c 26.3675,0 48,-21.6325 48,-48 v -62 c 0,-19.7401 -16.25991,-36 -36,-36 -9.22193,0 -17.60014,3.64514 -24,9.43946 C 145.60014,69.64514 137.22192,66 128,66 108.2599,66 92,82.2599 92,102 v 62 h 24 v -62 c 0,-6.76954 5.23046,-12 12,-12 6.76953,0 12,5.23046 12,12 v 62 h 24 v -62 c 0,-6.76954 5.23046,-12 12,-12 6.76953,0 12,5.23046 12,12 v 62 c 0,13.39696 -10.60304,24 -24,24 H 92 C 78.60303,188 68,177.39696 68,164 V 44 Z"
         id="path4193-0"
         sodipodi:nodetypes="csssssscssccsssccssssssscc" />
    </g>
    <g
       id="g95897">
      <path
         id="path40-3-7"
         style="fill:none;stroke:#212121;stroke-width:24;stroke-miterlimit:4;stroke-dasharray:none;stroke-opacity:1"
         d="m 256,128 c 0,32.64694 0,128 0,128 0,0 -89.95449,0 -128,0 C 57.307552,256 0,198.69245 0,128 0,92.504104 0,0 0,0 0,0 92.803448,0 128,0 198.69245,0 256,57.307552 256,128 Z"
         sodipodi:nodetypes="scsscss"
         clip-path="url(#clipPath1223-2)"
         transform="matrix(0.13229165,0,0,0.13229165,245.53334,110.06667)" />
      <path
         style="color:#000000;fill:#212121;fill-opacity:1;stroke-width:0;-inkscape-stroke:none"
         d="m 251.35417,115.8875 v 15.875 c 0,3.4882 2.8618,6.35 6.35,6.35 h 9.525 c 3.4882,0 6.35,-2.8618 6.35,-6.35 v -8.20208 c 0,-2.61145 -2.15105,-4.7625 -4.7625,-4.7625 -1.21998,0 -2.32835,0.48222 -3.175,1.24876 -0.84665,-0.76654 -1.95502,-1.24876 -3.175,-1.24876 -2.61145,0 -4.7625,2.15105 -4.7625,4.7625 v 8.20208 h 3.175 v -8.20208 c 0,-0.89556 0.69195,-1.5875 1.5875,-1.5875 0.89555,0 1.5875,0.69194 1.5875,1.5875 v 8.20208 h 3.175 v -8.20208 c 0,-0.89556 0.69195,-1.5875 1.5875,-1.5875 0.89555,0 1.5875,0.69194 1.5875,1.5875 v 8.20208 c 0,1.77231 -1.40269,3.175 -3.175,3.175 h -9.525 c -1.77231,0 -3.175,-1.40269 -3.175,-3.175 v -15.875 z"
         id="path4193-92"
         sodipodi:nodetypes="csssssscssccsssccssssssscc" />
    </g>
    <g
       id="layer3-5-2"
       transform="matrix(0.13229165,0,0,0.13229165,296.33334,110.06667)">
      <path
         id="path40-3-2"
         style="fill:none;stroke:#4caf50;stroke-width:24;stroke-miterlimit:4;stroke-dasharray:none;stroke-opacity:1"
         d="m 256,128 c 0,32.64694 0,128 0,128 0,0 -89.95449,0 -128,0 C 57.307552,256 0,198.69245 0,128 0,92.504104 0,0 0,0 0,0 92.803448,0 128,0 198.69245,0 256,57.307552 256,128 Z"
         sodipodi:nodetypes="scsscss"
         clip-path="url(#clipPath1223-23)" />
      <path
         style="color:#000000;fill:#4caf50;fill-opacity:1;stroke-width:0;-inkscape-stroke:none"
         d="m 44,44 v 120 c 0,26.3675 21.63249,48 48,48 h 72 c 26.3675,0 48,-21.6325 48,-48 v -62 c 0,-19.7401 -16.25991,-36 -36,-36 -9.22193,0 -17.60014,3.64514 -24,9.43946 C 145.60014,69.64514 137.22192,66 128,66 108.2599,66 92,82.2599 92,102 v 62 h 24 v -62 c 0,-6.76954 5.23046,-12 12,-12 6.76953,0 12,5.23046 12,12 v 62 h 24 v -62 c 0,-6.76954 5.23046,-12 12,-12 6.76953,0 12,5.23046 12,12 v 62 c 0,13.39696 -10.60304,24 -24,24 H 92 C 78.60303,188 68,177.39696 68,164 V 44 Z"
         id="path4193-8"
         sodipodi:nodetypes="csssssscssccsssccssssssscc" />
    </g>
    <text
       xml:space="preserve"
       style="font-size:16.9333px;line-height:1.25;font-family:'Roboto Mono';-inkscape-font-specification:'Roboto Mono';letter-spacing:0px;stroke-width:0.264583"
       x="3.1419294"
       y="218.02078"
       id="text92427"><tspan
         sodipodi:role="line"
         id="tspan92425"
         style="font-style:normal;font-variant:normal;font-weight:300;font-stretch:normal;font-size:16.9333px;font-family:Roboto;-inkscape-font-specification:'Roboto Light';stroke-width:0.264583"
         x="3.1419294"
         y="218.02078">Circle</tspan></text>
    <g
       id="layer3-73"
       transform="matrix(0.13229167,0,0,0.13229167,110.06667,194.73334)">
      <path
         id="path40-61"
         style="fill:#388e3c;stroke-width:0"
         d="M 256,256 H 0 V 0 h 256 z"
         sodipodi:nodetypes="ccccc"
         clip-path="url(#clipPath959)" />
      <path
         id="path1655-2"
         style="fill:#4caf50;stroke-width:0"
         d="M 256,0 V 256 L 0,0 Z"
         sodipodi:nodetypes="cccc"
         clip-path="url(#clipPath955)" />
      <path
         style="color:#000000;fill:#ffffff;stroke-width:0;-inkscape-stroke:none"
         d="m 44,44 v 120 c 0,26.3675 21.63249,48 48,48 h 72 c 26.3675,0 48,-21.6325 48,-48 v -62 c 0,-19.7401 -16.25991,-36 -36,-36 -9.22193,0 -17.60014,3.64514 -24,9.43946 C 145.60014,69.64514 137.22192,66 128,66 108.2599,66 92,82.2599 92,102 v 62 h 24 v -62 c 0,-6.76954 5.23046,-12 12,-12 6.76953,0 12,5.23046 12,12 v 62 h 24 v -62 c 0,-6.76954 5.23046,-12 12,-12 6.76953,0 12,5.23046 12,12 v 62 c 0,13.39696 -10.60304,24 -24,24 H 92 C 78.60303,188 68,177.39696 68,164 V 44 Z"
         id="path4193-93"
         sodipodi:nodetypes="csssssscssccsssccssssssscc"
         clip-path="url(#clipPath951)" />
    </g>
    <path
       id="path40-36"
       clip-path="url(#clipPath959-4)"
       style="fill:#ffffff;stroke-width:0"
       d="M 0,0 V 256 H 256 V 0 Z m 44,44 h 24 v 120 c 0,13.39696 10.60303,24 24,24 h 72 c 13.39696,0 24,-10.60304 24,-24 v -62 c 0,-6.76954 -5.23047,-12 -12,-12 -6.76954,0 -12,5.23046 -12,12 v 62 h -24 v -62 c 0,-6.76954 -5.23047,-12 -12,-12 -6.76954,0 -12,5.23046 -12,12 v 62 H 92 v -62 c 0,-19.7401 16.2599,-36 36,-36 9.22192,0 17.60014,3.645133 24,9.439453 C 158.39986,69.645133 166.77807,66 176,66 c 19.74009,0 36,16.2599 36,36 v 62 c 0,26.3675 -21.6325,48 -48,48 H 92 C 65.63249,212 44,190.3675 44,164 Z"
       transform="matrix(0.13229167,0,0,0.13229167,194.73334,194.73334)" />
    <path
       id="path40-55"
       clip-path="url(#clipPath959-0)"
       style="fill:#212121;fill-opacity:1;stroke-width:0"
       d="M 0,0 V 256 H 256 V 0 Z m 44,44 h 24 v 120 c 0,13.39696 10.60303,24 24,24 h 72 c 13.39696,0 24,-10.60304 24,-24 v -62 c 0,-6.76954 -5.23047,-12 -12,-12 -6.76954,0 -12,5.23046 -12,12 v 62 h -24 v -62 c 0,-6.76954 -5.23047,-12 -12,-12 -6.76954,0 -12,5.23046 -12,12 v 62 H 92 v -62 c 0,-19.7401 16.2599,-36 36,-36 9.22192,0 17.60014,3.645133 24,9.439453 C 158.39986,69.645133 166.77807,66 176,66 c 19.74009,0 36,16.2599 36,36 v 62 c 0,26.3675 -21.6325,48 -48,48 H 92 C 65.63249,212 44,190.3675 44,164 Z"
       transform="matrix(0.13229167,0,0,0.13229167,245.53334,194.73334)" />
    <path
       id="path40-52"
       clip-path="url(#clipPath959-3)"
       style="fill:#4caf50;fill-opacity:1;stroke-width:0"
       d="M 0,0 V 256 H 256 V 0 Z m 44,44 h 24 v 120 c 0,13.39696 10.60303,24 24,24 h 72 c 13.39696,0 24,-10.60304 24,-24 v -62 c 0,-6.76954 -5.23047,-12 -12,-12 -6.76954,0 -12,5.23046 -12,12 v 62 h -24 v -62 c 0,-6.76954 -5.23047,-12 -12,-12 -6.76954,0 -12,5.23046 -12,12 v 62 H 92 v -62 c 0,-19.7401 16.2599,-36 36,-36 9.22192,0 17.60014,3.645133 24,9.439453 C 158.39986,69.645133 166.77807,66 176,66 c 19.74009,0 36,16.2599 36,36 v 62 c 0,26.3675 -21.6325,48 -48,48 H 92 C 65.63249,212 44,190.3675 44,164 Z"
       transform="matrix(0.13229167,0,0,0.13229167,296.33334,194.73334)" />
    <g
       id="layer3-6"
       transform="matrix(0.13229167,0,0,0.13229167,347.13334,194.73334)">
      <path
         id="path40-8"
         style="fill:#43a047;stroke-width:0"
         d="M 256,256 H 0 V 0 h 256 z"
         sodipodi:nodetypes="ccccc"
         clip-path="url(#clipPath959-30)" />
      <path
         style="color:#000000;fill:#ffffff;stroke-width:0;-inkscape-stroke:none"
         d="m 44,44 v 120 c 0,26.3675 21.63249,48 48,48 h 72 c 26.3675,0 48,-21.6325 48,-48 v -62 c 0,-19.7401 -16.25991,-36 -36,-36 -9.22193,0 -17.60014,3.64514 -24,9.43946 C 145.60014,69.64514 137.22192,66 128,66 108.2599,66 92,82.2599 92,102 v 62 h 24 v -62 c 0,-6.76954 5.23046,-12 12,-12 6.76953,0 12,5.23046 12,12 v 62 h 24 v -62 c 0,-6.76954 5.23046,-12 12,-12 6.76953,0 12,5.23046 12,12 v 62 c 0,13.39696 -10.60304,24 -24,24 H 92 C 78.60303,188 68,177.39696 68,164 V 44 Z"
         id="path4193-84"
         sodipodi:nodetypes="csssssscssccsssccssssssscc"
         clip-path="url(#clipPath951-4)" />
    </g>
    <text
       xml:space="preserve"
       style="font-size:16.9333px;line-height:1.25;font-family:'Roboto Mono';-inkscape-font-specification:'Roboto Mono';letter-spacing:0px;stroke-width:0.264583"
       x="3.5057306"
       y="302.68747"
       id="text96430"><tspan
         sodipodi:role="line"
         id="tspan96428"
         style="font-style:normal;font-variant:normal;font-weight:300;font-stretch:normal;font-size:16.9333px;font-family:Roboto;-inkscape-font-specification:'Roboto Light';stroke-width:0.264583"
         x="3.5057306"
         y="302.68747">Square</tspan></text>
    <text
       xml:space="preserve"
       style="font-size:16.9333px;line-height:1.25;font-family:'Roboto Mono';-inkscape-font-specification:'Roboto Mono';letter-spacing:0px;stroke-width:0.264583"
       x="3.1419294"
       y="260.3541"
       id="text97427"><tspan
         sodipodi:role="line"
         id="tspan97425"
         style="font-style:normal;font-variant:normal;font-weight:300;font-stretch:normal;font-size:16.9333px;font-family:Roboto;-inkscape-font-specification:'Roboto Light';stroke-width:0.264583"
         x="3.1419294"
         y="260.3541">Circle (high)</tspan></text>
    <text
       xml:space="preserve"
       style="font-size:16.9333px;line-height:1.25;font-family:'Roboto Mono';-inkscape-font-specification:'Roboto Mono';letter-spacing:0px;stroke-width:0.264583"
       x="3.5057306"
       y="345.02075"
       id="text97451"><tspan
         sodipodi:role="line"
         id="tspan97449"
         style="font-style:normal;font-variant:normal;font-weight:300;font-stretch:normal;font-size:16.9333px;font-family:Roboto;-inkscape-font-specification:'Roboto Light';stroke-width:0.264583"
         x="3.5057306"
         y="345.02075">Square (high)</tspan></text>
    <text
       xml:space="preserve"
       style="font-size:16.9333px;line-height:1.25;font-family:'Roboto Mono';-inkscape-font-specification:'Roboto Mono';letter-spacing:0px;stroke-width:0.264583"
       x="3.5057306"
       y="175.68748"
       id="text106547"><tspan
         sodipodi:role="line"
         id="tspan106545"
         style="font-style:normal;font-variant:normal;font-weight:300;font-stretch:normal;font-size:16.9333px;font-family:Roboto;-inkscape-font-specification:'Roboto Light';stroke-width:0.264583"
         x="3.5057306"
         y="175.68748">Simple</tspan></text>
    <path
       style="color:#000000;fill:#ffffff;stroke-width:0;-inkscape-stroke:none"
       d="m 200.55417,158.22084 v 15.875 c 0,3.4882 2.8618,6.35 6.35,6.35 h 9.525 c 3.4882,0 6.35,-2.8618 6.35,-6.35 v -8.20208 c 0,-2.61145 -2.15105,-4.7625 -4.7625,-4.7625 -1.21998,0 -2.32835,0.48222 -3.175,1.24876 -0.84665,-0.76654 -1.95502,-1.24876 -3.175,-1.24876 -2.61145,0 -4.7625,2.15105 -4.7625,4.7625 v 8.20208 h 3.175 v -8.20208 c 0,-0.89556 0.69195,-1.5875 1.5875,-1.5875 0.89555,0 1.5875,0.69194 1.5875,1.5875 v 8.20208 h 3.175 v -8.20208 c 0,-0.89556 0.69195,-1.5875 1.5875,-1.5875 0.89555,0 1.5875,0.69194 1.5875,1.5875 v 8.20208 c 0,1.77231 -1.40269,3.175 -3.175,3.175 h -9.525 c -1.77231,0 -3.175,-1.40269 -3.175,-3.175 v -15.875 z"
       id="path4193-5"
       sodipodi:nodetypes="csssssscssccsssccssssssscc" />
    <path
       style="color:#000000;fill:#212121;fill-opacity:1;stroke-width:0;-inkscape-stroke:none"
       d="m 251.35416,158.22084 v 15.875 c 0,3.4882 2.8618,6.35 6.35,6.35 h 9.525 c 3.4882,0 6.35,-2.8618 6.35,-6.35 v -8.20208 c 0,-2.61145 -2.15105,-4.7625 -4.7625,-4.7625 -1.21998,0 -2.32835,0.48222 -3.175,1.24876 -0.84664,-0.76654 -1.95501,-1.24876 -3.175,-1.24876 -2.61145,0 -4.7625,2.15105 -4.7625,4.7625 v 8.20208 h 3.175 v -8.20208 c 0,-0.89556 0.69195,-1.5875 1.5875,-1.5875 0.89556,0 1.5875,0.69194 1.5875,1.5875 v 8.20208 h 3.175 v -8.20208 c 0,-0.89556 0.69195,-1.5875 1.5875,-1.5875 0.89556,0 1.5875,0.69194 1.5875,1.5875 v 8.20208 c 0,1.77231 -1.40269,3.175 -3.175,3.175 h -9.525 c -1.7723,0 -3.175,-1.40269 -3.175,-3.175 v -15.875 z"
       id="path4193-5-8"
       sodipodi:nodetypes="csssssscssccsssccssssssscc" />
    <path
       style="color:#000000;fill:#4caf50;fill-opacity:1;stroke-width:0;-inkscape-stroke:none"
       d="m 302.15417,158.22085 v 15.875 c 0,3.4882 2.8618,6.35 6.35,6.35 h 9.525 c 3.4882,0 6.35,-2.8618 6.35,-6.35 v -8.20209 c 0,-2.61145 -2.15105,-4.7625 -4.7625,-4.7625 -1.21998,0 -2.32835,0.48222 -3.175,1.24876 -0.84665,-0.76654 -1.95502,-1.24876 -3.175,-1.24876 -2.61145,0 -4.7625,2.15105 -4.7625,4.7625 v 8.20209 h 3.175 v -8.20209 c 0,-0.89555 0.69195,-1.5875 1.5875,-1.5875 0.89555,0 1.5875,0.69195 1.5875,1.5875 v 8.20209 h 3.175 v -8.20209 c 0,-0.89555 0.69195,-1.5875 1.5875,-1.5875 0.89555,0 1.5875,0.69195 1.5875,1.5875 v 8.20209 c 0,1.7723 -1.40269,3.175 -3.175,3.175 h -9.525 c -1.77231,0 -3.175,-1.4027 -3.175,-3.175 v -15.875 z"
       id="path4193-5-7"
       sodipodi:nodetypes="csssssscssccsssccssssssscc" />
    <text
       xml:space="preserve"
       style="font-size:16.9333px;line-height:1.25;font-family:'Roboto Mono';-inkscape-font-specification:'Roboto Mono';letter-spacing:0px;stroke-width:0.264583"
       x="3.9439459"
       y="385.23331"
       id="text108319"><tspan
         sodipodi:role="line"
         id="tspan108317"
         style="font-style:normal;font-variant:normal;font-weight:bold;font-stretch:normal;font-size:16.9333px;font-family:Roboto;-inkscape-font-specification:'Roboto Bold';stroke-width:0.264583"
         x="3.9439459"
         y="385.23331">With name</tspan></text>
    <g
       id="layer3-43"
       transform="matrix(0.13229167,0,0,0.13229167,110.06667,397.93334)">
      <g
         aria-label="linux mint"
         id="text3643"
         style="font-size:144px;line-height:1.25;font-family:'Roboto Mono';-inkscape-font-specification:'Roboto Mono'">
        <path
           d="m 338.06401,184.52 q -7.776,-0.144 -12.96,-1.728 -5.04,-1.584 -8.064,-4.464 -3.024,-3.024 -4.32,-7.344 -1.152,-4.464 -1.152,-10.08 V 74.216002 l 17.424,-2.88 V 157.592 q 0,3.168 0.432,5.328 0.576,2.16 1.872,3.744 1.296,1.44 3.456,2.304 2.304,0.72 5.76,1.152 z"
           style="font-weight:500;font-family:Ubuntu;-inkscape-font-specification:'Ubuntu Medium';fill:#ffffff"
           id="path827" />
        <path
           d="m 372.19186,183.08 h -17.424 v -75.312 h 17.424 z m 1.872,-97.343998 q 0,4.896 -3.168,7.776 -3.168,2.88 -7.488,2.88 -4.464,0 -7.632,-2.88 -3.168,-2.88 -3.168,-7.776 0,-5.04 3.168,-7.92 3.168,-2.88 7.632,-2.88 4.32,0 7.488,2.88 3.168,2.88 3.168,7.92 z"
           style="font-weight:500;font-family:Ubuntu;-inkscape-font-specification:'Ubuntu Medium';fill:#ffffff"
           id="path829" />
        <path
           d="m 394.36772,110.216 q 5.04,-1.44 13.104,-2.736 8.064,-1.296 17.856,-1.296 9.216,0 15.408,2.592 6.192,2.448 9.792,7.056 3.744,4.464 5.184,10.944 1.584,6.336 1.584,13.968 v 42.336 h -17.424 v -39.6 q 0,-6.048 -0.864,-10.224 -0.72,-4.32 -2.592,-6.912 -1.728,-2.736 -4.896,-3.888 -3.024,-1.296 -7.488,-1.296 -3.312,0 -6.912,0.432 -3.6,0.432 -5.328,0.72 v 60.768 h -17.424 z"
           style="font-weight:500;font-family:Ubuntu;-inkscape-font-specification:'Ubuntu Medium';fill:#ffffff"
           id="path831" />
        <path
           d="m 540.38359,180.776 q -5.04,1.296 -13.104,2.592 -8.064,1.44 -17.712,1.44 -9.072,0 -15.264,-2.592 -6.048,-2.592 -9.792,-7.2 -3.6,-4.608 -5.184,-10.944 -1.584,-6.48 -1.584,-14.112 v -42.192 h 17.424 v 39.456 q 0,12.096 3.456,17.28 3.6,5.184 12.384,5.184 3.168,0 6.624,-0.288 3.6,-0.288 5.328,-0.72 v -60.912 h 17.424 z"
           style="font-weight:500;font-family:Ubuntu;-inkscape-font-specification:'Ubuntu Medium';fill:#ffffff"
           id="path833" />
        <path
           d="m 589.63134,132.392 15.984,-24.624 h 18.288 l -24.768,35.568 q 7.776,10.08 14.832,20.448 7.2,10.224 11.808,19.296 h -18.864 q -1.296,-2.736 -3.456,-6.192 -2.016,-3.6 -4.464,-7.344 -2.304,-3.888 -4.896,-7.632 -2.592,-3.744 -5.04,-7.056 -5.04,6.48 -9.936,14.4 -4.752,7.776 -7.92,13.824 h -17.856 q 2.16,-4.32 5.184,-9.216 3.024,-4.896 6.48,-9.936 3.456,-5.184 7.056,-10.224 3.744,-5.184 7.344,-9.792 l -24.912,-36.144 h 19.152 z"
           style="font-weight:500;font-family:Ubuntu;-inkscape-font-specification:'Ubuntu Medium';fill:#ffffff"
           id="path835" />
        <path
           d="m 715.19922,143.48 q 0,-11.808 -3.024,-16.992 -2.88,-5.328 -10.944,-5.328 -2.88,0 -6.336,0.432 -3.456,0.432 -5.184,0.72 v 60.768 h -17.424 v -72.864 q 5.04,-1.44 13.104,-2.736 8.208,-1.296 17.28,-1.296 7.776,0 12.672,2.016 5.04,2.016 8.352,5.328 1.584,-1.152 4.032,-2.448 2.448,-1.296 5.472,-2.304 3.024,-1.152 6.336,-1.872 3.456,-0.72 6.912,-0.72 8.784,0 14.4,2.592 5.76,2.448 8.928,7.056 3.312,4.464 4.464,10.944 1.296,6.336 1.296,13.968 v 42.336 h -17.424 v -39.6 q 0,-11.808 -2.88,-16.992 -2.88,-5.328 -11.088,-5.328 -4.176,0 -7.92,1.44 -3.744,1.296 -5.616,2.592 1.152,3.6 1.584,7.632 0.432,4.032 0.432,8.64 v 41.616 h -17.424 z"
           style="font-weight:500;font-family:Ubuntu;-inkscape-font-specification:'Ubuntu Medium';fill:#ffffff"
           id="path837" />
        <path
           d="m 814.41519,183.08 h -17.424 v -75.312 h 17.424 z m 1.872,-97.343998 q 0,4.896 -3.168,7.776 -3.168,2.88 -7.488,2.88 -4.464,0 -7.632,-2.88 -3.168,-2.88 -3.168,-7.776 0,-5.04 3.168,-7.92 3.168,-2.88 7.632,-2.88 4.32,0 7.488,2.88 3.168,2.88 3.168,7.92 z"
           style="font-weight:500;font-family:Ubuntu;-inkscape-font-specification:'Ubuntu Medium';fill:#ffffff"
           id="path839" />
        <path
           d="m 836.59105,110.216 q 5.04,-1.44 13.104,-2.736 8.064,-1.296 17.856,-1.296 9.216,0 15.408,2.592 6.192,2.448 9.792,7.056 3.744,4.464 5.184,10.944 1.584,6.336 1.584,13.968 v 42.336 h -17.424 v -39.6 q 0,-6.048 -0.864,-10.224 -0.72,-4.32 -2.592,-6.912 -1.728,-2.736 -4.896,-3.888 -3.024,-1.296 -7.488,-1.296 -3.312,0 -6.912,0.432 -3.6,0.432 -5.328,0.72 v 60.768 h -17.424 z"
           style="font-weight:500;font-family:Ubuntu;-inkscape-font-specification:'Ubuntu Medium';fill:#ffffff"
           id="path841" />
        <path
           d="m 919.96692,87.896002 17.424,-2.88 V 107.768 h 26.784 v 14.544 h -26.784 v 30.672 q 0,9.072 2.88,12.96 2.88,3.888 9.792,3.888 4.752,0 8.352,-1.008 3.744,-1.008 5.904,-1.872 l 2.88,13.824 q -3.024,1.296 -7.92,2.592 -4.896,1.44 -11.52,1.44 -8.064,0 -13.536,-2.16 -5.328,-2.16 -8.496,-6.192 -3.168,-4.176 -4.464,-9.936 -1.296,-5.904 -1.296,-13.392 z"
           style="font-weight:500;font-family:Ubuntu;-inkscape-font-specification:'Ubuntu Medium';fill:#ffffff"
           id="path843" />
      </g>
      <g
         id="layer3-5-0"
         transform="translate(282.18574,-295.51225)">
        <path
           id="path40-3-3"
           style="fill:#388e3c;stroke-width:0"
           d="m -26.18574,423.51225 c 0,32.64694 0,128 0,128 0,0 -89.95449,0 -128,0 -70.69245,0 -128,-57.30755 -128,-128 0,-35.4959 0,-128 0,-128 0,0 92.80345,0 128,0 70.69245,0 128,57.30755 128,128 z"
           sodipodi:nodetypes="scsscss" />
        <path
           id="path1655-5"
           style="fill:#4caf50;stroke-width:0"
           d="m -26.18574,423.51225 v 128 l -256,-256 h 128 c 70.69245,0 128,57.30755 128,128 z"
           sodipodi:nodetypes="sccss" />
        <path
           style="color:#000000;fill:#ffffff;stroke-width:0;-inkscape-stroke:none"
           d="m -238.18574,339.51225 v 120 c 0,26.3675 21.63249,48 48,48 h 72 c 26.3675,0 48,-21.6325 48,-48 v -62 c 0,-19.7401 -16.25991,-36 -36,-36 -9.22193,0 -17.60014,3.64514 -24,9.43946 -6.39986,-5.79432 -14.77808,-9.43946 -24,-9.43946 -19.7401,0 -36,16.2599 -36,36 v 62 h 24 v -62 c 0,-6.76954 5.23046,-12 12,-12 6.76953,0 12,5.23046 12,12 v 62 h 24 v -62 c 0,-6.76954 5.23046,-12 12,-12 6.76953,0 12,5.23046 12,12 v 62 c 0,13.39696 -10.60304,24 -24,24 h -72 c -13.39697,0 -24,-10.60304 -24,-24 v -120 z"
           id="path4193-6"
           sodipodi:nodetypes="csssssscssccsssccssssssscc" />
      </g>
    </g>
    <g
       id="layer3-9"
       transform="matrix(0.13229167,0,0,0.13229167,245.53333,397.93334)">
      <g
         aria-label="linux mint"
         id="text3643-2"
         style="font-size:144px;line-height:1.25;font-family:'Roboto Mono';-inkscape-font-specification:'Roboto Mono';fill:#212121">
        <path
           d="m 338.06401,184.52 q -7.776,-0.144 -12.96,-1.728 -5.04,-1.584 -8.064,-4.464 -3.024,-3.024 -4.32,-7.344 -1.152,-4.464 -1.152,-10.08 V 74.216002 l 17.424,-2.88 V 157.592 q 0,3.168 0.432,5.328 0.576,2.16 1.872,3.744 1.296,1.44 3.456,2.304 2.304,0.72 5.76,1.152 z"
           style="font-weight:500;font-family:Ubuntu;-inkscape-font-specification:'Ubuntu Medium'"
           id="path827-5" />
        <path
           d="m 372.19186,183.08 h -17.424 v -75.312 h 17.424 z m 1.872,-97.343998 q 0,4.896 -3.168,7.776 -3.168,2.88 -7.488,2.88 -4.464,0 -7.632,-2.88 -3.168,-2.88 -3.168,-7.776 0,-5.04 3.168,-7.92 3.168,-2.88 7.632,-2.88 4.32,0 7.488,2.88 3.168,2.88 3.168,7.92 z"
           style="font-weight:500;font-family:Ubuntu;-inkscape-font-specification:'Ubuntu Medium'"
           id="path829-4" />
        <path
           d="m 394.36772,110.216 q 5.04,-1.44 13.104,-2.736 8.064,-1.296 17.856,-1.296 9.216,0 15.408,2.592 6.192,2.448 9.792,7.056 3.744,4.464 5.184,10.944 1.584,6.336 1.584,13.968 v 42.336 h -17.424 v -39.6 q 0,-6.048 -0.864,-10.224 -0.72,-4.32 -2.592,-6.912 -1.728,-2.736 -4.896,-3.888 -3.024,-1.296 -7.488,-1.296 -3.312,0 -6.912,0.432 -3.6,0.432 -5.328,0.72 v 60.768 h -17.424 z"
           style="font-weight:500;font-family:Ubuntu;-inkscape-font-specification:'Ubuntu Medium'"
           id="path831-0" />
        <path
           d="m 540.38359,180.776 q -5.04,1.296 -13.104,2.592 -8.064,1.44 -17.712,1.44 -9.072,0 -15.264,-2.592 -6.048,-2.592 -9.792,-7.2 -3.6,-4.608 -5.184,-10.944 -1.584,-6.48 -1.584,-14.112 v -42.192 h 17.424 v 39.456 q 0,12.096 3.456,17.28 3.6,5.184 12.384,5.184 3.168,0 6.624,-0.288 3.6,-0.288 5.328,-0.72 v -60.912 h 17.424 z"
           style="font-weight:500;font-family:Ubuntu;-inkscape-font-specification:'Ubuntu Medium'"
           id="path833-5" />
        <path
           d="m 589.63134,132.392 15.984,-24.624 h 18.288 l -24.768,35.568 q 7.776,10.08 14.832,20.448 7.2,10.224 11.808,19.296 h -18.864 q -1.296,-2.736 -3.456,-6.192 -2.016,-3.6 -4.464,-7.344 -2.304,-3.888 -4.896,-7.632 -2.592,-3.744 -5.04,-7.056 -5.04,6.48 -9.936,14.4 -4.752,7.776 -7.92,13.824 h -17.856 q 2.16,-4.32 5.184,-9.216 3.024,-4.896 6.48,-9.936 3.456,-5.184 7.056,-10.224 3.744,-5.184 7.344,-9.792 l -24.912,-36.144 h 19.152 z"
           style="font-weight:500;font-family:Ubuntu;-inkscape-font-specification:'Ubuntu Medium'"
           id="path835-9" />
        <path
           d="m 715.19922,143.48 q 0,-11.808 -3.024,-16.992 -2.88,-5.328 -10.944,-5.328 -2.88,0 -6.336,0.432 -3.456,0.432 -5.184,0.72 v 60.768 h -17.424 v -72.864 q 5.04,-1.44 13.104,-2.736 8.208,-1.296 17.28,-1.296 7.776,0 12.672,2.016 5.04,2.016 8.352,5.328 1.584,-1.152 4.032,-2.448 2.448,-1.296 5.472,-2.304 3.024,-1.152 6.336,-1.872 3.456,-0.72 6.912,-0.72 8.784,0 14.4,2.592 5.76,2.448 8.928,7.056 3.312,4.464 4.464,10.944 1.296,6.336 1.296,13.968 v 42.336 h -17.424 v -39.6 q 0,-11.808 -2.88,-16.992 -2.88,-5.328 -11.088,-5.328 -4.176,0 -7.92,1.44 -3.744,1.296 -5.616,2.592 1.152,3.6 1.584,7.632 0.432,4.032 0.432,8.64 v 41.616 h -17.424 z"
           style="font-weight:500;font-family:Ubuntu;-inkscape-font-specification:'Ubuntu Medium'"
           id="path837-4" />
        <path
           d="m 814.41519,183.08 h -17.424 v -75.312 h 17.424 z m 1.872,-97.343998 q 0,4.896 -3.168,7.776 -3.168,2.88 -7.488,2.88 -4.464,0 -7.632,-2.88 -3.168,-2.88 -3.168,-7.776 0,-5.04 3.168,-7.92 3.168,-2.88 7.632,-2.88 4.32,0 7.488,2.88 3.168,2.88 3.168,7.92 z"
           style="font-weight:500;font-family:Ubuntu;-inkscape-font-specification:'Ubuntu Medium'"
           id="path839-6" />
        <path
           d="m 836.59105,110.216 q 5.04,-1.44 13.104,-2.736 8.064,-1.296 17.856,-1.296 9.216,0 15.408,2.592 6.192,2.448 9.792,7.056 3.744,4.464 5.184,10.944 1.584,6.336 1.584,13.968 v 42.336 h -17.424 v -39.6 q 0,-6.048 -0.864,-10.224 -0.72,-4.32 -2.592,-6.912 -1.728,-2.736 -4.896,-3.888 -3.024,-1.296 -7.488,-1.296 -3.312,0 -6.912,0.432 -3.6,0.432 -5.328,0.72 v 60.768 h -17.424 z"
           style="font-weight:500;font-family:Ubuntu;-inkscape-font-specification:'Ubuntu Medium'"
           id="path841-9" />
        <path
           d="m 919.96692,87.896002 17.424,-2.88 V 107.768 h 26.784 v 14.544 h -26.784 v 30.672 q 0,9.072 2.88,12.96 2.88,3.888 9.792,3.888 4.752,0 8.352,-1.008 3.744,-1.008 5.904,-1.872 l 2.88,13.824 q -3.024,1.296 -7.92,2.592 -4.896,1.44 -11.52,1.44 -8.064,0 -13.536,-2.16 -5.328,-2.16 -8.496,-6.192 -3.168,-4.176 -4.464,-9.936 -1.296,-5.904 -1.296,-13.392 z"
           style="font-weight:500;font-family:Ubuntu;-inkscape-font-specification:'Ubuntu Medium'"
           id="path843-2" />
      </g>
      <g
         id="layer3-5-24"
         transform="translate(282.18574,-295.51225)">
        <path
           id="path40-3-77"
           style="fill:#388e3c;stroke-width:0"
           d="m -26.18574,423.51225 c 0,32.64694 0,128 0,128 0,0 -89.95449,0 -128,0 -70.69245,0 -128,-57.30755 -128,-128 0,-35.4959 0,-128 0,-128 0,0 92.80345,0 128,0 70.69245,0 128,57.30755 128,128 z"
           sodipodi:nodetypes="scsscss" />
        <path
           id="path1655-5-5"
           style="fill:#4caf50;stroke-width:0"
           d="m -26.18574,423.51225 v 128 l -256,-256 h 128 c 70.69245,0 128,57.30755 128,128 z"
           sodipodi:nodetypes="sccss" />
        <path
           style="color:#000000;fill:#ffffff;stroke-width:0;-inkscape-stroke:none"
           d="m -238.18574,339.51225 v 120 c 0,26.3675 21.63249,48 48,48 h 72 c 26.3675,0 48,-21.6325 48,-48 v -62 c 0,-19.7401 -16.25991,-36 -36,-36 -9.22193,0 -17.60014,3.64514 -24,9.43946 -6.39986,-5.79432 -14.77808,-9.43946 -24,-9.43946 -19.7401,0 -36,16.2599 -36,36 v 62 h 24 v -62 c 0,-6.76954 5.23046,-12 12,-12 6.76953,0 12,5.23046 12,12 v 62 h 24 v -62 c 0,-6.76954 5.23046,-12 12,-12 6.76953,0 12,5.23046 12,12 v 62 c 0,13.39696 -10.60304,24 -24,24 h -72 c -13.39697,0 -24,-10.60304 -24,-24 v -120 z"
           id="path4193-6-4"
           sodipodi:nodetypes="csssssscssccsssccssssssscc" />
      </g>
    </g>
    <g
       id="layer3-12"
       transform="matrix(0.13229167,0,0,0.13229167,381,397.93334)">
      <g
         aria-label="linux mint"
         id="text3643-8"
         style="font-size:144px;line-height:1.25;font-family:'Roboto Mono';-inkscape-font-specification:'Roboto Mono';fill:#4caf50">
        <path
           d="m 338.06401,184.52 q -7.776,-0.144 -12.96,-1.728 -5.04,-1.584 -8.064,-4.464 -3.024,-3.024 -4.32,-7.344 -1.152,-4.464 -1.152,-10.08 V 74.216002 l 17.424,-2.88 V 157.592 q 0,3.168 0.432,5.328 0.576,2.16 1.872,3.744 1.296,1.44 3.456,2.304 2.304,0.72 5.76,1.152 z"
           style="font-weight:500;font-family:Ubuntu;-inkscape-font-specification:'Ubuntu Medium'"
           id="path827-9" />
        <path
           d="m 372.19186,183.08 h -17.424 v -75.312 h 17.424 z m 1.872,-97.343998 q 0,4.896 -3.168,7.776 -3.168,2.88 -7.488,2.88 -4.464,0 -7.632,-2.88 -3.168,-2.88 -3.168,-7.776 0,-5.04 3.168,-7.92 3.168,-2.88 7.632,-2.88 4.32,0 7.488,2.88 3.168,2.88 3.168,7.92 z"
           style="font-weight:500;font-family:Ubuntu;-inkscape-font-specification:'Ubuntu Medium'"
           id="path829-3" />
        <path
           d="m 394.36772,110.216 q 5.04,-1.44 13.104,-2.736 8.064,-1.296 17.856,-1.296 9.216,0 15.408,2.592 6.192,2.448 9.792,7.056 3.744,4.464 5.184,10.944 1.584,6.336 1.584,13.968 v 42.336 h -17.424 v -39.6 q 0,-6.048 -0.864,-10.224 -0.72,-4.32 -2.592,-6.912 -1.728,-2.736 -4.896,-3.888 -3.024,-1.296 -7.488,-1.296 -3.312,0 -6.912,0.432 -3.6,0.432 -5.328,0.72 v 60.768 h -17.424 z"
           style="font-weight:500;font-family:Ubuntu;-inkscape-font-specification:'Ubuntu Medium'"
           id="path831-6" />
        <path
           d="m 540.38359,180.776 q -5.04,1.296 -13.104,2.592 -8.064,1.44 -17.712,1.44 -9.072,0 -15.264,-2.592 -6.048,-2.592 -9.792,-7.2 -3.6,-4.608 -5.184,-10.944 -1.584,-6.48 -1.584,-14.112 v -42.192 h 17.424 v 39.456 q 0,12.096 3.456,17.28 3.6,5.184 12.384,5.184 3.168,0 6.624,-0.288 3.6,-0.288 5.328,-0.72 v -60.912 h 17.424 z"
           style="font-weight:500;font-family:Ubuntu;-inkscape-font-specification:'Ubuntu Medium'"
           id="path833-8" />
        <path
           d="m 589.63134,132.392 15.984,-24.624 h 18.288 l -24.768,35.568 q 7.776,10.08 14.832,20.448 7.2,10.224 11.808,19.296 h -18.864 q -1.296,-2.736 -3.456,-6.192 -2.016,-3.6 -4.464,-7.344 -2.304,-3.888 -4.896,-7.632 -2.592,-3.744 -5.04,-7.056 -5.04,6.48 -9.936,14.4 -4.752,7.776 -7.92,13.824 h -17.856 q 2.16,-4.32 5.184,-9.216 3.024,-4.896 6.48,-9.936 3.456,-5.184 7.056,-10.224 3.744,-5.184 7.344,-9.792 l -24.912,-36.144 h 19.152 z"
           style="font-weight:500;font-family:Ubuntu;-inkscape-font-specification:'Ubuntu Medium'"
           id="path835-0" />
        <path
           d="m 715.19922,143.48 q 0,-11.808 -3.024,-16.992 -2.88,-5.328 -10.944,-5.328 -2.88,0 -6.336,0.432 -3.456,0.432 -5.184,0.72 v 60.768 h -17.424 v -72.864 q 5.04,-1.44 13.104,-2.736 8.208,-1.296 17.28,-1.296 7.776,0 12.672,2.016 5.04,2.016 8.352,5.328 1.584,-1.152 4.032,-2.448 2.448,-1.296 5.472,-2.304 3.024,-1.152 6.336,-1.872 3.456,-0.72 6.912,-0.72 8.784,0 14.4,2.592 5.76,2.448 8.928,7.056 3.312,4.464 4.464,10.944 1.296,6.336 1.296,13.968 v 42.336 h -17.424 v -39.6 q 0,-11.808 -2.88,-16.992 -2.88,-5.328 -11.088,-5.328 -4.176,0 -7.92,1.44 -3.744,1.296 -5.616,2.592 1.152,3.6 1.584,7.632 0.432,4.032 0.432,8.64 v 41.616 h -17.424 z"
           style="font-weight:500;font-family:Ubuntu;-inkscape-font-specification:'Ubuntu Medium'"
           id="path837-2" />
        <path
           d="m 814.41519,183.08 h -17.424 v -75.312 h 17.424 z m 1.872,-97.343998 q 0,4.896 -3.168,7.776 -3.168,2.88 -7.488,2.88 -4.464,0 -7.632,-2.88 -3.168,-2.88 -3.168,-7.776 0,-5.04 3.168,-7.92 3.168,-2.88 7.632,-2.88 4.32,0 7.488,2.88 3.168,2.88 3.168,7.92 z"
           style="font-weight:500;font-family:Ubuntu;-inkscape-font-specification:'Ubuntu Medium'"
           id="path839-1" />
        <path
           d="m 836.59105,110.216 q 5.04,-1.44 13.104,-2.736 8.064,-1.296 17.856,-1.296 9.216,0 15.408,2.592 6.192,2.448 9.792,7.056 3.744,4.464 5.184,10.944 1.584,6.336 1.584,13.968 v 42.336 h -17.424 v -39.6 q 0,-6.048 -0.864,-10.224 -0.72,-4.32 -2.592,-6.912 -1.728,-2.736 -4.896,-3.888 -3.024,-1.296 -7.488,-1.296 -3.312,0 -6.912,0.432 -3.6,0.432 -5.328,0.72 v 60.768 h -17.424 z"
           style="font-weight:500;font-family:Ubuntu;-inkscape-font-specification:'Ubuntu Medium'"
           id="path841-0" />
        <path
           d="m 919.96692,87.896002 17.424,-2.88 V 107.768 h 26.784 v 14.544 h -26.784 v 30.672 q 0,9.072 2.88,12.96 2.88,3.888 9.792,3.888 4.752,0 8.352,-1.008 3.744,-1.008 5.904,-1.872 l 2.88,13.824 q -3.024,1.296 -7.92,2.592 -4.896,1.44 -11.52,1.44 -8.064,0 -13.536,-2.16 -5.328,-2.16 -8.496,-6.192 -3.168,-4.176 -4.464,-9.936 -1.296,-5.904 -1.296,-13.392 z"
           style="font-weight:500;font-family:Ubuntu;-inkscape-font-specification:'Ubuntu Medium'"
           id="path843-5" />
      </g>
      <g
         id="layer3-5-1"
         transform="translate(282.18574,-295.51225)">
        <path
           id="path40-3-1"
           style="fill:#388e3c;stroke-width:0"
           d="m -26.18574,423.51225 c 0,32.64694 0,128 0,128 0,0 -89.95449,0 -128,0 -70.69245,0 -128,-57.30755 -128,-128 0,-35.4959 0,-128 0,-128 0,0 92.80345,0 128,0 70.69245,0 128,57.30755 128,128 z"
           sodipodi:nodetypes="scsscss" />
        <path
           id="path1655-5-0"
           style="fill:#4caf50;stroke-width:0"
           d="m -26.18574,423.51225 v 128 l -256,-256 h 128 c 70.69245,0 128,57.30755 128,128 z"
           sodipodi:nodetypes="sccss" />
        <path
           style="color:#000000;fill:#ffffff;stroke-width:0;-inkscape-stroke:none"
           d="m -238.18574,339.51225 v 120 c 0,26.3675 21.63249,48 48,48 h 72 c 26.3675,0 48,-21.6325 48,-48 v -62 c 0,-19.7401 -16.25991,-36 -36,-36 -9.22193,0 -17.60014,3.64514 -24,9.43946 -6.39986,-5.79432 -14.77808,-9.43946 -24,-9.43946 -19.7401,0 -36,16.2599 -36,36 v 62 h 24 v -62 c 0,-6.76954 5.23046,-12 12,-12 6.76953,0 12,5.23046 12,12 v 62 h 24 v -62 c 0,-6.76954 5.23046,-12 12,-12 6.76953,0 12,5.23046 12,12 v 62 c 0,13.39696 -10.60304,24 -24,24 h -72 c -13.39697,0 -24,-10.60304 -24,-24 v -120 z"
           id="path4193-6-8"
           sodipodi:nodetypes="csssssscssccsssccssssssscc" />
      </g>
    </g>
    <text
       xml:space="preserve"
       style="font-size:16.9333px;line-height:1.25;font-family:'Roboto Mono';-inkscape-font-specification:'Roboto Mono';letter-spacing:0px;stroke-width:0.264583"
       x="2.7037139"
       y="419.67465"
       id="text110413"><tspan
         sodipodi:role="line"
         id="tspan110411"
         style="font-style:normal;font-variant:normal;font-weight:300;font-stretch:normal;font-size:16.9333px;font-family:Roboto;-inkscape-font-specification:'Roboto Light';stroke-width:0.264583"
         x="2.7037139"
         y="419.67465">Full colour</tspan></text>
    <text
       xml:space="preserve"
       style="font-size:16.9333px;line-height:1.25;font-family:'Roboto Mono';-inkscape-font-specification:'Roboto Mono';letter-spacing:0px;stroke-width:0.264583"
       x="3.5057306"
       y="462.008"
       id="text111719"><tspan
         sodipodi:role="line"
         id="tspan111717"
         style="font-style:normal;font-variant:normal;font-weight:300;font-stretch:normal;font-size:16.9333px;font-family:Roboto;-inkscape-font-specification:'Roboto Light';stroke-width:0.264583"
         x="3.5057306"
         y="462.008">Single colour</tspan></text>
  </g>
  <metadata
     id="metadata2277">
    <rdf:RDF />
  </metadata>
  <inkscape:templateinfo>
    <inkscape:name>HD</inkscape:name>
    <inkscape:date>2022-02-13</inkscape:date>
  </inkscape:templateinfo>
</svg>
