<?xml version="1.0" encoding="UTF-8" standalone="no"?>
<!-- Created with Inkscape (http://www.inkscape.org/) -->

<svg
   width="7680"
   height="4320"
   viewBox="0 0 2032.0002 1143"
   version="1.1"
   id="svg5"
   inkscape:version="1.1.1 (3bf5ae0d25, 2021-09-20)"
   sodipodi:docname="wallpaper5.svg"
   xmlns:inkscape="http://www.inkscape.org/namespaces/inkscape"
   xmlns:sodipodi="http://sodipodi.sourceforge.net/DTD/sodipodi-0.dtd"
   xmlns:xlink="http://www.w3.org/1999/xlink"
   xmlns="http://www.w3.org/2000/svg"
   xmlns:svg="http://www.w3.org/2000/svg"
   xmlns:rdf="http://www.w3.org/1999/02/22-rdf-syntax-ns#">
  <sodipodi:namedview
     id="namedview7"
     pagecolor="#ffffff"
     bordercolor="#000000"
     borderopacity="1"
     inkscape:pageshadow="0"
     inkscape:pageopacity="0"
     inkscape:pagecheckerboard="true"
     inkscape:document-units="mm"
     showgrid="false"
     borderlayer="false"
     inkscape:showpageshadow="true"
     units="px"
     inkscape:zoom="0.088388348"
     inkscape:cx="3150.8678"
     inkscape:cy="3060.3581"
     inkscape:current-layer="layer1">
    <inkscape:grid
       type="xygrid"
       id="grid822" />
  </sodipodi:namedview>
  <defs
     id="defs2">
    <linearGradient
       inkscape:collect="always"
       id="linearGradient10589">
      <stop
         style="stop-color:#a5d6a7;stop-opacity:0.5"
         offset="0"
         id="stop10585" />
      <stop
         style="stop-color:#4caf50;stop-opacity:0"
         offset="1"
         id="stop10587" />
    </linearGradient>
    <linearGradient
       inkscape:collect="always"
       id="linearGradient6564-3">
      <stop
         style="stop-color:#a5d6a7;stop-opacity:1"
         offset="0"
         id="stop6560" />
      <stop
         style="stop-color:#4caf50;stop-opacity:1"
         offset="1"
         id="stop6562" />
    </linearGradient>
    <linearGradient
       inkscape:collect="always"
       xlink:href="#linearGradient6564-3"
       id="linearGradient6566"
       x1="0"
       y1="0"
       x2="0"
       y2="1143"
       gradientUnits="userSpaceOnUse" />
    <linearGradient
       inkscape:collect="always"
       xlink:href="#linearGradient10589"
       id="linearGradient10054"
       x1="-2.3632813e-06"
       y1="1143"
       x2="-2.3632813e-06"
       y2="-3.9843751e-05"
       gradientUnits="userSpaceOnUse"
       gradientTransform="translate(2.3632813e-6,3.984375e-5)" />
    <clipPath
       clipPathUnits="userSpaceOnUse"
       id="clipPath1223">
      <path
         id="path1225"
         style="fill:none;stroke:#ffffff;stroke-width:0;stroke-miterlimit:4;stroke-dasharray:none"
         d="m 256,128 c 0,32.64694 0,128 0,128 0,0 -89.95449,0 -128,0 C 57.307552,256 0,198.69245 0,128 0,92.504104 0,0 0,0 0,0 92.803448,0 128,0 198.69245,0 256,57.307552 256,128 Z"
         sodipodi:nodetypes="scsscss" />
    </clipPath>
  </defs>
  <g
     inkscape:label="Strat 1"
     inkscape:groupmode="layer"
     id="layer1">
    <rect
       style="fill:url(#linearGradient6566);fill-opacity:1;stroke:none;stroke-width:3.55974;stroke-linecap:round;paint-order:markers fill stroke"
       id="rect6478"
       width="2032"
       height="1143"
       x="0"
       y="0" />
    <path
       id="path9208"
       style="fill:#388e3c;fill-opacity:0.25;stroke-width:2.91499;stroke-linecap:round;paint-order:markers fill stroke"
       d="m -139.00115,616.00787 c 25.16404,173.6155 63.091139,338.12092 105.437746,457.32683 42.3466076,119.2059 120.367033,178.3151 120.367033,178.3151 0,0 58.027651,-78.8282 64.786901,-205.1514 C 158.34981,920.17482 148.0101,751.67089 122.84604,578.05541 97.681971,404.43993 59.754882,239.93457 17.408277,120.72862 -24.938339,1.5226936 -102.95875,-57.586298 -102.95875,-57.586298 c 0,0 -58.02763,78.827986 -64.78689,205.151388 -6.75927,126.32343 3.58043,294.82731 28.74449,468.44278 z"
       sodipodi:nodetypes="sscssscss" />
    <path
       id="path9216"
       style="fill:#388e3c;fill-opacity:0.25;stroke-width:2.91499;stroke-linecap:round;paint-order:markers fill stroke"
       d="m -51.016482,423.26637 c -34.21023,172.06171 -53.349038,339.79424 -53.206098,466.29821 0.14294,126.50402 53.968168,208.25932 53.968168,208.25932 0,0 81.005276,-54.9476 129.528658,-171.77532 48.523534,-116.82809 95.002834,-279.1246 129.213034,-451.1863 34.2102,-172.0617 53.349,-339.79417 53.20608,-466.298224 -0.14294,-126.504026 -53.96823,-208.259116 -53.96823,-208.259116 0,0 -81.00519,54.94741 -129.528647,171.775326 C 29.673005,88.908216 -16.806282,251.20468 -51.016482,423.26637 Z"
       sodipodi:nodetypes="sscssscss" />
    <path
       id="path9218"
       style="fill:#388e3c;fill-opacity:0.25;stroke-width:2.91499;stroke-linecap:round;paint-order:markers fill stroke"
       d="m 291.67541,564.96921 c 17.31786,174.5728 20.05667,343.37148 7.6139,469.26219 -12.44276,125.8906 -73.96234,202.0249 -73.96234,202.0249 0,0 -75.27865,-62.5637 -112.21248,-183.556 C 76.180559,931.70766 45.702251,765.66081 28.384414,591.08802 11.066577,416.51523 8.3277768,247.71661 20.770524,121.82588 33.213288,-4.0648076 94.73291,-80.198852 94.73291,-80.198852 c 0,0 75.27859,62.563508 112.21247,183.555972 36.93388,120.9925 67.41219,287.03931 84.73003,461.61209 z"
       sodipodi:nodetypes="sscssscss" />
    <path
       id="path9222"
       style="fill:#388e3c;fill-opacity:0.25;stroke-width:2.91499;stroke-linecap:round;paint-order:markers fill stroke"
       d="m 484.83888,519.15318 c 33.34402,172.23166 51.63862,340.05837 50.85914,466.56 -0.77944,126.50172 -55.01537,207.98512 -55.01537,207.98512 0,0 -80.72777,-55.3545 -128.66272,-172.425 C 304.08488,904.20267 258.42279,741.67434 225.0788,569.44268 191.73479,397.21103 173.44022,229.38438 174.21965,102.88264 c 0.77947,-126.501705 55.01544,-207.98493 55.01544,-207.98493 0,0 80.72769,55.354313 128.6627,172.4249 47.935,117.07063 93.59708,279.59892 126.94109,451.83057 z"
       sodipodi:nodetypes="sscssscss" />
    <path
       id="path9224"
       style="fill:#388e3c;fill-opacity:0.25;stroke-width:2.91499;stroke-linecap:round;paint-order:markers fill stroke"
       d="m 556.52778,588.41366 c -24.37454,173.7281 -61.55341,338.40423 -103.35766,457.80134 -41.80426,119.3972 -119.55517,178.8605 -119.55517,178.8605 0,0 -58.3854,-78.5635 -65.71883,-204.8548 -7.33349,-126.2915 2.24009,-294.84069 26.61466,-468.56877 C 318.88533,377.92385 356.0642,213.24778 397.86845,93.85054 439.67273,-25.546662 517.42363,-85.009723 517.42363,-85.009723 c 0,0 58.38538,78.5633959 65.71883,204.854753 7.33345,126.2914 -2.24013,294.84055 -26.61468,468.56863 z"
       sodipodi:nodetypes="sscssscss" />
    <path
       id="path9226"
       style="fill:#388e3c;fill-opacity:0.25;stroke-width:2.91499;stroke-linecap:round;paint-order:markers fill stroke"
       d="m 635.87906,495.03511 c 29.49391,172.93259 44.0404,341.12562 40.43939,467.57842 -3.60104,126.45277 -59.641,206.70627 -59.641,206.70627 0,0 -79.47293,-57.1414 -124.7846,-175.25216 C 446.58109,875.95688 404.55573,712.45046 375.06185,539.51788 345.56795,366.58531 331.02147,198.39235 334.62247,71.93946 c 3.60103,-126.45284 59.64108,-206.70601 59.64108,-206.70601 0,0 79.47287,57.141259 124.78455,175.251964 45.31171,118.110746 87.33706,281.617116 116.83096,454.549696 z"
       sodipodi:nodetypes="sscssscss" />
    <path
       id="path9230"
       style="fill:#388e3c;fill-opacity:0.25;stroke-width:2.91499;stroke-linecap:round;paint-order:markers fill stroke"
       d="m 766.716,543.25551 c 15.50228,174.74339 16.48635,343.56143 2.73569,469.31599 -13.75068,125.7544 -76.05829,201.2453 -76.05829,201.2453 0,0 -74.62425,-63.3428 -110.29844,-184.7127 C 547.42068,907.73417 518.67001,741.37949 503.16774,566.63611 487.66546,391.89274 486.6814,223.07479 500.43205,97.320186 c 13.75069,-125.754554 76.05837,-201.245016 76.05837,-201.245016 0,0 74.62419,63.342622 110.2984,184.712456 35.67422,121.369894 64.42489,287.724524 79.92718,462.467884 z"
       sodipodi:nodetypes="sscssscss" />
    <path
       id="path9234"
       style="fill:#388e3c;fill-opacity:0.25;stroke-width:2.91499;stroke-linecap:round;paint-order:markers fill stroke"
       d="m 967.12818,557.07155 c -21.83436,174.0656 -56.60391,339.26723 -96.6597,459.26225 -40.05578,119.995 -116.92988,180.5879 -116.92988,180.5879 0,0 -59.52668,-77.7025 -68.70401,-203.87332 -9.17742,-126.1708 -2.06681,-294.84184 19.76757,-468.90744 C 726.43653,350.07537 761.20605,184.87382 801.26187,64.878669 841.31769,-55.116406 918.19173,-115.7088 918.19173,-115.7088 c 0,0 59.52671,77.702185 68.70407,203.872948 9.17731,126.170832 2.06674,294.841812 -19.76762,468.907402 z"
       sodipodi:nodetypes="sscssscss" />
    <path
       id="path9238"
       style="fill:#388e3c;fill-opacity:0.25;stroke-width:2.91499;stroke-linecap:round;paint-order:markers fill stroke"
       d="m 1114.0394,581.81813 c -18.965,174.40154 -51.0093,340.15337 -89.0836,460.79167 -38.07438,120.6384 -113.94025,182.4889 -113.94025,182.4889 0,0 -60.79821,-76.7117 -72.05203,-202.7143 C 827.7096,896.38198 832.04165,727.61671 851.00664,553.21514 869.97159,378.81362 902.01593,213.0619 940.09028,92.423394 978.16465,-28.215032 1054.0305,-90.065133 1054.0305,-90.065133 c 0,0 60.7982,76.71138 72.0521,202.713913 11.2537,126.00259 6.9218,294.76779 -12.0432,469.16935 z"
       sodipodi:nodetypes="sscssscss" />
    <path
       id="path9242"
       style="fill:#388e3c;fill-opacity:0.25;stroke-width:2.91499;stroke-linecap:round;paint-order:markers fill stroke"
       d="m 1256.3887,543.98061 c -15.8229,174.71465 -44.8787,341.01638 -80.7755,462.32049 -35.8968,121.304 -110.6373,184.51 -110.6373,184.51 0,0 -62.1688,-75.6049 -75.68889,-201.38452 -13.51983,-125.77946 -12.22613,-294.59538 3.59677,-469.31004 15.82282,-174.71462 44.87872,-341.01624 80.77542,-462.320513 35.8969,-121.304164 110.6374,-184.509737 110.6374,-184.509737 0,0 62.1689,75.604642 75.6889,201.384217 13.5198,125.779623 12.2261,294.595443 -3.5968,469.310103 z"
       sodipodi:nodetypes="sscssscss" />
    <path
       id="path9246"
       style="fill:#388e3c;fill-opacity:0.25;stroke-width:2.91499;stroke-linecap:round;paint-order:markers fill stroke"
       d="m 1404.5267,550.97143 c -12.8276,174.96005 -39.0304,341.73514 -72.844,463.63617 -33.8138,121.9012 -107.4605,186.3784 -107.4605,186.3784 0,0 -63.4547,-74.529 -79.1274,-200.0585 -15.6726,-125.52942 -17.2707,-294.34273 -4.443,-469.30279 12.8275,-174.96003 39.0305,-341.73497 72.8439,-463.636339 33.8136,-121.901287 107.4607,-186.377871 107.4607,-186.377871 0,0 63.4547,74.528595 79.1273,200.058094 15.6725,125.529586 17.2707,294.342766 4.443,469.302836 z"
       sodipodi:nodetypes="sscssscss" />
    <path
       id="path9252"
       style="fill:#388e3c;fill-opacity:0.25;stroke-width:2.91499;stroke-linecap:round;paint-order:markers fill stroke"
       d="m 1595.7661,572.42794 c 11.4427,175.05607 8.5084,343.8515 -8.1572,469.25276 -16.6658,125.4015 -80.7088,199.4261 -80.7088,199.4261 0,0 -73.1337,-65.058 -105.9815,-187.223 -32.8478,-122.16494 -57.7298,-289.1421 -69.1722,-464.19824 -11.4429,-175.05603 -8.5083,-343.85141 8.1571,-469.25298 16.6655,-125.4015066 80.709,-199.425631 80.709,-199.425631 0,0 73.1335,65.057536 105.9813,187.222641 32.8478,122.16516 57.7298,289.1422 69.1723,464.19835 z"
       sodipodi:nodetypes="sscssscss" />
    <path
       id="path9254"
       style="fill:#388e3c;fill-opacity:0.25;stroke-width:2.91499;stroke-linecap:round;paint-order:markers fill stroke"
       d="m 1545.7314,594.64821 c -35.3566,171.82977 -82.9171,333.81283 -132.2184,450.31439 -49.3016,116.5015 -130.6716,170.9081 -130.6716,170.9081 0,0 -53.2784,-82.1126 -52.5779,-208.6146 0.7004,-126.50207 20.9573,-294.10322 56.3143,-465.93298 35.3564,-171.8298 82.9171,-333.81271 132.2183,-450.314561 49.3013,-116.501729 130.6716,-170.907691 130.6716,-170.907691 0,0 53.2786,82.1121124 52.5779,208.614272 -0.7005,126.50224 -20.9573,294.10327 -56.3142,465.93307 z"
       sodipodi:nodetypes="sscssscss" />
    <path
       id="path9264"
       style="fill:#388e3c;fill-opacity:0.25;stroke-width:2.91499;stroke-linecap:round;paint-order:markers fill stroke"
       d="m 1829.5956,582.00098 c -31.4216,172.59267 -75.269,335.62003 -121.8957,453.21762 -46.6271,117.5974 -126.733,173.8488 -126.733,173.8488 0,0 -55.1404,-80.8741 -57.3301,-207.3589 -2.1901,-126.48512 14.2326,-294.5053 45.6547,-467.09799 31.4215,-172.59271 75.269,-335.61997 121.8957,-453.217785 46.6269,-117.597635 126.733,-173.848433 126.733,-173.848433 0,0 55.1406,80.873518 57.3301,207.358678 2.1899,126.48519 -14.2327,294.50529 -45.6547,467.09801 z"
       sodipodi:nodetypes="sscssscss" />
    <path
       id="path9268"
       style="fill:#388e3c;fill-opacity:0.25;stroke-width:2.91499;stroke-linecap:round;paint-order:markers fill stroke"
       d="m 1982.9007,619.52608 c -1.0971,175.42618 -16.0872,343.58032 -41.6723,467.47012 -25.5852,123.8895 -94.755,193.148 -94.755,193.148 0,0 -68.2969,-70.1186 -92.3299,-194.3185 -24.0333,-124.20017 -36.9181,-292.52863 -35.8204,-467.95492 1.0972,-175.42618 16.0874,-343.58022 41.6722,-467.47014 25.5851,-123.889762 94.7552,-193.147622 94.7552,-193.147622 0,0 68.297,70.11785 92.3299,194.318162 24.0331,124.20026 36.9179,292.52861 35.8203,467.9549 z"
       sodipodi:nodetypes="sscssscss" />
    <path
       id="path9272"
       style="fill:#388e3c;fill-opacity:0.25;stroke-width:2.91499;stroke-linecap:round;paint-order:markers fill stroke"
       d="m 2086.9842,546.12433 c -3.0516,175.40306 -19.9142,343.37976 -46.8781,466.97677 -26.9639,123.5967 -96.9011,192.0802 -96.9011,192.0802 0,0 -67.5114,-70.8752 -90.1591,-195.3351 -22.6481,-124.46014 -33.6566,-292.92171 -30.6045,-468.32489 3.0517,-175.40307 19.9145,-343.37966 46.878,-466.97682 26.9638,-123.597028 96.9013,-192.07993 96.9013,-192.07993 0,0 67.5116,70.874457 90.1592,195.334814 22.6478,124.460326 33.6563,292.921776 30.6043,468.324956 z"
       sodipodi:nodetypes="sscssscss" />
    <path
       id="path12157"
       style="fill:#388e3c;fill-opacity:0.25;stroke-width:2.91499;stroke-linecap:round;paint-order:markers fill stroke"
       d="m 1829.5956,582.00098 c 13.4465,174.91354 12.445,343.73153 -2.7836,469.31552 -15.229,125.5838 -78.4203,200.337 -78.4203,200.337 0,0 -73.8737,-64.2166 -108.118,-185.9972 -34.2447,-121.78095 -61.0367,-288.46232 -74.4825,-463.37598 -13.4465,-174.91356 -12.4448,-343.73146 2.7836,-469.31565 15.2287,-125.584073 78.4204,-200.336632 78.4204,-200.336632 0,0 73.8738,64.21597 108.1179,185.997032 34.2446,121.78099 61.0367,288.46225 74.4825,463.37591 z"
       sodipodi:nodetypes="sscssscss" />
    <path
       id="path12159"
       style="fill:#388e3c;fill-opacity:0.25;stroke-width:2.91499;stroke-linecap:round;paint-order:markers fill stroke"
       d="m 881.79981,576.1072 c -6.31066,175.31613 -26.29167,342.95043 -55.54741,466.0251 -29.25573,123.0747 -100.45299,190.2467 -100.45299,190.2467 0,0 -66.18344,-72.117 -86.51454,-196.9767 C 618.95368,910.5426 611.07705,741.90559 617.38773,566.58946 623.6984,391.27335 643.67939,223.63913 672.93515,100.56433 702.19091,-22.510392 773.38816,-89.68188 773.38816,-89.68188 c 0,0 66.18344,72.116645 86.51457,196.97629 20.33108,124.85972 28.20774,293.49666 21.89708,468.81279 z"
       sodipodi:nodetypes="sscssscss" />
    <path
       id="path12241"
       style="fill:#388e3c;fill-opacity:0.25;stroke-width:2.91499;stroke-linecap:round;paint-order:markers fill stroke"
       d="m 1228.5685,602.04153 c -12.6335,174.97416 -38.6514,341.77812 -72.3298,463.71667 -33.6786,121.9387 -107.2538,186.4974 -107.2538,186.4974 0,0 -63.53733,-74.4586 -79.34907,-199.9706 -15.81178,-125.51199 -17.59718,-294.32339 -4.96338,-469.29758 12.63329,-174.97415 38.65145,-341.77806 72.32975,-463.71684 33.6783,-121.9386929 107.2539,-186.496942 107.2539,-186.496942 0,0 63.5372,74.4581801 79.349,199.970242 15.8117,125.51212 17.5971,294.32343 4.9634,469.29765 z"
       sodipodi:nodetypes="sscssscss" />
    <path
       id="path12243"
       style="fill:#388e3c;fill-opacity:0.25;stroke-width:2.91499;stroke-linecap:round;paint-order:markers fill stroke"
       d="m 967.12818,557.07155 c 1.19818,175.4256 -11.5903,343.76143 -35.552,467.97535 -23.96162,124.214 -92.21887,194.3714 -92.21887,194.3714 0,0 -69.20926,-69.2183 -94.86537,-193.0935 C 718.83576,902.4496 703.74915,734.3042 702.55102,558.87862 701.35289,383.45305 714.1413,215.11729 738.103,90.903196 762.06471,-33.310826 830.32198,-103.4678 830.32198,-103.4678 c 0,0 69.20919,69.218097 94.86532,193.09323 25.6561,123.87521 40.74273,292.02054 41.94088,467.44612 z"
       sodipodi:nodetypes="sscssscss" />
    <rect
       style="fill:url(#linearGradient10054);fill-opacity:1;stroke:none;stroke-width:2.11667;stroke-linecap:round;paint-order:markers fill stroke"
       id="rect9936"
       width="2032"
       height="1143"
       x="0"
       y="-2.2737368e-13" />
    <g
       id="layer3-5"
       transform="matrix(2.1166667,0,0,2.1166667,745.06666,300.56666)">
      <path
         id="path40-3"
         style="fill:none;stroke:#ffffff;stroke-width:24;stroke-miterlimit:4;stroke-dasharray:none"
         d="m 256,128 c 0,32.64694 0,128 0,128 0,0 -89.95449,0 -128,0 C 57.307552,256 0,198.69245 0,128 0,92.504104 0,0 0,0 0,0 92.803448,0 128,0 198.69245,0 256,57.307552 256,128 Z"
         sodipodi:nodetypes="scsscss"
         clip-path="url(#clipPath1223)" />
      <path
         style="color:#000000;fill:#ffffff;stroke-width:0;-inkscape-stroke:none"
         d="m 44,44 v 120 c 0,26.3675 21.63249,48 48,48 h 72 c 26.3675,0 48,-21.6325 48,-48 v -62 c 0,-19.7401 -16.25991,-36 -36,-36 -9.22193,0 -17.60014,3.64514 -24,9.43946 C 145.60014,69.64514 137.22192,66 128,66 108.2599,66 92,82.2599 92,102 v 62 h 24 v -62 c 0,-6.76954 5.23046,-12 12,-12 6.76953,0 12,5.23046 12,12 v 62 h 24 v -62 c 0,-6.76954 5.23046,-12 12,-12 6.76953,0 12,5.23046 12,12 v 62 c 0,13.39696 -10.60304,24 -24,24 H 92 C 78.60303,188 68,177.39696 68,164 V 44 Z"
         id="path4193"
         sodipodi:nodetypes="csssssscssccsssccssssssscc" />
    </g>
  </g>
  <metadata
     id="metadata2277">
    <rdf:RDF />
  </metadata>
</svg>
