<?xml version="1.0" encoding="UTF-8" standalone="no"?>
<!-- Created with Inkscape (http://www.inkscape.org/) -->

<svg
   width="3840"
   height="2160"
   version="1.1"
   viewBox="0 0 1016 571.5"
   id="svg14"
   sodipodi:docname="wallpaper1.svg"
   inkscape:version="1.1.1 (3bf5ae0d25, 2021-09-20)"
   xmlns:inkscape="http://www.inkscape.org/namespaces/inkscape"
   xmlns:sodipodi="http://sodipodi.sourceforge.net/DTD/sodipodi-0.dtd"
   xmlns="http://www.w3.org/2000/svg"
   xmlns:svg="http://www.w3.org/2000/svg"
   xmlns:rdf="http://www.w3.org/1999/02/22-rdf-syntax-ns#">
  <defs
     id="defs18">
    <filter
       style="color-interpolation-filters:sRGB;"
       inkscape:label="Drop Shadow"
       id="filter1825"
       x="-0.037794222"
       y="-0.037794628"
       width="1.0755884"
       height="1.0755893">
      <feFlood
         flood-opacity="1"
         flood-color="rgb(0,0,0)"
         result="flood"
         id="feFlood1815" />
      <feComposite
         in="flood"
         in2="SourceGraphic"
         operator="in"
         result="composite1"
         id="feComposite1817" />
      <feGaussianBlur
         in="composite1"
         stdDeviation="0.4"
         result="blur"
         id="feGaussianBlur1819" />
      <feOffset
         dx="0"
         dy="0"
         result="offset"
         id="feOffset1821" />
      <feComposite
         in="SourceGraphic"
         in2="offset"
         operator="over"
         result="composite2"
         id="feComposite1823" />
    </filter>
    <clipPath
       clipPathUnits="userSpaceOnUse"
       id="clipPath2175">
      <rect
         style="fill:#000000;fill-opacity:1;stroke:#26c6da;stroke-width:0.0708142;paint-order:markers stroke fill"
         id="rect2177"
         width="67.982147"
         height="38.239548"
         x="12.575429"
         y="231.31023" />
    </clipPath>
    <filter
       style="color-interpolation-filters:sRGB;"
       inkscape:label="Drop Shadow"
       id="filter1059"
       x="-0.060000001"
       y="-0.060000001"
       width="1.12"
       height="1.12">
      <feFlood
         flood-opacity="0.74902"
         flood-color="rgb(0,0,0)"
         result="flood"
         id="feFlood1049" />
      <feComposite
         in="flood"
         in2="SourceGraphic"
         operator="in"
         result="composite1"
         id="feComposite1051" />
      <feGaussianBlur
         in="composite1"
         stdDeviation="6.4"
         result="blur"
         id="feGaussianBlur1053" />
      <feOffset
         dx="0"
         dy="0"
         result="offset"
         id="feOffset1055" />
      <feComposite
         in="SourceGraphic"
         in2="offset"
         operator="over"
         result="composite2"
         id="feComposite1057" />
    </filter>
  </defs>
  <sodipodi:namedview
     id="namedview16"
     pagecolor="#ffffff"
     bordercolor="#666666"
     borderopacity="1.0"
     inkscape:pageshadow="2"
     inkscape:pageopacity="0.0"
     inkscape:pagecheckerboard="0"
     showgrid="false"
     inkscape:zoom="0.17792759"
     inkscape:cx="857.09026"
     inkscape:cy="1879.9783"
     inkscape:window-width="1920"
     inkscape:window-height="1052"
     inkscape:window-x="0"
     inkscape:window-y="0"
     inkscape:window-maximized="1"
     inkscape:current-layer="svg14" />
  <metadata
     id="metadata2">
    <rdf:RDF />
  </metadata>
  <g
     transform="matrix(14.945101,0,0,14.945261,-187.94105,-3456.9917)"
     id="g1768"
     clip-path="url(#clipPath2175)">
    <path
       d="m 93.133,250.43 c -2e-6,12.86 0,46.567 0,46.567 L 0,203.864 c 0,0 35.294,-1e-5 46.567,-1e-5 25.718,0 46.567,20.849 46.567,46.567 z"
       fill="#4caf50"
       id="path1764" />
    <path
       d="m 2.2453e-7,250.43 c 2e-6,-12.86 0,-46.567 0,-46.567 L 93.133,296.996 c 0,0 -35.294,1e-5 -46.567,1e-5 -25.718,0 -46.56699977547,-20.849 -46.56699977547,-46.567 z"
       fill="#388e3c"
       id="path1766" />
  </g>
  <g
     inkscape:groupmode="layer"
     id="layer1"
     inkscape:label="Layer 1" />
  <g
     id="layer3"
     transform="matrix(1.0583333,0,0,1.0583333,372.53334,150.28334)"
     style="filter:url(#filter1059)">
    <path
       id="path40"
       style="fill:#388e3c;stroke-width:0"
       d="m 256,128 c 0,32.64694 0,128 0,128 0,0 -89.95449,0 -128,0 C 57.307552,256 0,198.69245 0,128 0,92.504104 0,0 0,0 0,0 92.803448,0 128,0 198.69245,0 256,57.307552 256,128 Z"
       sodipodi:nodetypes="scsscss" />
    <path
       id="path1655"
       style="fill:#4caf50;stroke-width:0"
       d="M 256,128 V 256 L 0,0 h 128 c 70.69245,0 128,57.307552 128,128 z"
       sodipodi:nodetypes="sccss" />
    <path
       style="color:#000000;fill:#ffffff;stroke-width:0;-inkscape-stroke:none"
       d="m 44,44 v 120 c 0,26.3675 21.63249,48 48,48 h 72 c 26.3675,0 48,-21.6325 48,-48 v -62 c 0,-19.7401 -16.25991,-36 -36,-36 -9.22193,0 -17.60014,3.64514 -24,9.43946 C 145.60014,69.64514 137.22192,66 128,66 108.2599,66 92,82.2599 92,102 v 62 h 24 v -62 c 0,-6.76954 5.23046,-12 12,-12 6.76953,0 12,5.23046 12,12 v 62 h 24 v -62 c 0,-6.76954 5.23046,-12 12,-12 6.76953,0 12,5.23046 12,12 v 62 c 0,13.39696 -10.60304,24 -24,24 H 92 C 78.60303,188 68,177.39696 68,164 V 44 Z"
       id="path4193"
       sodipodi:nodetypes="csssssscssccsssccssssssscc" />
  </g>
</svg>
